<ttFont>
    <TTGlyph name="A" xMin="12" yMin="0" xMax="663" yMax="710">
      <contour>
        <pt x="309" y="710" on="1"/>
        <pt x="368" y="710" on="1"/>
        <pt x="663" y="0" on="1"/>
        <pt x="589" y="0" on="1"/>
        <pt x="497" y="222" on="1"/>
        <pt x="178" y="222" on="1"/>
        <pt x="87" y="0" on="1"/>
        <pt x="12" y="0" on="1"/>
      </contour>
      <contour>
        <pt x="481" y="277" on="1"/>
        <pt x="338" y="628" on="1"/>
        <pt x="193" y="277" on="1"/>
      </contour>
    </TTGlyph>
    <TTGlyph name="A.sc" xMin="17" yMin="0" xMax="567" yMax="548">
      <contour>
        <pt x="17" y="0" on="1"/>
        <pt x="267" y="548" on="1"/>
        <pt x="319" y="548" on="1"/>
        <pt x="567" y="0" on="1"/>
        <pt x="501" y="0" on="1"/>
        <pt x="425" y="165" on="1"/>
        <pt x="160" y="165" on="1"/>
        <pt x="85" y="0" on="1"/>
      </contour>
      <contour>
        <pt x="293" y="470" on="1"/>
        <pt x="175" y="220" on="1"/>
        <pt x="409" y="220" on="1"/>
      </contour>
    </TTGlyph>
    <TTGlyph name="AE" xMin="-26" yMin="0" xMax="921" yMax="710">
      <contour>
        <pt x="431" y="710" on="1"/>
        <pt x="912" y="710" on="1"/>
        <pt x="912" y="648" on="1"/>
        <pt x="518" y="648" on="1"/>
        <pt x="518" y="393" on="1"/>
        <pt x="858" y="393" on="1"/>
        <pt x="858" y="331" on="1"/>
        <pt x="518" y="331" on="1"/>
        <pt x="518" y="62" on="1"/>
        <pt x="921" y="62" on="1"/>
        <pt x="921" y="0" on="1"/>
        <pt x="450" y="0" on="1"/>
        <pt x="450" y="222" on="1"/>
        <pt x="191" y="222" on="1"/>
        <pt x="50" y="0" on="1"/>
        <pt x="-26" y="0" on="1"/>
      </contour>
      <contour>
        <pt x="445" y="284" on="1"/>
        <pt x="445" y="626" on="1"/>
        <pt x="223" y="284" on="1"/>
      </contour>
    </TTGlyph>
    <TTGlyph name="AEacute" xMin="-26" yMin="0" xMax="921" yMax="917">
      <contour>
        <pt x="518" y="807" on="1"/>
        <pt x="473" y="824" on="1"/>
        <pt x="532" y="917" on="1"/>
        <pt x="604" y="917" on="1"/>
      </contour>
      <contour>
        <pt x="431" y="710" on="1"/>
        <pt x="912" y="710" on="1"/>
        <pt x="912" y="648" on="1"/>
        <pt x="518" y="648" on="1"/>
        <pt x="518" y="393" on="1"/>
        <pt x="858" y="393" on="1"/>
        <pt x="858" y="331" on="1"/>
        <pt x="518" y="331" on="1"/>
        <pt x="518" y="62" on="1"/>
        <pt x="921" y="62" on="1"/>
        <pt x="921" y="0" on="1"/>
        <pt x="450" y="0" on="1"/>
        <pt x="450" y="222" on="1"/>
        <pt x="191" y="222" on="1"/>
        <pt x="50" y="0" on="1"/>
        <pt x="-26" y="0" on="1"/>
      </contour>
      <contour>
        <pt x="445" y="284" on="1"/>
        <pt x="445" y="626" on="1"/>
        <pt x="223" y="284" on="1"/>
      </contour>
    </TTGlyph>
    <TTGlyph name="Aacute" xMin="12" yMin="0" xMax="663" yMax="917">
      <contour>
        <pt x="309" y="710" on="1"/>
        <pt x="368" y="710" on="1"/>
        <pt x="663" y="0" on="1"/>
        <pt x="589" y="0" on="1"/>
        <pt x="497" y="222" on="1"/>
        <pt x="178" y="222" on="1"/>
        <pt x="87" y="0" on="1"/>
        <pt x="12" y="0" on="1"/>
      </contour>
      <contour>
        <pt x="481" y="277" on="1"/>
        <pt x="338" y="628" on="1"/>
        <pt x="193" y="277" on="1"/>
      </contour>
      <contour>
        <pt x="345" y="807" on="1"/>
        <pt x="300" y="824" on="1"/>
        <pt x="359" y="917" on="1"/>
        <pt x="431" y="917" on="1"/>
      </contour>
    </TTGlyph>
    <TTGlyph name="Abreve" xMin="12" yMin="0" xMax="663" yMax="917">
      <contour>
        <pt x="309" y="710" on="1"/>
        <pt x="368" y="710" on="1"/>
        <pt x="663" y="0" on="1"/>
        <pt x="589" y="0" on="1"/>
        <pt x="497" y="222" on="1"/>
        <pt x="178" y="222" on="1"/>
        <pt x="87" y="0" on="1"/>
        <pt x="12" y="0" on="1"/>
      </contour>
      <contour>
        <pt x="481" y="277" on="1"/>
        <pt x="338" y="628" on="1"/>
        <pt x="193" y="277" on="1"/>
      </contour>
      <contour>
        <pt x="338" y="851" on="1"/>
        <pt x="359" y="851" on="0"/>
        <pt x="392" y="889" on="0"/>
        <pt x="395" y="917" on="1"/>
        <pt x="436" y="917" on="1"/>
        <pt x="436" y="896" on="0"/>
        <pt x="421" y="859" on="0"/>
        <pt x="394" y="832" on="0"/>
        <pt x="358" y="816" on="0"/>
        <pt x="338" y="816" on="1"/>
        <pt x="296" y="816" on="0"/>
        <pt x="240" y="874" on="0"/>
        <pt x="240" y="917" on="1"/>
        <pt x="282" y="917" on="1"/>
        <pt x="282" y="891" on="0"/>
        <pt x="316" y="851" on="0"/>
      </contour>
    </TTGlyph>
    <TTGlyph name="Acircumflex" xMin="12" yMin="0" xMax="663" yMax="917">
      <contour>
        <pt x="309" y="710" on="1"/>
        <pt x="368" y="710" on="1"/>
        <pt x="663" y="0" on="1"/>
        <pt x="589" y="0" on="1"/>
        <pt x="497" y="222" on="1"/>
        <pt x="178" y="222" on="1"/>
        <pt x="87" y="0" on="1"/>
        <pt x="12" y="0" on="1"/>
      </contour>
      <contour>
        <pt x="481" y="277" on="1"/>
        <pt x="338" y="628" on="1"/>
        <pt x="193" y="277" on="1"/>
      </contour>
      <contour>
        <pt x="215" y="832" on="1"/>
        <pt x="313" y="917" on="1"/>
        <pt x="363" y="917" on="1"/>
        <pt x="462" y="832" on="1"/>
        <pt x="423" y="811" on="1"/>
        <pt x="338" y="874" on="1"/>
        <pt x="253" y="811" on="1"/>
      </contour>
    </TTGlyph>
    <TTGlyph name="Adblgrave" xMin="12" yMin="0" xMax="663" yMax="918">
      <contour>
        <pt x="309" y="710" on="1"/>
        <pt x="368" y="710" on="1"/>
        <pt x="663" y="0" on="1"/>
        <pt x="589" y="0" on="1"/>
        <pt x="497" y="222" on="1"/>
        <pt x="178" y="222" on="1"/>
        <pt x="87" y="0" on="1"/>
        <pt x="12" y="0" on="1"/>
      </contour>
      <contour>
        <pt x="481" y="277" on="1"/>
        <pt x="338" y="628" on="1"/>
        <pt x="193" y="277" on="1"/>
      </contour>
      <contour>
        <pt x="306" y="918" on="1"/>
        <pt x="369" y="918" on="1"/>
        <pt x="426" y="825" on="1"/>
        <pt x="389" y="808" on="1"/>
      </contour>
      <contour>
        <pt x="180" y="918" on="1"/>
        <pt x="244" y="918" on="1"/>
        <pt x="301" y="825" on="1"/>
        <pt x="264" y="808" on="1"/>
      </contour>
    </TTGlyph>
    <TTGlyph name="Adieresis" xMin="12" yMin="0" xMax="663" yMax="914">
      <contour>
        <pt x="309" y="710" on="1"/>
        <pt x="368" y="710" on="1"/>
        <pt x="663" y="0" on="1"/>
        <pt x="589" y="0" on="1"/>
        <pt x="497" y="222" on="1"/>
        <pt x="178" y="222" on="1"/>
        <pt x="87" y="0" on="1"/>
        <pt x="12" y="0" on="1"/>
      </contour>
      <contour>
        <pt x="481" y="277" on="1"/>
        <pt x="338" y="628" on="1"/>
        <pt x="193" y="277" on="1"/>
      </contour>
      <contour>
        <pt x="235" y="820" on="1"/>
        <pt x="235" y="914" on="1"/>
        <pt x="293" y="914" on="1"/>
        <pt x="293" y="820" on="1"/>
      </contour>
      <contour>
        <pt x="384" y="820" on="1"/>
        <pt x="384" y="914" on="1"/>
        <pt x="442" y="914" on="1"/>
        <pt x="442" y="820" on="1"/>
      </contour>
    </TTGlyph>
    <TTGlyph name="Agrave" xMin="12" yMin="0" xMax="663" yMax="917">
      <contour>
        <pt x="309" y="710" on="1"/>
        <pt x="368" y="710" on="1"/>
        <pt x="663" y="0" on="1"/>
        <pt x="589" y="0" on="1"/>
        <pt x="497" y="222" on="1"/>
        <pt x="178" y="222" on="1"/>
        <pt x="87" y="0" on="1"/>
        <pt x="12" y="0" on="1"/>
      </contour>
      <contour>
        <pt x="481" y="277" on="1"/>
        <pt x="338" y="628" on="1"/>
        <pt x="193" y="277" on="1"/>
      </contour>
      <contour>
        <pt x="245" y="917" on="1"/>
        <pt x="316" y="917" on="1"/>
        <pt x="376" y="824" on="1"/>
        <pt x="332" y="807" on="1"/>
      </contour>
    </TTGlyph>
    <TTGlyph name="Ainvertedbreve" xMin="12" yMin="0" xMax="663" yMax="917">
      <contour>
        <pt x="309" y="710" on="1"/>
        <pt x="368" y="710" on="1"/>
        <pt x="663" y="0" on="1"/>
        <pt x="589" y="0" on="1"/>
        <pt x="497" y="222" on="1"/>
        <pt x="178" y="222" on="1"/>
        <pt x="87" y="0" on="1"/>
        <pt x="12" y="0" on="1"/>
      </contour>
      <contour>
        <pt x="481" y="277" on="1"/>
        <pt x="338" y="628" on="1"/>
        <pt x="193" y="277" on="1"/>
      </contour>
      <contour>
        <pt x="338" y="882" on="1"/>
        <pt x="316" y="882" on="0"/>
        <pt x="282" y="842" on="0"/>
        <pt x="282" y="816" on="1"/>
        <pt x="240" y="816" on="1"/>
        <pt x="240" y="859" on="0"/>
        <pt x="296" y="917" on="0"/>
        <pt x="338" y="917" on="1"/>
        <pt x="358" y="917" on="0"/>
        <pt x="394" y="901" on="0"/>
        <pt x="421" y="874" on="0"/>
        <pt x="436" y="837" on="0"/>
        <pt x="436" y="816" on="1"/>
        <pt x="395" y="816" on="1"/>
        <pt x="392" y="844" on="0"/>
        <pt x="359" y="882" on="0"/>
      </contour>
    </TTGlyph>
    <TTGlyph name="Amacron" xMin="12" yMin="0" xMax="663" yMax="897">
      <contour>
        <pt x="309" y="710" on="1"/>
        <pt x="368" y="710" on="1"/>
        <pt x="663" y="0" on="1"/>
        <pt x="589" y="0" on="1"/>
        <pt x="497" y="222" on="1"/>
        <pt x="178" y="222" on="1"/>
        <pt x="87" y="0" on="1"/>
        <pt x="12" y="0" on="1"/>
      </contour>
      <contour>
        <pt x="481" y="277" on="1"/>
        <pt x="338" y="628" on="1"/>
        <pt x="193" y="277" on="1"/>
      </contour>
      <contour>
        <pt x="194" y="850" on="1"/>
        <pt x="194" y="897" on="1"/>
        <pt x="483" y="897" on="1"/>
        <pt x="483" y="850" on="1"/>
      </contour>
    </TTGlyph>
    <TTGlyph name="Aogonek" xMin="12" yMin="-175" xMax="663" yMax="710">
      <contour>
        <pt x="614" y="-175" on="1"/>
        <pt x="577" y="-167" on="0"/>
        <pt x="539" y="-128" on="0"/>
        <pt x="539" y="-102" on="1"/>
        <pt x="539" y="-77" on="0"/>
        <pt x="575" y="-27" on="0"/>
        <pt x="614" y="0" on="1"/>
        <pt x="589" y="0" on="1"/>
        <pt x="497" y="222" on="1"/>
        <pt x="178" y="222" on="1"/>
        <pt x="87" y="0" on="1"/>
        <pt x="12" y="0" on="1"/>
        <pt x="309" y="710" on="1"/>
        <pt x="368" y="710" on="1"/>
        <pt x="663" y="0" on="1"/>
        <pt x="618" y="-28" on="0"/>
        <pt x="581" y="-71" on="0"/>
        <pt x="581" y="-93" on="1"/>
        <pt x="581" y="-130" on="0"/>
        <pt x="633" y="-137" on="1"/>
      </contour>
      <contour>
        <pt x="481" y="277" on="1"/>
        <pt x="338" y="628" on="1"/>
        <pt x="193" y="277" on="1"/>
      </contour>
    </TTGlyph>
    <TTGlyph name="Aring" xMin="12" yMin="0" xMax="663" yMax="917">
      <contour>
        <pt x="309" y="710" on="1"/>
        <pt x="368" y="710" on="1"/>
        <pt x="663" y="0" on="1"/>
        <pt x="589" y="0" on="1"/>
        <pt x="497" y="222" on="1"/>
        <pt x="178" y="222" on="1"/>
        <pt x="87" y="0" on="1"/>
        <pt x="12" y="0" on="1"/>
      </contour>
      <contour>
        <pt x="481" y="277" on="1"/>
        <pt x="338" y="628" on="1"/>
        <pt x="193" y="277" on="1"/>
      </contour>
      <contour>
        <pt x="264" y="852" on="1"/>
        <pt x="264" y="881" on="0"/>
        <pt x="306" y="917" on="0"/>
        <pt x="338" y="917" on="1"/>
        <pt x="370" y="917" on="0"/>
        <pt x="412" y="881" on="0"/>
        <pt x="412" y="852" on="1"/>
        <pt x="412" y="822" on="0"/>
        <pt x="370" y="786" on="0"/>
        <pt x="338" y="786" on="1"/>
        <pt x="306" y="786" on="0"/>
        <pt x="264" y="822" on="0"/>
      </contour>
      <contour>
        <pt x="338" y="890" on="1"/>
        <pt x="321" y="890" on="0"/>
        <pt x="298" y="869" on="0"/>
        <pt x="298" y="852" on="1"/>
        <pt x="298" y="835" on="0"/>
        <pt x="321" y="813" on="0"/>
        <pt x="338" y="813" on="1"/>
        <pt x="354" y="813" on="0"/>
        <pt x="379" y="835" on="0"/>
        <pt x="379" y="852" on="1"/>
        <pt x="379" y="869" on="0"/>
        <pt x="355" y="890" on="0"/>
      </contour>
    </TTGlyph>
    <TTGlyph name="Aringacute" xMin="12" yMin="0" xMax="663" yMax="918">
      <contour>
        <pt x="368" y="809" on="1"/>
        <pt x="388" y="802" on="0"/>
        <pt x="412" y="771" on="0"/>
        <pt x="412" y="749" on="1"/>
        <pt x="412" y="729" on="0"/>
        <pt x="393" y="699" on="0"/>
        <pt x="376" y="691" on="1"/>
        <pt x="663" y="0" on="1"/>
        <pt x="589" y="0" on="1"/>
        <pt x="497" y="222" on="1"/>
        <pt x="178" y="222" on="1"/>
        <pt x="87" y="0" on="1"/>
        <pt x="12" y="0" on="1"/>
        <pt x="301" y="690" on="1"/>
        <pt x="284" y="698" on="0"/>
        <pt x="264" y="729" on="0"/>
        <pt x="264" y="749" on="1"/>
        <pt x="264" y="776" on="0"/>
        <pt x="300" y="811" on="0"/>
        <pt x="329" y="813" on="1"/>
        <pt x="363" y="918" on="1"/>
        <pt x="435" y="918" on="1"/>
      </contour>
      <contour>
        <pt x="481" y="277" on="1"/>
        <pt x="338" y="628" on="1"/>
        <pt x="193" y="277" on="1"/>
      </contour>
      <contour>
        <pt x="338" y="787" on="1"/>
        <pt x="321" y="787" on="0"/>
        <pt x="298" y="766" on="0"/>
        <pt x="298" y="749" on="1"/>
        <pt x="298" y="732" on="0"/>
        <pt x="321" y="710" on="0"/>
        <pt x="338" y="710" on="1"/>
        <pt x="354" y="710" on="0"/>
        <pt x="379" y="732" on="0"/>
        <pt x="379" y="749" on="1"/>
        <pt x="379" y="766" on="0"/>
        <pt x="355" y="787" on="0"/>
      </contour>
    </TTGlyph>
    <TTGlyph name="Atilde" xMin="12" yMin="0" xMax="663" yMax="917">
      <contour>
        <pt x="309" y="710" on="1"/>
        <pt x="368" y="710" on="1"/>
        <pt x="663" y="0" on="1"/>
        <pt x="589" y="0" on="1"/>
        <pt x="497" y="222" on="1"/>
        <pt x="178" y="222" on="1"/>
        <pt x="87" y="0" on="1"/>
        <pt x="12" y="0" on="1"/>
      </contour>
      <contour>
        <pt x="481" y="277" on="1"/>
        <pt x="338" y="628" on="1"/>
        <pt x="193" y="277" on="1"/>
      </contour>
      <contour>
        <pt x="400" y="825" on="1"/>
        <pt x="377" y="825" on="0"/>
        <pt x="344" y="837" on="0"/>
        <pt x="315" y="852" on="0"/>
        <pt x="288" y="865" on="0"/>
        <pt x="272" y="865" on="1"/>
        <pt x="255" y="865" on="0"/>
        <pt x="236" y="851" on="0"/>
        <pt x="225" y="834" on="0"/>
        <pt x="222" y="819" on="0"/>
        <pt x="222" y="817" on="1"/>
        <pt x="180" y="817" on="1"/>
        <pt x="180" y="822" on="0"/>
        <pt x="187" y="853" on="0"/>
        <pt x="207" y="885" on="0"/>
        <pt x="243" y="910" on="0"/>
        <pt x="271" y="910" on="1"/>
        <pt x="292" y="910" on="0"/>
        <pt x="323" y="897" on="0"/>
        <pt x="351" y="881" on="0"/>
        <pt x="380" y="868" on="0"/>
        <pt x="399" y="868" on="1"/>
        <pt x="418" y="868" on="0"/>
        <pt x="441" y="882" on="0"/>
        <pt x="453" y="900" on="0"/>
        <pt x="456" y="915" on="0"/>
        <pt x="456" y="917" on="1"/>
        <pt x="498" y="917" on="1"/>
        <pt x="498" y="912" on="0"/>
        <pt x="490" y="882" on="0"/>
        <pt x="469" y="850" on="0"/>
        <pt x="430" y="825" on="0"/>
      </contour>
    </TTGlyph>
    <TTGlyph name="B" xMin="89" yMin="0" xMax="623" yMax="710">
      <contour>
        <pt x="623" y="183" on="1"/>
        <pt x="623" y="143" on="0"/>
        <pt x="591" y="76" on="0"/>
        <pt x="537" y="27" on="0"/>
        <pt x="465" y="0" on="0"/>
        <pt x="424" y="0" on="1"/>
        <pt x="89" y="0" on="1"/>
        <pt x="89" y="710" on="1"/>
        <pt x="431" y="710" on="1"/>
        <pt x="468" y="710" on="0"/>
        <pt x="528" y="678" on="0"/>
        <pt x="570" y="627" on="0"/>
        <pt x="593" y="562" on="0"/>
        <pt x="593" y="529" on="1"/>
        <pt x="593" y="475" on="0"/>
        <pt x="539" y="386" on="0"/>
        <pt x="491" y="364" on="1"/>
        <pt x="552" y="346" on="0"/>
        <pt x="623" y="248" on="0"/>
      </contour>
      <contour>
        <pt x="553" y="195" on="1"/>
        <pt x="553" y="221" on="0"/>
        <pt x="535" y="270" on="0"/>
        <pt x="502" y="307" on="0"/>
        <pt x="457" y="330" on="0"/>
        <pt x="431" y="330" on="1"/>
        <pt x="159" y="330" on="1"/>
        <pt x="159" y="61" on="1"/>
        <pt x="424" y="61" on="1"/>
        <pt x="451" y="61" on="0"/>
        <pt x="498" y="83" on="0"/>
        <pt x="533" y="120" on="0"/>
        <pt x="553" y="169" on="0"/>
      </contour>
      <contour>
        <pt x="159" y="649" on="1"/>
        <pt x="159" y="387" on="1"/>
        <pt x="403" y="387" on="1"/>
        <pt x="429" y="387" on="0"/>
        <pt x="474" y="409" on="0"/>
        <pt x="506" y="445" on="0"/>
        <pt x="524" y="492" on="0"/>
        <pt x="524" y="518" on="1"/>
        <pt x="524" y="545" on="0"/>
        <pt x="507" y="593" on="0"/>
        <pt x="476" y="628" on="0"/>
        <pt x="434" y="649" on="0"/>
        <pt x="409" y="649" on="1"/>
      </contour>
    </TTGlyph>
    <TTGlyph name="B.sc" xMin="84" yMin="0" xMax="533" yMax="548">
      <contour>
        <pt x="533" y="141" on="1"/>
        <pt x="533" y="110" on="0"/>
        <pt x="506" y="58" on="0"/>
        <pt x="460" y="21" on="0"/>
        <pt x="399" y="0" on="0"/>
        <pt x="364" y="0" on="1"/>
        <pt x="84" y="0" on="1"/>
        <pt x="84" y="548" on="1"/>
        <pt x="373" y="548" on="1"/>
        <pt x="404" y="548" on="0"/>
        <pt x="454" y="524" on="0"/>
        <pt x="488" y="484" on="0"/>
        <pt x="507" y="434" on="0"/>
        <pt x="507" y="408" on="1"/>
        <pt x="507" y="366" on="0"/>
        <pt x="463" y="298" on="0"/>
        <pt x="423" y="281" on="1"/>
        <pt x="474" y="267" on="0"/>
        <pt x="533" y="192" on="0"/>
      </contour>
      <contour>
        <pt x="470" y="152" on="1"/>
        <pt x="470" y="171" on="0"/>
        <pt x="455" y="207" on="0"/>
        <pt x="428" y="235" on="0"/>
        <pt x="391" y="251" on="0"/>
        <pt x="370" y="251" on="1"/>
        <pt x="146" y="251" on="1"/>
        <pt x="146" y="54" on="1"/>
        <pt x="364" y="54" on="1"/>
        <pt x="386" y="54" on="0"/>
        <pt x="425" y="70" on="0"/>
        <pt x="453" y="97" on="0"/>
        <pt x="470" y="133" on="0"/>
      </contour>
      <contour>
        <pt x="146" y="492" on="1"/>
        <pt x="146" y="302" on="1"/>
        <pt x="347" y="302" on="1"/>
        <pt x="368" y="302" on="0"/>
        <pt x="405" y="317" on="0"/>
        <pt x="431" y="343" on="0"/>
        <pt x="446" y="378" on="0"/>
        <pt x="446" y="397" on="1"/>
        <pt x="446" y="438" on="0"/>
        <pt x="394" y="492" on="0"/>
        <pt x="352" y="492" on="1"/>
      </contour>
    </TTGlyph>
    <TTGlyph name="C" xMin="42" yMin="-6" xMax="655" yMax="714">
      <contour>
        <pt x="42" y="360" on="1"/>
        <pt x="42" y="424" on="0"/>
        <pt x="87" y="551" on="0"/>
        <pt x="173" y="651" on="0"/>
        <pt x="299" y="714" on="0"/>
        <pt x="379" y="714" on="1"/>
        <pt x="474" y="714" on="0"/>
        <pt x="609" y="628" on="0"/>
        <pt x="641" y="559" on="1"/>
        <pt x="586" y="525" on="1"/>
        <pt x="569" y="560" on="0"/>
        <pt x="520" y="608" on="0"/>
        <pt x="464" y="638" on="0"/>
        <pt x="404" y="651" on="0"/>
        <pt x="375" y="651" on="1"/>
        <pt x="311" y="651" on="0"/>
        <pt x="213" y="599" on="0"/>
        <pt x="146" y="515" on="0"/>
        <pt x="112" y="410" on="0"/>
        <pt x="112" y="356" on="1"/>
        <pt x="112" y="297" on="0"/>
        <pt x="153" y="189" on="0"/>
        <pt x="224" y="106" on="0"/>
        <pt x="321" y="57" on="0"/>
        <pt x="378" y="57" on="1"/>
        <pt x="408" y="57" on="0"/>
        <pt x="471" y="72" on="0"/>
        <pt x="530" y="105" on="0"/>
        <pt x="580" y="154" on="0"/>
        <pt x="597" y="189" on="1"/>
        <pt x="655" y="159" on="1"/>
        <pt x="638" y="119" on="0"/>
        <pt x="576" y="58" on="0"/>
        <pt x="500" y="16" on="0"/>
        <pt x="415" y="-6" on="0"/>
        <pt x="374" y="-6" on="1"/>
        <pt x="301" y="-6" on="0"/>
        <pt x="179" y="58" on="0"/>
        <pt x="91" y="161" on="0"/>
        <pt x="42" y="292" on="0"/>
      </contour>
    </TTGlyph>
    <TTGlyph name="C.sc" xMin="44" yMin="-5" xMax="561" yMax="551">
      <contour>
        <pt x="44" y="278" on="1"/>
        <pt x="44" y="327" on="0"/>
        <pt x="82" y="425" on="0"/>
        <pt x="154" y="503" on="0"/>
        <pt x="260" y="551" on="0"/>
        <pt x="328" y="551" on="1"/>
        <pt x="408" y="551" on="0"/>
        <pt x="521" y="484" on="0"/>
        <pt x="549" y="431" on="1"/>
        <pt x="499" y="399" on="1"/>
        <pt x="485" y="426" on="0"/>
        <pt x="445" y="462" on="0"/>
        <pt x="399" y="485" on="0"/>
        <pt x="349" y="494" on="0"/>
        <pt x="325" y="494" on="1"/>
        <pt x="272" y="494" on="0"/>
        <pt x="190" y="455" on="0"/>
        <pt x="135" y="393" on="0"/>
        <pt x="107" y="315" on="0"/>
        <pt x="107" y="275" on="1"/>
        <pt x="107" y="231" on="0"/>
        <pt x="140" y="150" on="0"/>
        <pt x="199" y="88" on="0"/>
        <pt x="280" y="52" on="0"/>
        <pt x="327" y="52" on="1"/>
        <pt x="352" y="52" on="0"/>
        <pt x="404" y="63" on="0"/>
        <pt x="453" y="87" on="0"/>
        <pt x="494" y="125" on="0"/>
        <pt x="508" y="151" on="1"/>
        <pt x="561" y="122" on="1"/>
        <pt x="546" y="92" on="0"/>
        <pt x="494" y="44" on="0"/>
        <pt x="429" y="12" on="0"/>
        <pt x="357" y="-5" on="0"/>
        <pt x="323" y="-5" on="1"/>
        <pt x="261" y="-5" on="0"/>
        <pt x="159" y="44" on="0"/>
        <pt x="85" y="124" on="0"/>
        <pt x="44" y="225" on="0"/>
      </contour>
    </TTGlyph>
    <TTGlyph name="Cacute" xMin="42" yMin="-6" xMax="655" yMax="917">
      <contour>
        <pt x="384" y="807" on="1"/>
        <pt x="339" y="824" on="1"/>
        <pt x="398" y="917" on="1"/>
        <pt x="470" y="917" on="1"/>
      </contour>
      <contour>
        <pt x="42" y="360" on="1"/>
        <pt x="42" y="424" on="0"/>
        <pt x="87" y="551" on="0"/>
        <pt x="173" y="651" on="0"/>
        <pt x="299" y="714" on="0"/>
        <pt x="379" y="714" on="1"/>
        <pt x="474" y="714" on="0"/>
        <pt x="609" y="628" on="0"/>
        <pt x="641" y="559" on="1"/>
        <pt x="586" y="525" on="1"/>
        <pt x="569" y="560" on="0"/>
        <pt x="520" y="608" on="0"/>
        <pt x="464" y="638" on="0"/>
        <pt x="404" y="651" on="0"/>
        <pt x="375" y="651" on="1"/>
        <pt x="311" y="651" on="0"/>
        <pt x="213" y="599" on="0"/>
        <pt x="146" y="515" on="0"/>
        <pt x="112" y="410" on="0"/>
        <pt x="112" y="356" on="1"/>
        <pt x="112" y="297" on="0"/>
        <pt x="153" y="189" on="0"/>
        <pt x="224" y="106" on="0"/>
        <pt x="321" y="57" on="0"/>
        <pt x="378" y="57" on="1"/>
        <pt x="408" y="57" on="0"/>
        <pt x="471" y="72" on="0"/>
        <pt x="530" y="105" on="0"/>
        <pt x="580" y="154" on="0"/>
        <pt x="597" y="189" on="1"/>
        <pt x="655" y="159" on="1"/>
        <pt x="638" y="119" on="0"/>
        <pt x="576" y="58" on="0"/>
        <pt x="500" y="16" on="0"/>
        <pt x="415" y="-6" on="0"/>
        <pt x="374" y="-6" on="1"/>
        <pt x="301" y="-6" on="0"/>
        <pt x="179" y="58" on="0"/>
        <pt x="91" y="161" on="0"/>
        <pt x="42" y="292" on="0"/>
      </contour>
    </TTGlyph>
    <TTGlyph name="Ccaron" xMin="42" yMin="-6" xMax="655" yMax="917">
      <contour>
        <pt x="292" y="917" on="1"/>
        <pt x="377" y="854" on="1"/>
        <pt x="462" y="917" on="1"/>
        <pt x="501" y="897" on="1"/>
        <pt x="402" y="811" on="1"/>
        <pt x="352" y="811" on="1"/>
        <pt x="254" y="897" on="1"/>
      </contour>
      <contour>
        <pt x="42" y="360" on="1"/>
        <pt x="42" y="424" on="0"/>
        <pt x="87" y="551" on="0"/>
        <pt x="173" y="651" on="0"/>
        <pt x="299" y="714" on="0"/>
        <pt x="379" y="714" on="1"/>
        <pt x="474" y="714" on="0"/>
        <pt x="609" y="628" on="0"/>
        <pt x="641" y="559" on="1"/>
        <pt x="586" y="525" on="1"/>
        <pt x="569" y="560" on="0"/>
        <pt x="520" y="608" on="0"/>
        <pt x="464" y="638" on="0"/>
        <pt x="404" y="651" on="0"/>
        <pt x="375" y="651" on="1"/>
        <pt x="311" y="651" on="0"/>
        <pt x="213" y="599" on="0"/>
        <pt x="146" y="515" on="0"/>
        <pt x="112" y="410" on="0"/>
        <pt x="112" y="356" on="1"/>
        <pt x="112" y="297" on="0"/>
        <pt x="153" y="189" on="0"/>
        <pt x="224" y="106" on="0"/>
        <pt x="321" y="57" on="0"/>
        <pt x="378" y="57" on="1"/>
        <pt x="408" y="57" on="0"/>
        <pt x="471" y="72" on="0"/>
        <pt x="530" y="105" on="0"/>
        <pt x="580" y="154" on="0"/>
        <pt x="597" y="189" on="1"/>
        <pt x="655" y="159" on="1"/>
        <pt x="638" y="119" on="0"/>
        <pt x="576" y="58" on="0"/>
        <pt x="500" y="16" on="0"/>
        <pt x="415" y="-6" on="0"/>
        <pt x="374" y="-6" on="1"/>
        <pt x="301" y="-6" on="0"/>
        <pt x="179" y="58" on="0"/>
        <pt x="91" y="161" on="0"/>
        <pt x="42" y="292" on="0"/>
      </contour>
    </TTGlyph>
    <TTGlyph name="Ccedilla" xMin="39" yMin="-176" xMax="652" yMax="714">
      <contour>
        <pt x="294" y="-126" on="1"/>
        <pt x="308" y="-133" on="0"/>
        <pt x="356" y="-144" on="0"/>
        <pt x="382" y="-144" on="1"/>
        <pt x="439" y="-144" on="0"/>
        <pt x="439" y="-109" on="1"/>
        <pt x="439" y="-89" on="0"/>
        <pt x="412" y="-73" on="0"/>
        <pt x="389" y="-73" on="1"/>
        <pt x="368" y="-73" on="0"/>
        <pt x="322" y="-82" on="0"/>
        <pt x="309" y="-87" on="1"/>
        <pt x="353" y="-5" on="1"/>
        <pt x="284" y="-1" on="0"/>
        <pt x="168" y="65" on="0"/>
        <pt x="85" y="167" on="0"/>
        <pt x="39" y="294" on="0"/>
        <pt x="39" y="360" on="1"/>
        <pt x="39" y="424" on="0"/>
        <pt x="84" y="551" on="0"/>
        <pt x="170" y="651" on="0"/>
        <pt x="296" y="714" on="0"/>
        <pt x="376" y="714" on="1"/>
        <pt x="471" y="714" on="0"/>
        <pt x="606" y="628" on="0"/>
        <pt x="638" y="559" on="1"/>
        <pt x="583" y="525" on="1"/>
        <pt x="566" y="560" on="0"/>
        <pt x="517" y="608" on="0"/>
        <pt x="461" y="638" on="0"/>
        <pt x="401" y="651" on="0"/>
        <pt x="372" y="651" on="1"/>
        <pt x="308" y="651" on="0"/>
        <pt x="210" y="599" on="0"/>
        <pt x="143" y="515" on="0"/>
        <pt x="109" y="410" on="0"/>
        <pt x="109" y="356" on="1"/>
        <pt x="109" y="297" on="0"/>
        <pt x="150" y="189" on="0"/>
        <pt x="221" y="106" on="0"/>
        <pt x="318" y="57" on="0"/>
        <pt x="375" y="57" on="1"/>
        <pt x="405" y="57" on="0"/>
        <pt x="468" y="72" on="0"/>
        <pt x="527" y="105" on="0"/>
        <pt x="577" y="154" on="0"/>
        <pt x="594" y="189" on="1"/>
        <pt x="652" y="159" on="1"/>
        <pt x="636" y="122" on="0"/>
        <pt x="580" y="63" on="0"/>
        <pt x="510" y="22" on="0"/>
        <pt x="431" y="-2" on="0"/>
        <pt x="392" y="-5" on="1"/>
        <pt x="364" y="-51" on="1"/>
        <pt x="373" y="-47" on="0"/>
        <pt x="394" y="-45" on="0"/>
        <pt x="402" y="-45" on="1"/>
        <pt x="437" y="-45" on="0"/>
        <pt x="478" y="-76" on="0"/>
        <pt x="478" y="-106" on="1"/>
        <pt x="478" y="-140" on="0"/>
        <pt x="426" y="-176" on="0"/>
        <pt x="376" y="-176" on="1"/>
        <pt x="347" y="-176" on="0"/>
        <pt x="297" y="-165" on="0"/>
        <pt x="277" y="-157" on="1"/>
      </contour>
    </TTGlyph>
    <TTGlyph name="Ccircumflex" xMin="42" yMin="-6" xMax="655" yMax="917">
      <contour>
        <pt x="254" y="832" on="1"/>
        <pt x="352" y="917" on="1"/>
        <pt x="402" y="917" on="1"/>
        <pt x="501" y="832" on="1"/>
        <pt x="462" y="811" on="1"/>
        <pt x="377" y="874" on="1"/>
        <pt x="292" y="811" on="1"/>
      </contour>
      <contour>
        <pt x="42" y="360" on="1"/>
        <pt x="42" y="424" on="0"/>
        <pt x="87" y="551" on="0"/>
        <pt x="173" y="651" on="0"/>
        <pt x="299" y="714" on="0"/>
        <pt x="379" y="714" on="1"/>
        <pt x="474" y="714" on="0"/>
        <pt x="609" y="628" on="0"/>
        <pt x="641" y="559" on="1"/>
        <pt x="586" y="525" on="1"/>
        <pt x="569" y="560" on="0"/>
        <pt x="520" y="608" on="0"/>
        <pt x="464" y="638" on="0"/>
        <pt x="404" y="651" on="0"/>
        <pt x="375" y="651" on="1"/>
        <pt x="311" y="651" on="0"/>
        <pt x="213" y="599" on="0"/>
        <pt x="146" y="515" on="0"/>
        <pt x="112" y="410" on="0"/>
        <pt x="112" y="356" on="1"/>
        <pt x="112" y="297" on="0"/>
        <pt x="153" y="189" on="0"/>
        <pt x="224" y="106" on="0"/>
        <pt x="321" y="57" on="0"/>
        <pt x="378" y="57" on="1"/>
        <pt x="408" y="57" on="0"/>
        <pt x="471" y="72" on="0"/>
        <pt x="530" y="105" on="0"/>
        <pt x="580" y="154" on="0"/>
        <pt x="597" y="189" on="1"/>
        <pt x="655" y="159" on="1"/>
        <pt x="638" y="119" on="0"/>
        <pt x="576" y="58" on="0"/>
        <pt x="500" y="16" on="0"/>
        <pt x="415" y="-6" on="0"/>
        <pt x="374" y="-6" on="1"/>
        <pt x="301" y="-6" on="0"/>
        <pt x="179" y="58" on="0"/>
        <pt x="91" y="161" on="0"/>
        <pt x="42" y="292" on="0"/>
      </contour>
    </TTGlyph>
    <TTGlyph name="Cdotaccent" xMin="42" yMin="-6" xMax="655" yMax="917">
      <contour>
        <pt x="42" y="360" on="1"/>
        <pt x="42" y="424" on="0"/>
        <pt x="87" y="551" on="0"/>
        <pt x="173" y="651" on="0"/>
        <pt x="299" y="714" on="0"/>
        <pt x="379" y="714" on="1"/>
        <pt x="474" y="714" on="0"/>
        <pt x="609" y="628" on="0"/>
        <pt x="641" y="559" on="1"/>
        <pt x="586" y="525" on="1"/>
        <pt x="569" y="560" on="0"/>
        <pt x="520" y="608" on="0"/>
        <pt x="464" y="638" on="0"/>
        <pt x="404" y="651" on="0"/>
        <pt x="375" y="651" on="1"/>
        <pt x="311" y="651" on="0"/>
        <pt x="213" y="599" on="0"/>
        <pt x="146" y="515" on="0"/>
        <pt x="112" y="410" on="0"/>
        <pt x="112" y="356" on="1"/>
        <pt x="112" y="297" on="0"/>
        <pt x="153" y="189" on="0"/>
        <pt x="224" y="106" on="0"/>
        <pt x="321" y="57" on="0"/>
        <pt x="378" y="57" on="1"/>
        <pt x="408" y="57" on="0"/>
        <pt x="471" y="72" on="0"/>
        <pt x="530" y="105" on="0"/>
        <pt x="580" y="154" on="0"/>
        <pt x="597" y="189" on="1"/>
        <pt x="655" y="159" on="1"/>
        <pt x="638" y="119" on="0"/>
        <pt x="576" y="58" on="0"/>
        <pt x="500" y="16" on="0"/>
        <pt x="415" y="-6" on="0"/>
        <pt x="374" y="-6" on="1"/>
        <pt x="301" y="-6" on="0"/>
        <pt x="179" y="58" on="0"/>
        <pt x="91" y="161" on="0"/>
        <pt x="42" y="292" on="0"/>
      </contour>
      <contour>
        <pt x="346" y="820" on="1"/>
        <pt x="346" y="917" on="1"/>
        <pt x="408" y="917" on="1"/>
        <pt x="408" y="820" on="1"/>
      </contour>
    </TTGlyph>
    <TTGlyph name="D" xMin="89" yMin="0" xMax="670" yMax="710">
      <contour>
        <pt x="89" y="0" on="1"/>
        <pt x="89" y="710" on="1"/>
        <pt x="330" y="710" on="1"/>
        <pt x="415" y="710" on="0"/>
        <pt x="542" y="654" on="0"/>
        <pt x="627" y="558" on="0"/>
        <pt x="670" y="429" on="0"/>
        <pt x="670" y="356" on="1"/>
        <pt x="670" y="275" on="0"/>
        <pt x="622" y="144" on="0"/>
        <pt x="533" y="51" on="0"/>
        <pt x="408" y="0" on="0"/>
        <pt x="330" y="0" on="1"/>
      </contour>
      <contour>
        <pt x="600" y="356" on="1"/>
        <pt x="600" y="420" on="0"/>
        <pt x="564" y="527" on="0"/>
        <pt x="495" y="605" on="0"/>
        <pt x="395" y="648" on="0"/>
        <pt x="330" y="648" on="1"/>
        <pt x="159" y="648" on="1"/>
        <pt x="159" y="62" on="1"/>
        <pt x="330" y="62" on="1"/>
        <pt x="396" y="62" on="0"/>
        <pt x="497" y="107" on="0"/>
        <pt x="565" y="186" on="0"/>
        <pt x="600" y="293" on="0"/>
      </contour>
    </TTGlyph>
    <TTGlyph name="D.sc" xMin="84" yMin="0" xMax="575" yMax="548">
      <contour>
        <pt x="84" y="0" on="1"/>
        <pt x="84" y="548" on="1"/>
        <pt x="288" y="548" on="1"/>
        <pt x="360" y="548" on="0"/>
        <pt x="467" y="505" on="0"/>
        <pt x="539" y="431" on="0"/>
        <pt x="575" y="332" on="0"/>
        <pt x="575" y="275" on="1"/>
        <pt x="575" y="212" on="0"/>
        <pt x="534" y="111" on="0"/>
        <pt x="459" y="39" on="0"/>
        <pt x="353" y="0" on="0"/>
        <pt x="288" y="0" on="1"/>
      </contour>
      <contour>
        <pt x="511" y="275" on="1"/>
        <pt x="511" y="323" on="0"/>
        <pt x="482" y="402" on="0"/>
        <pt x="425" y="460" on="0"/>
        <pt x="342" y="492" on="0"/>
        <pt x="288" y="492" on="1"/>
        <pt x="146" y="492" on="1"/>
        <pt x="146" y="56" on="1"/>
        <pt x="288" y="56" on="1"/>
        <pt x="343" y="56" on="0"/>
        <pt x="426" y="89" on="0"/>
        <pt x="482" y="148" on="0"/>
        <pt x="511" y="228" on="0"/>
      </contour>
    </TTGlyph>
    <TTGlyph name="Dcaron" xMin="89" yMin="0" xMax="670" yMax="917">
      <contour>
        <pt x="259" y="917" on="1"/>
        <pt x="344" y="854" on="1"/>
        <pt x="429" y="917" on="1"/>
        <pt x="468" y="897" on="1"/>
        <pt x="369" y="811" on="1"/>
        <pt x="319" y="811" on="1"/>
        <pt x="221" y="897" on="1"/>
      </contour>
      <contour>
        <pt x="89" y="0" on="1"/>
        <pt x="89" y="710" on="1"/>
        <pt x="330" y="710" on="1"/>
        <pt x="415" y="710" on="0"/>
        <pt x="542" y="654" on="0"/>
        <pt x="627" y="558" on="0"/>
        <pt x="670" y="429" on="0"/>
        <pt x="670" y="356" on="1"/>
        <pt x="670" y="275" on="0"/>
        <pt x="622" y="144" on="0"/>
        <pt x="533" y="51" on="0"/>
        <pt x="408" y="0" on="0"/>
        <pt x="330" y="0" on="1"/>
      </contour>
      <contour>
        <pt x="600" y="356" on="1"/>
        <pt x="600" y="420" on="0"/>
        <pt x="564" y="527" on="0"/>
        <pt x="495" y="605" on="0"/>
        <pt x="395" y="648" on="0"/>
        <pt x="330" y="648" on="1"/>
        <pt x="159" y="648" on="1"/>
        <pt x="159" y="62" on="1"/>
        <pt x="330" y="62" on="1"/>
        <pt x="396" y="62" on="0"/>
        <pt x="497" y="107" on="0"/>
        <pt x="565" y="186" on="0"/>
        <pt x="600" y="293" on="0"/>
      </contour>
    </TTGlyph>
    <TTGlyph name="Dcroat" xMin="34" yMin="0" xMax="676" yMax="710">
      <contour>
        <pt x="95" y="0" on="1"/>
        <pt x="95" y="330" on="1"/>
        <pt x="34" y="330" on="1"/>
        <pt x="34" y="384" on="1"/>
        <pt x="95" y="384" on="1"/>
        <pt x="95" y="710" on="1"/>
        <pt x="336" y="710" on="1"/>
        <pt x="421" y="710" on="0"/>
        <pt x="548" y="654" on="0"/>
        <pt x="633" y="558" on="0"/>
        <pt x="676" y="429" on="0"/>
        <pt x="676" y="356" on="1"/>
        <pt x="676" y="275" on="0"/>
        <pt x="628" y="144" on="0"/>
        <pt x="539" y="51" on="0"/>
        <pt x="414" y="0" on="0"/>
        <pt x="336" y="0" on="1"/>
      </contour>
      <contour>
        <pt x="606" y="356" on="1"/>
        <pt x="606" y="420" on="0"/>
        <pt x="570" y="527" on="0"/>
        <pt x="501" y="605" on="0"/>
        <pt x="401" y="648" on="0"/>
        <pt x="336" y="648" on="1"/>
        <pt x="165" y="648" on="1"/>
        <pt x="165" y="384" on="1"/>
        <pt x="335" y="384" on="1"/>
        <pt x="335" y="330" on="1"/>
        <pt x="165" y="330" on="1"/>
        <pt x="165" y="62" on="1"/>
        <pt x="336" y="62" on="1"/>
        <pt x="402" y="62" on="0"/>
        <pt x="503" y="107" on="0"/>
        <pt x="571" y="186" on="0"/>
        <pt x="606" y="293" on="0"/>
      </contour>
    </TTGlyph>
    <TTGlyph name="Ddotbelow" xMin="89" yMin="-166" xMax="670" yMax="710">
      <contour>
        <pt x="307" y="-166" on="1"/>
        <pt x="307" y="-68" on="1"/>
        <pt x="369" y="-68" on="1"/>
        <pt x="369" y="-166" on="1"/>
      </contour>
      <contour>
        <pt x="89" y="0" on="1"/>
        <pt x="89" y="710" on="1"/>
        <pt x="330" y="710" on="1"/>
        <pt x="415" y="710" on="0"/>
        <pt x="542" y="654" on="0"/>
        <pt x="627" y="558" on="0"/>
        <pt x="670" y="429" on="0"/>
        <pt x="670" y="356" on="1"/>
        <pt x="670" y="275" on="0"/>
        <pt x="622" y="144" on="0"/>
        <pt x="533" y="51" on="0"/>
        <pt x="408" y="0" on="0"/>
        <pt x="330" y="0" on="1"/>
      </contour>
      <contour>
        <pt x="600" y="356" on="1"/>
        <pt x="600" y="420" on="0"/>
        <pt x="564" y="527" on="0"/>
        <pt x="495" y="605" on="0"/>
        <pt x="395" y="648" on="0"/>
        <pt x="330" y="648" on="1"/>
        <pt x="159" y="648" on="1"/>
        <pt x="159" y="62" on="1"/>
        <pt x="330" y="62" on="1"/>
        <pt x="396" y="62" on="0"/>
        <pt x="497" y="107" on="0"/>
        <pt x="565" y="186" on="0"/>
        <pt x="600" y="293" on="0"/>
      </contour>
    </TTGlyph>
    <TTGlyph name="Delta" xMin="7" yMin="0" xMax="608" yMax="710">
      <contour>
        <pt x="608" y="53" on="1"/>
        <pt x="608" y="0" on="1"/>
        <pt x="7" y="0" on="1"/>
        <pt x="7" y="53" on="1"/>
        <pt x="279" y="710" on="1"/>
        <pt x="337" y="710" on="1"/>
      </contour>
      <contour>
        <pt x="531" y="62" on="1"/>
        <pt x="308" y="628" on="1"/>
        <pt x="84" y="62" on="1"/>
      </contour>
    </TTGlyph>
    <TTGlyph name="E" xMin="89" yMin="0" xMax="566" yMax="710">
      <contour>
        <pt x="566" y="62" on="1"/>
        <pt x="566" y="0" on="1"/>
        <pt x="89" y="0" on="1"/>
        <pt x="89" y="710" on="1"/>
        <pt x="557" y="710" on="1"/>
        <pt x="557" y="648" on="1"/>
        <pt x="159" y="648" on="1"/>
        <pt x="159" y="392" on="1"/>
        <pt x="506" y="392" on="1"/>
        <pt x="506" y="333" on="1"/>
        <pt x="159" y="333" on="1"/>
        <pt x="159" y="62" on="1"/>
      </contour>
    </TTGlyph>
    <TTGlyph name="E.sc" xMin="84" yMin="0" xMax="487" yMax="548">
      <contour>
        <pt x="487" y="56" on="1"/>
        <pt x="487" y="0" on="1"/>
        <pt x="84" y="0" on="1"/>
        <pt x="84" y="548" on="1"/>
        <pt x="479" y="548" on="1"/>
        <pt x="479" y="492" on="1"/>
        <pt x="146" y="492" on="1"/>
        <pt x="146" y="305" on="1"/>
        <pt x="437" y="305" on="1"/>
        <pt x="437" y="253" on="1"/>
        <pt x="146" y="253" on="1"/>
        <pt x="146" y="56" on="1"/>
      </contour>
    </TTGlyph>
    <TTGlyph name="Eacute" xMin="89" yMin="0" xMax="566" yMax="917">
      <contour>
        <pt x="343" y="807" on="1"/>
        <pt x="298" y="824" on="1"/>
        <pt x="357" y="917" on="1"/>
        <pt x="429" y="917" on="1"/>
      </contour>
      <contour>
        <pt x="566" y="62" on="1"/>
        <pt x="566" y="0" on="1"/>
        <pt x="89" y="0" on="1"/>
        <pt x="89" y="710" on="1"/>
        <pt x="557" y="710" on="1"/>
        <pt x="557" y="648" on="1"/>
        <pt x="159" y="648" on="1"/>
        <pt x="159" y="392" on="1"/>
        <pt x="506" y="392" on="1"/>
        <pt x="506" y="333" on="1"/>
        <pt x="159" y="333" on="1"/>
        <pt x="159" y="62" on="1"/>
      </contour>
    </TTGlyph>
    <TTGlyph name="Ebreve" xMin="89" yMin="0" xMax="566" yMax="917">
      <contour>
        <pt x="566" y="62" on="1"/>
        <pt x="566" y="0" on="1"/>
        <pt x="89" y="0" on="1"/>
        <pt x="89" y="710" on="1"/>
        <pt x="557" y="710" on="1"/>
        <pt x="557" y="648" on="1"/>
        <pt x="159" y="648" on="1"/>
        <pt x="159" y="392" on="1"/>
        <pt x="506" y="392" on="1"/>
        <pt x="506" y="333" on="1"/>
        <pt x="159" y="333" on="1"/>
        <pt x="159" y="62" on="1"/>
      </contour>
      <contour>
        <pt x="337" y="851" on="1"/>
        <pt x="358" y="851" on="0"/>
        <pt x="391" y="889" on="0"/>
        <pt x="394" y="917" on="1"/>
        <pt x="435" y="917" on="1"/>
        <pt x="435" y="896" on="0"/>
        <pt x="420" y="859" on="0"/>
        <pt x="393" y="832" on="0"/>
        <pt x="357" y="816" on="0"/>
        <pt x="337" y="816" on="1"/>
        <pt x="295" y="816" on="0"/>
        <pt x="239" y="874" on="0"/>
        <pt x="239" y="917" on="1"/>
        <pt x="281" y="917" on="1"/>
        <pt x="281" y="891" on="0"/>
        <pt x="315" y="851" on="0"/>
      </contour>
    </TTGlyph>
    <TTGlyph name="Ecaron" xMin="89" yMin="0" xMax="566" yMax="917">
      <contour>
        <pt x="252" y="917" on="1"/>
        <pt x="337" y="854" on="1"/>
        <pt x="422" y="917" on="1"/>
        <pt x="461" y="897" on="1"/>
        <pt x="362" y="811" on="1"/>
        <pt x="312" y="811" on="1"/>
        <pt x="214" y="897" on="1"/>
      </contour>
      <contour>
        <pt x="566" y="62" on="1"/>
        <pt x="566" y="0" on="1"/>
        <pt x="89" y="0" on="1"/>
        <pt x="89" y="710" on="1"/>
        <pt x="557" y="710" on="1"/>
        <pt x="557" y="648" on="1"/>
        <pt x="159" y="648" on="1"/>
        <pt x="159" y="392" on="1"/>
        <pt x="506" y="392" on="1"/>
        <pt x="506" y="333" on="1"/>
        <pt x="159" y="333" on="1"/>
        <pt x="159" y="62" on="1"/>
      </contour>
    </TTGlyph>
    <TTGlyph name="Ecircumflex" xMin="89" yMin="0" xMax="566" yMax="917">
      <contour>
        <pt x="214" y="832" on="1"/>
        <pt x="312" y="917" on="1"/>
        <pt x="362" y="917" on="1"/>
        <pt x="461" y="832" on="1"/>
        <pt x="422" y="811" on="1"/>
        <pt x="337" y="874" on="1"/>
        <pt x="252" y="811" on="1"/>
      </contour>
      <contour>
        <pt x="566" y="62" on="1"/>
        <pt x="566" y="0" on="1"/>
        <pt x="89" y="0" on="1"/>
        <pt x="89" y="710" on="1"/>
        <pt x="557" y="710" on="1"/>
        <pt x="557" y="648" on="1"/>
        <pt x="159" y="648" on="1"/>
        <pt x="159" y="392" on="1"/>
        <pt x="506" y="392" on="1"/>
        <pt x="506" y="333" on="1"/>
        <pt x="159" y="333" on="1"/>
        <pt x="159" y="62" on="1"/>
      </contour>
    </TTGlyph>
    <TTGlyph name="Edblgrave" xMin="89" yMin="0" xMax="566" yMax="918">
      <contour>
        <pt x="306" y="918" on="1"/>
        <pt x="369" y="918" on="1"/>
        <pt x="426" y="825" on="1"/>
        <pt x="389" y="808" on="1"/>
      </contour>
      <contour>
        <pt x="180" y="918" on="1"/>
        <pt x="244" y="918" on="1"/>
        <pt x="301" y="825" on="1"/>
        <pt x="264" y="808" on="1"/>
      </contour>
      <contour>
        <pt x="566" y="62" on="1"/>
        <pt x="566" y="0" on="1"/>
        <pt x="89" y="0" on="1"/>
        <pt x="89" y="710" on="1"/>
        <pt x="557" y="710" on="1"/>
        <pt x="557" y="648" on="1"/>
        <pt x="159" y="648" on="1"/>
        <pt x="159" y="392" on="1"/>
        <pt x="506" y="392" on="1"/>
        <pt x="506" y="333" on="1"/>
        <pt x="159" y="333" on="1"/>
        <pt x="159" y="62" on="1"/>
      </contour>
    </TTGlyph>
    <TTGlyph name="Edieresis" xMin="89" yMin="0" xMax="566" yMax="914">
      <contour>
        <pt x="233" y="820" on="1"/>
        <pt x="233" y="914" on="1"/>
        <pt x="291" y="914" on="1"/>
        <pt x="291" y="820" on="1"/>
      </contour>
      <contour>
        <pt x="382" y="820" on="1"/>
        <pt x="382" y="914" on="1"/>
        <pt x="440" y="914" on="1"/>
        <pt x="440" y="820" on="1"/>
      </contour>
      <contour>
        <pt x="566" y="62" on="1"/>
        <pt x="566" y="0" on="1"/>
        <pt x="89" y="0" on="1"/>
        <pt x="89" y="710" on="1"/>
        <pt x="557" y="710" on="1"/>
        <pt x="557" y="648" on="1"/>
        <pt x="159" y="648" on="1"/>
        <pt x="159" y="392" on="1"/>
        <pt x="506" y="392" on="1"/>
        <pt x="506" y="333" on="1"/>
        <pt x="159" y="333" on="1"/>
        <pt x="159" y="62" on="1"/>
      </contour>
    </TTGlyph>
    <TTGlyph name="Edotaccent" xMin="89" yMin="0" xMax="566" yMax="917">
      <contour>
        <pt x="566" y="62" on="1"/>
        <pt x="566" y="0" on="1"/>
        <pt x="89" y="0" on="1"/>
        <pt x="89" y="710" on="1"/>
        <pt x="557" y="710" on="1"/>
        <pt x="557" y="648" on="1"/>
        <pt x="159" y="648" on="1"/>
        <pt x="159" y="392" on="1"/>
        <pt x="506" y="392" on="1"/>
        <pt x="506" y="333" on="1"/>
        <pt x="159" y="333" on="1"/>
        <pt x="159" y="62" on="1"/>
      </contour>
      <contour>
        <pt x="306" y="820" on="1"/>
        <pt x="306" y="917" on="1"/>
        <pt x="368" y="917" on="1"/>
        <pt x="368" y="820" on="1"/>
      </contour>
    </TTGlyph>
    <TTGlyph name="Edotbelow" xMin="89" yMin="-166" xMax="566" yMax="710">
      <contour>
        <pt x="566" y="62" on="1"/>
        <pt x="566" y="0" on="1"/>
        <pt x="89" y="0" on="1"/>
        <pt x="89" y="710" on="1"/>
        <pt x="557" y="710" on="1"/>
        <pt x="557" y="648" on="1"/>
        <pt x="159" y="648" on="1"/>
        <pt x="159" y="392" on="1"/>
        <pt x="506" y="392" on="1"/>
        <pt x="506" y="333" on="1"/>
        <pt x="159" y="333" on="1"/>
        <pt x="159" y="62" on="1"/>
      </contour>
      <contour>
        <pt x="295" y="-166" on="1"/>
        <pt x="295" y="-68" on="1"/>
        <pt x="357" y="-68" on="1"/>
        <pt x="357" y="-166" on="1"/>
      </contour>
    </TTGlyph>
    <TTGlyph name="Egrave" xMin="89" yMin="0" xMax="566" yMax="917">
      <contour>
        <pt x="566" y="62" on="1"/>
        <pt x="566" y="0" on="1"/>
        <pt x="89" y="0" on="1"/>
        <pt x="89" y="710" on="1"/>
        <pt x="557" y="710" on="1"/>
        <pt x="557" y="648" on="1"/>
        <pt x="159" y="648" on="1"/>
        <pt x="159" y="392" on="1"/>
        <pt x="506" y="392" on="1"/>
        <pt x="506" y="333" on="1"/>
        <pt x="159" y="333" on="1"/>
        <pt x="159" y="62" on="1"/>
      </contour>
      <contour>
        <pt x="244" y="917" on="1"/>
        <pt x="315" y="917" on="1"/>
        <pt x="375" y="824" on="1"/>
        <pt x="331" y="807" on="1"/>
      </contour>
    </TTGlyph>
    <TTGlyph name="Einvertedbreve" xMin="89" yMin="0" xMax="566" yMax="917">
      <contour>
        <pt x="332" y="882" on="1"/>
        <pt x="310" y="882" on="0"/>
        <pt x="276" y="842" on="0"/>
        <pt x="276" y="816" on="1"/>
        <pt x="234" y="816" on="1"/>
        <pt x="234" y="859" on="0"/>
        <pt x="290" y="917" on="0"/>
        <pt x="332" y="917" on="1"/>
        <pt x="352" y="917" on="0"/>
        <pt x="388" y="901" on="0"/>
        <pt x="415" y="874" on="0"/>
        <pt x="430" y="837" on="0"/>
        <pt x="430" y="816" on="1"/>
        <pt x="389" y="816" on="1"/>
        <pt x="386" y="844" on="0"/>
        <pt x="353" y="882" on="0"/>
      </contour>
      <contour>
        <pt x="566" y="62" on="1"/>
        <pt x="566" y="0" on="1"/>
        <pt x="89" y="0" on="1"/>
        <pt x="89" y="710" on="1"/>
        <pt x="557" y="710" on="1"/>
        <pt x="557" y="648" on="1"/>
        <pt x="159" y="648" on="1"/>
        <pt x="159" y="392" on="1"/>
        <pt x="506" y="392" on="1"/>
        <pt x="506" y="333" on="1"/>
        <pt x="159" y="333" on="1"/>
        <pt x="159" y="62" on="1"/>
      </contour>
    </TTGlyph>
    <TTGlyph name="Emacron" xMin="89" yMin="0" xMax="566" yMax="897">
      <contour>
        <pt x="566" y="62" on="1"/>
        <pt x="566" y="0" on="1"/>
        <pt x="89" y="0" on="1"/>
        <pt x="89" y="710" on="1"/>
        <pt x="557" y="710" on="1"/>
        <pt x="557" y="648" on="1"/>
        <pt x="159" y="648" on="1"/>
        <pt x="159" y="392" on="1"/>
        <pt x="506" y="392" on="1"/>
        <pt x="506" y="333" on="1"/>
        <pt x="159" y="333" on="1"/>
        <pt x="159" y="62" on="1"/>
      </contour>
      <contour>
        <pt x="193" y="850" on="1"/>
        <pt x="193" y="897" on="1"/>
        <pt x="482" y="897" on="1"/>
        <pt x="482" y="850" on="1"/>
      </contour>
    </TTGlyph>
    <TTGlyph name="Eng" xMin="89" yMin="-181" xMax="677" yMax="710">
      <contour>
        <pt x="159" y="579" on="1"/>
        <pt x="159" y="0" on="1"/>
        <pt x="89" y="0" on="1"/>
        <pt x="89" y="710" on="1"/>
        <pt x="142" y="710" on="1"/>
        <pt x="608" y="122" on="1"/>
        <pt x="608" y="709" on="1"/>
        <pt x="677" y="709" on="1"/>
        <pt x="677" y="-25" on="1"/>
        <pt x="677" y="-60" on="0"/>
        <pt x="651" y="-117" on="0"/>
        <pt x="607" y="-158" on="0"/>
        <pt x="552" y="-181" on="0"/>
        <pt x="523" y="-181" on="1"/>
        <pt x="491" y="-181" on="0"/>
        <pt x="432" y="-163" on="0"/>
        <pt x="409" y="-142" on="1"/>
        <pt x="443" y="-96" on="1"/>
        <pt x="458" y="-110" on="0"/>
        <pt x="496" y="-120" on="0"/>
        <pt x="515" y="-120" on="1"/>
        <pt x="533" y="-120" on="0"/>
        <pt x="566" y="-106" on="0"/>
        <pt x="593" y="-81" on="0"/>
        <pt x="609" y="-47" on="0"/>
        <pt x="609" y="-27" on="1"/>
        <pt x="609" y="9" on="1"/>
      </contour>
    </TTGlyph>
    <TTGlyph name="Eogonek" xMin="89" yMin="-175" xMax="566" yMax="710">
      <contour>
        <pt x="566" y="62" on="1"/>
        <pt x="566" y="0" on="1"/>
        <pt x="521" y="-28" on="0"/>
        <pt x="484" y="-71" on="0"/>
        <pt x="484" y="-93" on="1"/>
        <pt x="484" y="-130" on="0"/>
        <pt x="536" y="-137" on="1"/>
        <pt x="517" y="-175" on="1"/>
        <pt x="480" y="-167" on="0"/>
        <pt x="442" y="-128" on="0"/>
        <pt x="442" y="-102" on="1"/>
        <pt x="442" y="-77" on="0"/>
        <pt x="478" y="-27" on="0"/>
        <pt x="517" y="0" on="1"/>
        <pt x="89" y="0" on="1"/>
        <pt x="89" y="710" on="1"/>
        <pt x="557" y="710" on="1"/>
        <pt x="557" y="648" on="1"/>
        <pt x="159" y="648" on="1"/>
        <pt x="159" y="392" on="1"/>
        <pt x="506" y="392" on="1"/>
        <pt x="506" y="333" on="1"/>
        <pt x="159" y="333" on="1"/>
        <pt x="159" y="62" on="1"/>
      </contour>
    </TTGlyph>
    <TTGlyph name="Eth" xMin="34" yMin="0" xMax="676" yMax="710">
      <contour>
        <pt x="95" y="0" on="1"/>
        <pt x="95" y="330" on="1"/>
        <pt x="34" y="330" on="1"/>
        <pt x="34" y="384" on="1"/>
        <pt x="95" y="384" on="1"/>
        <pt x="95" y="710" on="1"/>
        <pt x="336" y="710" on="1"/>
        <pt x="421" y="710" on="0"/>
        <pt x="548" y="654" on="0"/>
        <pt x="633" y="558" on="0"/>
        <pt x="676" y="429" on="0"/>
        <pt x="676" y="356" on="1"/>
        <pt x="676" y="275" on="0"/>
        <pt x="628" y="144" on="0"/>
        <pt x="539" y="51" on="0"/>
        <pt x="414" y="0" on="0"/>
        <pt x="336" y="0" on="1"/>
      </contour>
      <contour>
        <pt x="606" y="356" on="1"/>
        <pt x="606" y="420" on="0"/>
        <pt x="570" y="527" on="0"/>
        <pt x="501" y="605" on="0"/>
        <pt x="401" y="648" on="0"/>
        <pt x="336" y="648" on="1"/>
        <pt x="165" y="648" on="1"/>
        <pt x="165" y="384" on="1"/>
        <pt x="335" y="384" on="1"/>
        <pt x="335" y="330" on="1"/>
        <pt x="165" y="330" on="1"/>
        <pt x="165" y="62" on="1"/>
        <pt x="336" y="62" on="1"/>
        <pt x="402" y="62" on="0"/>
        <pt x="503" y="107" on="0"/>
        <pt x="571" y="186" on="0"/>
        <pt x="606" y="293" on="0"/>
      </contour>
    </TTGlyph>
    <TTGlyph name="Etilde" xMin="89" yMin="0" xMax="566" yMax="917">
      <contour>
        <pt x="566" y="62" on="1"/>
        <pt x="566" y="0" on="1"/>
        <pt x="89" y="0" on="1"/>
        <pt x="89" y="710" on="1"/>
        <pt x="557" y="710" on="1"/>
        <pt x="557" y="648" on="1"/>
        <pt x="159" y="648" on="1"/>
        <pt x="159" y="392" on="1"/>
        <pt x="506" y="392" on="1"/>
        <pt x="506" y="333" on="1"/>
        <pt x="159" y="333" on="1"/>
        <pt x="159" y="62" on="1"/>
      </contour>
      <contour>
        <pt x="399" y="825" on="1"/>
        <pt x="376" y="825" on="0"/>
        <pt x="343" y="837" on="0"/>
        <pt x="314" y="852" on="0"/>
        <pt x="287" y="865" on="0"/>
        <pt x="271" y="865" on="1"/>
        <pt x="254" y="865" on="0"/>
        <pt x="235" y="851" on="0"/>
        <pt x="224" y="834" on="0"/>
        <pt x="221" y="819" on="0"/>
        <pt x="221" y="817" on="1"/>
        <pt x="179" y="817" on="1"/>
        <pt x="179" y="822" on="0"/>
        <pt x="186" y="853" on="0"/>
        <pt x="206" y="885" on="0"/>
        <pt x="242" y="910" on="0"/>
        <pt x="270" y="910" on="1"/>
        <pt x="291" y="910" on="0"/>
        <pt x="322" y="897" on="0"/>
        <pt x="350" y="881" on="0"/>
        <pt x="379" y="868" on="0"/>
        <pt x="398" y="868" on="1"/>
        <pt x="417" y="868" on="0"/>
        <pt x="440" y="882" on="0"/>
        <pt x="452" y="900" on="0"/>
        <pt x="455" y="915" on="0"/>
        <pt x="455" y="917" on="1"/>
        <pt x="497" y="917" on="1"/>
        <pt x="497" y="912" on="0"/>
        <pt x="489" y="882" on="0"/>
        <pt x="468" y="850" on="0"/>
        <pt x="429" y="825" on="0"/>
      </contour>
    </TTGlyph>
    <TTGlyph name="Euro" xMin="33" yMin="-6" xMax="749" yMax="714">
      <contour>
        <pt x="140" y="416" on="1"/>
        <pt x="149" y="473" on="0"/>
        <pt x="201" y="580" on="0"/>
        <pt x="286" y="664" on="0"/>
        <pt x="401" y="714" on="0"/>
        <pt x="473" y="714" on="1"/>
        <pt x="568" y="714" on="0"/>
        <pt x="703" y="628" on="0"/>
        <pt x="735" y="559" on="1"/>
        <pt x="680" y="525" on="1"/>
        <pt x="663" y="560" on="0"/>
        <pt x="614" y="608" on="0"/>
        <pt x="558" y="638" on="0"/>
        <pt x="498" y="651" on="0"/>
        <pt x="469" y="651" on="1"/>
        <pt x="414" y="651" on="0"/>
        <pt x="326" y="612" on="0"/>
        <pt x="261" y="547" on="0"/>
        <pt x="219" y="462" on="0"/>
        <pt x="211" y="416" on="1"/>
        <pt x="549" y="416" on="1"/>
        <pt x="531" y="373" on="1"/>
        <pt x="206" y="373" on="1"/>
        <pt x="206" y="356" on="1"/>
        <pt x="206" y="333" on="0"/>
        <pt x="209" y="311" on="1"/>
        <pt x="513" y="311" on="1"/>
        <pt x="494" y="268" on="1"/>
        <pt x="218" y="268" on="1"/>
        <pt x="230" y="223" on="0"/>
        <pt x="279" y="146" on="0"/>
        <pt x="345" y="89" on="0"/>
        <pt x="426" y="57" on="0"/>
        <pt x="472" y="57" on="1"/>
        <pt x="502" y="57" on="0"/>
        <pt x="565" y="72" on="0"/>
        <pt x="624" y="105" on="0"/>
        <pt x="674" y="154" on="0"/>
        <pt x="691" y="189" on="1"/>
        <pt x="749" y="159" on="1"/>
        <pt x="732" y="119" on="0"/>
        <pt x="670" y="58" on="0"/>
        <pt x="594" y="16" on="0"/>
        <pt x="509" y="-6" on="0"/>
        <pt x="468" y="-6" on="1"/>
        <pt x="407" y="-6" on="0"/>
        <pt x="302" y="39" on="0"/>
        <pt x="219" y="114" on="0"/>
        <pt x="161" y="213" on="0"/>
        <pt x="147" y="268" on="1"/>
        <pt x="33" y="268" on="1"/>
        <pt x="51" y="311" on="1"/>
        <pt x="139" y="311" on="1"/>
        <pt x="136" y="335" on="0"/>
        <pt x="136" y="360" on="1"/>
        <pt x="136" y="373" on="1"/>
        <pt x="62" y="373" on="1"/>
        <pt x="80" y="416" on="1"/>
      </contour>
    </TTGlyph>
    <TTGlyph name="F" xMin="89" yMin="0" xMax="555" yMax="710">
      <contour>
        <pt x="89" y="0" on="1"/>
        <pt x="89" y="710" on="1"/>
        <pt x="555" y="710" on="1"/>
        <pt x="555" y="648" on="1"/>
        <pt x="159" y="648" on="1"/>
        <pt x="159" y="387" on="1"/>
        <pt x="493" y="387" on="1"/>
        <pt x="493" y="329" on="1"/>
        <pt x="159" y="329" on="1"/>
        <pt x="159" y="0" on="1"/>
      </contour>
    </TTGlyph>
    <TTGlyph name="F.sc" xMin="84" yMin="0" xMax="476" yMax="548">
      <contour>
        <pt x="84" y="0" on="1"/>
        <pt x="84" y="548" on="1"/>
        <pt x="476" y="548" on="1"/>
        <pt x="476" y="492" on="1"/>
        <pt x="146" y="492" on="1"/>
        <pt x="146" y="302" on="1"/>
        <pt x="426" y="302" on="1"/>
        <pt x="426" y="248" on="1"/>
        <pt x="146" y="248" on="1"/>
        <pt x="146" y="0" on="1"/>
      </contour>
    </TTGlyph>
    <TTGlyph name="G" xMin="42" yMin="-5" xMax="661" yMax="715">
      <contour>
        <pt x="602" y="104" on="1"/>
        <pt x="503" y="-5" on="0"/>
        <pt x="374" y="-5" on="1"/>
        <pt x="302" y="-5" on="0"/>
        <pt x="181" y="57" on="0"/>
        <pt x="92" y="159" on="0"/>
        <pt x="42" y="288" on="0"/>
        <pt x="42" y="356" on="1"/>
        <pt x="42" y="427" on="0"/>
        <pt x="91" y="557" on="0"/>
        <pt x="179" y="656" on="0"/>
        <pt x="299" y="715" on="0"/>
        <pt x="370" y="715" on="1"/>
        <pt x="422" y="715" on="0"/>
        <pt x="508" y="692" on="0"/>
        <pt x="575" y="651" on="0"/>
        <pt x="624" y="594" on="0"/>
        <pt x="641" y="560" on="1"/>
        <pt x="587" y="524" on="1"/>
        <pt x="552" y="590" on="0"/>
        <pt x="440" y="652" on="0"/>
        <pt x="369" y="652" on="1"/>
        <pt x="310" y="652" on="0"/>
        <pt x="215" y="602" on="0"/>
        <pt x="148" y="519" on="0"/>
        <pt x="112" y="412" on="0"/>
        <pt x="112" y="355" on="1"/>
        <pt x="112" y="295" on="0"/>
        <pt x="153" y="187" on="0"/>
        <pt x="225" y="106" on="0"/>
        <pt x="322" y="58" on="0"/>
        <pt x="379" y="58" on="1"/>
        <pt x="440" y="58" on="0"/>
        <pt x="551" y="115" on="0"/>
        <pt x="602" y="177" on="1"/>
        <pt x="602" y="295" on="1"/>
        <pt x="444" y="295" on="1"/>
        <pt x="444" y="349" on="1"/>
        <pt x="661" y="349" on="1"/>
        <pt x="661" y="0" on="1"/>
        <pt x="602" y="0" on="1"/>
      </contour>
    </TTGlyph>
    <TTGlyph name="G.alt" xMin="42" yMin="-5" xMax="705" yMax="715">
      <contour>
        <pt x="380" y="-5" on="1"/>
        <pt x="306" y="-5" on="0"/>
        <pt x="182" y="56" on="0"/>
        <pt x="92" y="157" on="0"/>
        <pt x="42" y="288" on="0"/>
        <pt x="42" y="357" on="1"/>
        <pt x="42" y="427" on="0"/>
        <pt x="92" y="556" on="0"/>
        <pt x="181" y="655" on="0"/>
        <pt x="305" y="715" on="0"/>
        <pt x="379" y="715" on="1"/>
        <pt x="468" y="715" on="0"/>
        <pt x="607" y="631" on="0"/>
        <pt x="650" y="562" on="1"/>
        <pt x="595" y="517" on="1"/>
        <pt x="580" y="542" on="0"/>
        <pt x="537" y="591" on="0"/>
        <pt x="481" y="629" on="0"/>
        <pt x="414" y="652" on="0"/>
        <pt x="375" y="652" on="1"/>
        <pt x="315" y="652" on="0"/>
        <pt x="218" y="600" on="0"/>
        <pt x="149" y="516" on="0"/>
        <pt x="112" y="409" on="0"/>
        <pt x="112" y="354" on="1"/>
        <pt x="112" y="298" on="0"/>
        <pt x="150" y="192" on="0"/>
        <pt x="219" y="109" on="0"/>
        <pt x="316" y="58" on="0"/>
        <pt x="375" y="58" on="1"/>
        <pt x="426" y="58" on="0"/>
        <pt x="513" y="96" on="0"/>
        <pt x="579" y="160" on="0"/>
        <pt x="622" y="242" on="0"/>
        <pt x="630" y="286" on="1"/>
        <pt x="422" y="286" on="1"/>
        <pt x="422" y="349" on="1"/>
        <pt x="705" y="349" on="1"/>
        <pt x="705" y="347" on="0"/>
        <pt x="705" y="336" on="0"/>
        <pt x="704" y="323" on="0"/>
        <pt x="704" y="311" on="0"/>
        <pt x="704" y="308" on="1"/>
        <pt x="698" y="246" on="0"/>
        <pt x="646" y="132" on="0"/>
        <pt x="561" y="46" on="0"/>
        <pt x="447" y="-5" on="0"/>
      </contour>
    </TTGlyph>
    <TTGlyph name="G.sc" xMin="44" yMin="-4" xMax="564" yMax="551">
      <contour>
        <pt x="510" y="76" on="1"/>
        <pt x="429" y="-4" on="0"/>
        <pt x="322" y="-4" on="1"/>
        <pt x="262" y="-4" on="0"/>
        <pt x="160" y="44" on="0"/>
        <pt x="86" y="122" on="0"/>
        <pt x="44" y="223" on="0"/>
        <pt x="44" y="276" on="1"/>
        <pt x="44" y="331" on="0"/>
        <pt x="85" y="430" on="0"/>
        <pt x="159" y="506" on="0"/>
        <pt x="260" y="551" on="0"/>
        <pt x="320" y="551" on="1"/>
        <pt x="408" y="551" on="0"/>
        <pt x="518" y="485" on="0"/>
        <pt x="547" y="432" on="1"/>
        <pt x="498" y="399" on="1"/>
        <pt x="470" y="449" on="0"/>
        <pt x="376" y="495" on="0"/>
        <pt x="318" y="495" on="1"/>
        <pt x="270" y="495" on="0"/>
        <pt x="192" y="458" on="0"/>
        <pt x="137" y="396" on="0"/>
        <pt x="107" y="316" on="0"/>
        <pt x="107" y="274" on="1"/>
        <pt x="107" y="229" on="0"/>
        <pt x="141" y="149" on="0"/>
        <pt x="200" y="88" on="0"/>
        <pt x="280" y="53" on="0"/>
        <pt x="326" y="53" on="1"/>
        <pt x="428" y="53" on="0"/>
        <pt x="510" y="141" on="1"/>
        <pt x="510" y="223" on="1"/>
        <pt x="379" y="223" on="1"/>
        <pt x="379" y="271" on="1"/>
        <pt x="564" y="271" on="1"/>
        <pt x="564" y="0" on="1"/>
        <pt x="510" y="0" on="1"/>
      </contour>
    </TTGlyph>
    <TTGlyph name="Gacute" xMin="42" yMin="-5" xMax="661" yMax="917">
      <contour>
        <pt x="379" y="807" on="1"/>
        <pt x="334" y="824" on="1"/>
        <pt x="393" y="917" on="1"/>
        <pt x="465" y="917" on="1"/>
      </contour>
      <contour>
        <pt x="602" y="104" on="1"/>
        <pt x="503" y="-5" on="0"/>
        <pt x="374" y="-5" on="1"/>
        <pt x="302" y="-5" on="0"/>
        <pt x="181" y="57" on="0"/>
        <pt x="92" y="159" on="0"/>
        <pt x="42" y="288" on="0"/>
        <pt x="42" y="356" on="1"/>
        <pt x="42" y="427" on="0"/>
        <pt x="91" y="557" on="0"/>
        <pt x="179" y="656" on="0"/>
        <pt x="299" y="715" on="0"/>
        <pt x="370" y="715" on="1"/>
        <pt x="422" y="715" on="0"/>
        <pt x="508" y="692" on="0"/>
        <pt x="575" y="651" on="0"/>
        <pt x="624" y="594" on="0"/>
        <pt x="641" y="560" on="1"/>
        <pt x="587" y="524" on="1"/>
        <pt x="552" y="590" on="0"/>
        <pt x="440" y="652" on="0"/>
        <pt x="369" y="652" on="1"/>
        <pt x="310" y="652" on="0"/>
        <pt x="215" y="602" on="0"/>
        <pt x="148" y="519" on="0"/>
        <pt x="112" y="412" on="0"/>
        <pt x="112" y="355" on="1"/>
        <pt x="112" y="295" on="0"/>
        <pt x="153" y="187" on="0"/>
        <pt x="225" y="106" on="0"/>
        <pt x="322" y="58" on="0"/>
        <pt x="379" y="58" on="1"/>
        <pt x="440" y="58" on="0"/>
        <pt x="551" y="115" on="0"/>
        <pt x="602" y="177" on="1"/>
        <pt x="602" y="295" on="1"/>
        <pt x="444" y="295" on="1"/>
        <pt x="444" y="349" on="1"/>
        <pt x="661" y="349" on="1"/>
        <pt x="661" y="0" on="1"/>
        <pt x="602" y="0" on="1"/>
      </contour>
    </TTGlyph>
    <TTGlyph name="Gbreve" xMin="42" yMin="-5" xMax="661" yMax="917">
      <contour>
        <pt x="602" y="104" on="1"/>
        <pt x="503" y="-5" on="0"/>
        <pt x="374" y="-5" on="1"/>
        <pt x="302" y="-5" on="0"/>
        <pt x="181" y="57" on="0"/>
        <pt x="92" y="159" on="0"/>
        <pt x="42" y="288" on="0"/>
        <pt x="42" y="356" on="1"/>
        <pt x="42" y="427" on="0"/>
        <pt x="91" y="557" on="0"/>
        <pt x="179" y="656" on="0"/>
        <pt x="299" y="715" on="0"/>
        <pt x="370" y="715" on="1"/>
        <pt x="422" y="715" on="0"/>
        <pt x="508" y="692" on="0"/>
        <pt x="575" y="651" on="0"/>
        <pt x="624" y="594" on="0"/>
        <pt x="641" y="560" on="1"/>
        <pt x="587" y="524" on="1"/>
        <pt x="552" y="590" on="0"/>
        <pt x="440" y="652" on="0"/>
        <pt x="369" y="652" on="1"/>
        <pt x="310" y="652" on="0"/>
        <pt x="215" y="602" on="0"/>
        <pt x="148" y="519" on="0"/>
        <pt x="112" y="412" on="0"/>
        <pt x="112" y="355" on="1"/>
        <pt x="112" y="295" on="0"/>
        <pt x="153" y="187" on="0"/>
        <pt x="225" y="106" on="0"/>
        <pt x="322" y="58" on="0"/>
        <pt x="379" y="58" on="1"/>
        <pt x="440" y="58" on="0"/>
        <pt x="551" y="115" on="0"/>
        <pt x="602" y="177" on="1"/>
        <pt x="602" y="295" on="1"/>
        <pt x="444" y="295" on="1"/>
        <pt x="444" y="349" on="1"/>
        <pt x="661" y="349" on="1"/>
        <pt x="661" y="0" on="1"/>
        <pt x="602" y="0" on="1"/>
      </contour>
      <contour>
        <pt x="369" y="851" on="1"/>
        <pt x="390" y="851" on="0"/>
        <pt x="423" y="889" on="0"/>
        <pt x="426" y="917" on="1"/>
        <pt x="467" y="917" on="1"/>
        <pt x="467" y="896" on="0"/>
        <pt x="452" y="859" on="0"/>
        <pt x="425" y="832" on="0"/>
        <pt x="389" y="816" on="0"/>
        <pt x="369" y="816" on="1"/>
        <pt x="327" y="816" on="0"/>
        <pt x="271" y="874" on="0"/>
        <pt x="271" y="917" on="1"/>
        <pt x="313" y="917" on="1"/>
        <pt x="313" y="891" on="0"/>
        <pt x="347" y="851" on="0"/>
      </contour>
    </TTGlyph>
    <TTGlyph name="Gcircumflex" xMin="42" yMin="-5" xMax="661" yMax="917">
      <contour>
        <pt x="246" y="832" on="1"/>
        <pt x="344" y="917" on="1"/>
        <pt x="394" y="917" on="1"/>
        <pt x="493" y="832" on="1"/>
        <pt x="454" y="811" on="1"/>
        <pt x="369" y="874" on="1"/>
        <pt x="284" y="811" on="1"/>
      </contour>
      <contour>
        <pt x="602" y="104" on="1"/>
        <pt x="503" y="-5" on="0"/>
        <pt x="374" y="-5" on="1"/>
        <pt x="302" y="-5" on="0"/>
        <pt x="181" y="57" on="0"/>
        <pt x="92" y="159" on="0"/>
        <pt x="42" y="288" on="0"/>
        <pt x="42" y="356" on="1"/>
        <pt x="42" y="427" on="0"/>
        <pt x="91" y="557" on="0"/>
        <pt x="179" y="656" on="0"/>
        <pt x="299" y="715" on="0"/>
        <pt x="370" y="715" on="1"/>
        <pt x="422" y="715" on="0"/>
        <pt x="508" y="692" on="0"/>
        <pt x="575" y="651" on="0"/>
        <pt x="624" y="594" on="0"/>
        <pt x="641" y="560" on="1"/>
        <pt x="587" y="524" on="1"/>
        <pt x="552" y="590" on="0"/>
        <pt x="440" y="652" on="0"/>
        <pt x="369" y="652" on="1"/>
        <pt x="310" y="652" on="0"/>
        <pt x="215" y="602" on="0"/>
        <pt x="148" y="519" on="0"/>
        <pt x="112" y="412" on="0"/>
        <pt x="112" y="355" on="1"/>
        <pt x="112" y="295" on="0"/>
        <pt x="153" y="187" on="0"/>
        <pt x="225" y="106" on="0"/>
        <pt x="322" y="58" on="0"/>
        <pt x="379" y="58" on="1"/>
        <pt x="440" y="58" on="0"/>
        <pt x="551" y="115" on="0"/>
        <pt x="602" y="177" on="1"/>
        <pt x="602" y="295" on="1"/>
        <pt x="444" y="295" on="1"/>
        <pt x="444" y="349" on="1"/>
        <pt x="661" y="349" on="1"/>
        <pt x="661" y="0" on="1"/>
        <pt x="602" y="0" on="1"/>
      </contour>
    </TTGlyph>
    <TTGlyph name="Gcommaaccent" xMin="42" yMin="-199" xMax="661" yMax="715">
      <contour>
        <pt x="345" y="-199" on="1"/>
        <pt x="362" y="-125" on="1"/>
        <pt x="342" y="-125" on="1"/>
        <pt x="342" y="-49" on="1"/>
        <pt x="405" y="-49" on="1"/>
        <pt x="405" y="-125" on="1"/>
        <pt x="380" y="-199" on="1"/>
      </contour>
      <contour>
        <pt x="602" y="104" on="1"/>
        <pt x="503" y="-5" on="0"/>
        <pt x="374" y="-5" on="1"/>
        <pt x="302" y="-5" on="0"/>
        <pt x="181" y="57" on="0"/>
        <pt x="92" y="159" on="0"/>
        <pt x="42" y="288" on="0"/>
        <pt x="42" y="356" on="1"/>
        <pt x="42" y="427" on="0"/>
        <pt x="91" y="557" on="0"/>
        <pt x="179" y="656" on="0"/>
        <pt x="299" y="715" on="0"/>
        <pt x="370" y="715" on="1"/>
        <pt x="422" y="715" on="0"/>
        <pt x="508" y="692" on="0"/>
        <pt x="575" y="651" on="0"/>
        <pt x="624" y="594" on="0"/>
        <pt x="641" y="560" on="1"/>
        <pt x="587" y="524" on="1"/>
        <pt x="552" y="590" on="0"/>
        <pt x="440" y="652" on="0"/>
        <pt x="369" y="652" on="1"/>
        <pt x="310" y="652" on="0"/>
        <pt x="215" y="602" on="0"/>
        <pt x="148" y="519" on="0"/>
        <pt x="112" y="412" on="0"/>
        <pt x="112" y="355" on="1"/>
        <pt x="112" y="295" on="0"/>
        <pt x="153" y="187" on="0"/>
        <pt x="225" y="106" on="0"/>
        <pt x="322" y="58" on="0"/>
        <pt x="379" y="58" on="1"/>
        <pt x="440" y="58" on="0"/>
        <pt x="551" y="115" on="0"/>
        <pt x="602" y="177" on="1"/>
        <pt x="602" y="295" on="1"/>
        <pt x="444" y="295" on="1"/>
        <pt x="444" y="349" on="1"/>
        <pt x="661" y="349" on="1"/>
        <pt x="661" y="0" on="1"/>
        <pt x="602" y="0" on="1"/>
      </contour>
    </TTGlyph>
    <TTGlyph name="Gdotaccent" xMin="42" yMin="-5" xMax="661" yMax="917">
      <contour>
        <pt x="602" y="104" on="1"/>
        <pt x="503" y="-5" on="0"/>
        <pt x="374" y="-5" on="1"/>
        <pt x="302" y="-5" on="0"/>
        <pt x="181" y="57" on="0"/>
        <pt x="92" y="159" on="0"/>
        <pt x="42" y="288" on="0"/>
        <pt x="42" y="356" on="1"/>
        <pt x="42" y="427" on="0"/>
        <pt x="91" y="557" on="0"/>
        <pt x="179" y="656" on="0"/>
        <pt x="299" y="715" on="0"/>
        <pt x="370" y="715" on="1"/>
        <pt x="422" y="715" on="0"/>
        <pt x="508" y="692" on="0"/>
        <pt x="575" y="651" on="0"/>
        <pt x="624" y="594" on="0"/>
        <pt x="641" y="560" on="1"/>
        <pt x="587" y="524" on="1"/>
        <pt x="552" y="590" on="0"/>
        <pt x="440" y="652" on="0"/>
        <pt x="369" y="652" on="1"/>
        <pt x="310" y="652" on="0"/>
        <pt x="215" y="602" on="0"/>
        <pt x="148" y="519" on="0"/>
        <pt x="112" y="412" on="0"/>
        <pt x="112" y="355" on="1"/>
        <pt x="112" y="295" on="0"/>
        <pt x="153" y="187" on="0"/>
        <pt x="225" y="106" on="0"/>
        <pt x="322" y="58" on="0"/>
        <pt x="379" y="58" on="1"/>
        <pt x="440" y="58" on="0"/>
        <pt x="551" y="115" on="0"/>
        <pt x="602" y="177" on="1"/>
        <pt x="602" y="295" on="1"/>
        <pt x="444" y="295" on="1"/>
        <pt x="444" y="349" on="1"/>
        <pt x="661" y="349" on="1"/>
        <pt x="661" y="0" on="1"/>
        <pt x="602" y="0" on="1"/>
      </contour>
      <contour>
        <pt x="338" y="820" on="1"/>
        <pt x="338" y="917" on="1"/>
        <pt x="400" y="917" on="1"/>
        <pt x="400" y="820" on="1"/>
      </contour>
    </TTGlyph>
    <TTGlyph name="H" xMin="89" yMin="0" xMax="649" yMax="710">
      <contour>
        <pt x="649" y="710" on="1"/>
        <pt x="649" y="0" on="1"/>
        <pt x="580" y="0" on="1"/>
        <pt x="580" y="332" on="1"/>
        <pt x="159" y="332" on="1"/>
        <pt x="159" y="0" on="1"/>
        <pt x="89" y="0" on="1"/>
        <pt x="89" y="710" on="1"/>
        <pt x="159" y="710" on="1"/>
        <pt x="159" y="394" on="1"/>
        <pt x="580" y="394" on="1"/>
        <pt x="580" y="710" on="1"/>
      </contour>
    </TTGlyph>
    <TTGlyph name="H.sc" xMin="84" yMin="0" xMax="557" yMax="548">
      <contour>
        <pt x="557" y="548" on="1"/>
        <pt x="557" y="0" on="1"/>
        <pt x="495" y="0" on="1"/>
        <pt x="495" y="252" on="1"/>
        <pt x="146" y="252" on="1"/>
        <pt x="146" y="0" on="1"/>
        <pt x="84" y="0" on="1"/>
        <pt x="84" y="548" on="1"/>
        <pt x="146" y="548" on="1"/>
        <pt x="146" y="309" on="1"/>
        <pt x="495" y="309" on="1"/>
        <pt x="495" y="548" on="1"/>
      </contour>
    </TTGlyph>
    <TTGlyph name="Hbar" xMin="44" yMin="0" xMax="704" yMax="710">
      <contour>
        <pt x="654" y="710" on="1"/>
        <pt x="654" y="589" on="1"/>
        <pt x="704" y="589" on="1"/>
        <pt x="704" y="550" on="1"/>
        <pt x="654" y="550" on="1"/>
        <pt x="654" y="0" on="1"/>
        <pt x="585" y="0" on="1"/>
        <pt x="585" y="332" on="1"/>
        <pt x="164" y="332" on="1"/>
        <pt x="164" y="0" on="1"/>
        <pt x="94" y="0" on="1"/>
        <pt x="94" y="550" on="1"/>
        <pt x="44" y="550" on="1"/>
        <pt x="44" y="589" on="1"/>
        <pt x="94" y="589" on="1"/>
        <pt x="94" y="710" on="1"/>
        <pt x="164" y="710" on="1"/>
        <pt x="164" y="589" on="1"/>
        <pt x="585" y="589" on="1"/>
        <pt x="585" y="710" on="1"/>
      </contour>
      <contour>
        <pt x="585" y="394" on="1"/>
        <pt x="585" y="550" on="1"/>
        <pt x="164" y="550" on="1"/>
        <pt x="164" y="394" on="1"/>
      </contour>
    </TTGlyph>
    <TTGlyph name="Hcircumflex" xMin="89" yMin="0" xMax="649" yMax="917">
      <contour>
        <pt x="248" y="832" on="1"/>
        <pt x="346" y="917" on="1"/>
        <pt x="396" y="917" on="1"/>
        <pt x="495" y="832" on="1"/>
        <pt x="456" y="811" on="1"/>
        <pt x="371" y="874" on="1"/>
        <pt x="286" y="811" on="1"/>
      </contour>
      <contour>
        <pt x="649" y="710" on="1"/>
        <pt x="649" y="0" on="1"/>
        <pt x="580" y="0" on="1"/>
        <pt x="580" y="332" on="1"/>
        <pt x="159" y="332" on="1"/>
        <pt x="159" y="0" on="1"/>
        <pt x="89" y="0" on="1"/>
        <pt x="89" y="710" on="1"/>
        <pt x="159" y="710" on="1"/>
        <pt x="159" y="394" on="1"/>
        <pt x="580" y="394" on="1"/>
        <pt x="580" y="710" on="1"/>
      </contour>
    </TTGlyph>
    <TTGlyph name="Hdotbelow" xMin="89" yMin="-166" xMax="649" yMax="710">
      <contour>
        <pt x="649" y="710" on="1"/>
        <pt x="649" y="0" on="1"/>
        <pt x="580" y="0" on="1"/>
        <pt x="580" y="332" on="1"/>
        <pt x="159" y="332" on="1"/>
        <pt x="159" y="0" on="1"/>
        <pt x="89" y="0" on="1"/>
        <pt x="89" y="710" on="1"/>
        <pt x="159" y="710" on="1"/>
        <pt x="159" y="394" on="1"/>
        <pt x="580" y="394" on="1"/>
        <pt x="580" y="710" on="1"/>
      </contour>
      <contour>
        <pt x="339" y="-166" on="1"/>
        <pt x="339" y="-68" on="1"/>
        <pt x="401" y="-68" on="1"/>
        <pt x="401" y="-166" on="1"/>
      </contour>
    </TTGlyph>
    <TTGlyph name="I" xMin="89" yMin="0" xMax="159" yMax="710">
      <contour>
        <pt x="89" y="0" on="1"/>
        <pt x="89" y="710" on="1"/>
        <pt x="159" y="710" on="1"/>
        <pt x="159" y="0" on="1"/>
      </contour>
    </TTGlyph>
    <TTGlyph name="I.sc" xMin="84" yMin="0" xMax="146" yMax="547">
      <contour>
        <pt x="84" y="0" on="1"/>
        <pt x="84" y="547" on="1"/>
        <pt x="146" y="547" on="1"/>
        <pt x="146" y="0" on="1"/>
      </contour>
    </TTGlyph>
    <TTGlyph name="IJ" xMin="89" yMin="-11" xMax="649" yMax="710">
      <contour>
        <pt x="89" y="0" on="1"/>
        <pt x="89" y="710" on="1"/>
        <pt x="159" y="710" on="1"/>
        <pt x="159" y="0" on="1"/>
      </contour>
      <contour>
        <pt x="282" y="89" on="1"/>
        <pt x="304" y="74" on="0"/>
        <pt x="373" y="52" on="0"/>
        <pt x="416" y="52" on="1"/>
        <pt x="470" y="52" on="0"/>
        <pt x="535" y="91" on="0"/>
        <pt x="569" y="167" on="0"/>
        <pt x="579" y="278" on="0"/>
        <pt x="579" y="349" on="1"/>
        <pt x="579" y="710" on="1"/>
        <pt x="649" y="710" on="1"/>
        <pt x="649" y="349" on="1"/>
        <pt x="649" y="268" on="0"/>
        <pt x="634" y="135" on="0"/>
        <pt x="586" y="41" on="0"/>
        <pt x="494" y="-11" on="0"/>
        <pt x="416" y="-11" on="1"/>
        <pt x="326" y="-11" on="0"/>
        <pt x="262" y="33" on="1"/>
      </contour>
    </TTGlyph>
    <TTGlyph name="Iacute" xMin="85" yMin="0" xMax="216" yMax="917">
      <contour>
        <pt x="89" y="0" on="1"/>
        <pt x="89" y="710" on="1"/>
        <pt x="159" y="710" on="1"/>
        <pt x="159" y="0" on="1"/>
      </contour>
      <contour>
        <pt x="130" y="807" on="1"/>
        <pt x="85" y="824" on="1"/>
        <pt x="144" y="917" on="1"/>
        <pt x="216" y="917" on="1"/>
      </contour>
    </TTGlyph>
    <TTGlyph name="Ibreve" xMin="26" yMin="0" xMax="222" yMax="917">
      <contour>
        <pt x="89" y="0" on="1"/>
        <pt x="89" y="710" on="1"/>
        <pt x="159" y="710" on="1"/>
        <pt x="159" y="0" on="1"/>
      </contour>
      <contour>
        <pt x="124" y="851" on="1"/>
        <pt x="145" y="851" on="0"/>
        <pt x="178" y="889" on="0"/>
        <pt x="181" y="917" on="1"/>
        <pt x="222" y="917" on="1"/>
        <pt x="222" y="896" on="0"/>
        <pt x="207" y="859" on="0"/>
        <pt x="180" y="832" on="0"/>
        <pt x="144" y="816" on="0"/>
        <pt x="124" y="816" on="1"/>
        <pt x="82" y="816" on="0"/>
        <pt x="26" y="874" on="0"/>
        <pt x="26" y="917" on="1"/>
        <pt x="68" y="917" on="1"/>
        <pt x="68" y="891" on="0"/>
        <pt x="102" y="851" on="0"/>
      </contour>
    </TTGlyph>
    <TTGlyph name="Icircumflex" xMin="1" yMin="0" xMax="248" yMax="917">
      <contour>
        <pt x="89" y="0" on="1"/>
        <pt x="89" y="710" on="1"/>
        <pt x="159" y="710" on="1"/>
        <pt x="159" y="0" on="1"/>
      </contour>
      <contour>
        <pt x="1" y="832" on="1"/>
        <pt x="99" y="917" on="1"/>
        <pt x="149" y="917" on="1"/>
        <pt x="248" y="832" on="1"/>
        <pt x="209" y="811" on="1"/>
        <pt x="124" y="874" on="1"/>
        <pt x="39" y="811" on="1"/>
      </contour>
    </TTGlyph>
    <TTGlyph name="Idblgrave" xMin="-23" yMin="0" xMax="223" yMax="918">
      <contour>
        <pt x="89" y="0" on="1"/>
        <pt x="89" y="710" on="1"/>
        <pt x="159" y="710" on="1"/>
        <pt x="159" y="0" on="1"/>
      </contour>
      <contour>
        <pt x="103" y="918" on="1"/>
        <pt x="166" y="918" on="1"/>
        <pt x="223" y="825" on="1"/>
        <pt x="186" y="808" on="1"/>
      </contour>
      <contour>
        <pt x="-23" y="918" on="1"/>
        <pt x="41" y="918" on="1"/>
        <pt x="98" y="825" on="1"/>
        <pt x="61" y="808" on="1"/>
      </contour>
    </TTGlyph>
    <TTGlyph name="Idieresis" xMin="20" yMin="0" xMax="227" yMax="914">
      <contour>
        <pt x="89" y="0" on="1"/>
        <pt x="89" y="710" on="1"/>
        <pt x="159" y="710" on="1"/>
        <pt x="159" y="0" on="1"/>
      </contour>
      <contour>
        <pt x="20" y="820" on="1"/>
        <pt x="20" y="914" on="1"/>
        <pt x="78" y="914" on="1"/>
        <pt x="78" y="820" on="1"/>
      </contour>
      <contour>
        <pt x="169" y="820" on="1"/>
        <pt x="169" y="914" on="1"/>
        <pt x="227" y="914" on="1"/>
        <pt x="227" y="820" on="1"/>
      </contour>
    </TTGlyph>
    <TTGlyph name="Idotaccent" xMin="89" yMin="0" xMax="159" yMax="917">
      <contour>
        <pt x="89" y="0" on="1"/>
        <pt x="89" y="710" on="1"/>
        <pt x="159" y="710" on="1"/>
        <pt x="159" y="0" on="1"/>
      </contour>
      <contour>
        <pt x="93" y="820" on="1"/>
        <pt x="93" y="917" on="1"/>
        <pt x="155" y="917" on="1"/>
        <pt x="155" y="820" on="1"/>
      </contour>
    </TTGlyph>
    <TTGlyph name="Idotbelow" xMin="89" yMin="-166" xMax="159" yMax="710">
      <contour>
        <pt x="89" y="0" on="1"/>
        <pt x="89" y="710" on="1"/>
        <pt x="159" y="710" on="1"/>
        <pt x="159" y="0" on="1"/>
      </contour>
      <contour>
        <pt x="91" y="-166" on="1"/>
        <pt x="91" y="-68" on="1"/>
        <pt x="153" y="-68" on="1"/>
        <pt x="153" y="-166" on="1"/>
      </contour>
    </TTGlyph>
    <TTGlyph name="Igrave" xMin="31" yMin="0" xMax="162" yMax="917">
      <contour>
        <pt x="89" y="0" on="1"/>
        <pt x="89" y="710" on="1"/>
        <pt x="159" y="710" on="1"/>
        <pt x="159" y="0" on="1"/>
      </contour>
      <contour>
        <pt x="31" y="917" on="1"/>
        <pt x="102" y="917" on="1"/>
        <pt x="162" y="824" on="1"/>
        <pt x="118" y="807" on="1"/>
      </contour>
    </TTGlyph>
    <TTGlyph name="Iinvertedbreve" xMin="24" yMin="0" xMax="220" yMax="917">
      <contour>
        <pt x="89" y="0" on="1"/>
        <pt x="89" y="710" on="1"/>
        <pt x="159" y="710" on="1"/>
        <pt x="159" y="0" on="1"/>
      </contour>
      <contour>
        <pt x="122" y="882" on="1"/>
        <pt x="100" y="882" on="0"/>
        <pt x="66" y="842" on="0"/>
        <pt x="66" y="816" on="1"/>
        <pt x="24" y="816" on="1"/>
        <pt x="24" y="859" on="0"/>
        <pt x="80" y="917" on="0"/>
        <pt x="122" y="917" on="1"/>
        <pt x="142" y="917" on="0"/>
        <pt x="178" y="901" on="0"/>
        <pt x="205" y="874" on="0"/>
        <pt x="220" y="837" on="0"/>
        <pt x="220" y="816" on="1"/>
        <pt x="179" y="816" on="1"/>
        <pt x="176" y="844" on="0"/>
        <pt x="143" y="882" on="0"/>
      </contour>
    </TTGlyph>
    <TTGlyph name="Imacron" xMin="-20" yMin="0" xMax="269" yMax="897">
      <contour>
        <pt x="89" y="0" on="1"/>
        <pt x="89" y="710" on="1"/>
        <pt x="159" y="710" on="1"/>
        <pt x="159" y="0" on="1"/>
      </contour>
      <contour>
        <pt x="-20" y="850" on="1"/>
        <pt x="-20" y="897" on="1"/>
        <pt x="269" y="897" on="1"/>
        <pt x="269" y="850" on="1"/>
      </contour>
    </TTGlyph>
    <TTGlyph name="Iogonek" xMin="35" yMin="-175" xMax="159" yMax="710">
      <contour>
        <pt x="110" y="-175" on="1"/>
        <pt x="73" y="-167" on="0"/>
        <pt x="35" y="-128" on="0"/>
        <pt x="35" y="-102" on="1"/>
        <pt x="35" y="-77" on="0"/>
        <pt x="71" y="-27" on="0"/>
        <pt x="110" y="0" on="1"/>
        <pt x="89" y="0" on="1"/>
        <pt x="89" y="710" on="1"/>
        <pt x="159" y="710" on="1"/>
        <pt x="159" y="0" on="1"/>
        <pt x="114" y="-28" on="0"/>
        <pt x="77" y="-71" on="0"/>
        <pt x="77" y="-93" on="1"/>
        <pt x="77" y="-130" on="0"/>
        <pt x="129" y="-137" on="1"/>
        <pt x="110" y="-175" on="1"/>
      </contour>
    </TTGlyph>
    <TTGlyph name="Itilde" xMin="-34" yMin="0" xMax="284" yMax="917">
      <contour>
        <pt x="89" y="0" on="1"/>
        <pt x="89" y="710" on="1"/>
        <pt x="159" y="710" on="1"/>
        <pt x="159" y="0" on="1"/>
      </contour>
      <contour>
        <pt x="186" y="825" on="1"/>
        <pt x="163" y="825" on="0"/>
        <pt x="130" y="837" on="0"/>
        <pt x="101" y="852" on="0"/>
        <pt x="74" y="865" on="0"/>
        <pt x="58" y="865" on="1"/>
        <pt x="41" y="865" on="0"/>
        <pt x="22" y="851" on="0"/>
        <pt x="11" y="834" on="0"/>
        <pt x="8" y="819" on="0"/>
        <pt x="8" y="817" on="1"/>
        <pt x="-34" y="817" on="1"/>
        <pt x="-34" y="822" on="0"/>
        <pt x="-27" y="853" on="0"/>
        <pt x="-7" y="885" on="0"/>
        <pt x="29" y="910" on="0"/>
        <pt x="57" y="910" on="1"/>
        <pt x="78" y="910" on="0"/>
        <pt x="109" y="897" on="0"/>
        <pt x="137" y="881" on="0"/>
        <pt x="166" y="868" on="0"/>
        <pt x="185" y="868" on="1"/>
        <pt x="204" y="868" on="0"/>
        <pt x="227" y="882" on="0"/>
        <pt x="239" y="900" on="0"/>
        <pt x="242" y="915" on="0"/>
        <pt x="242" y="917" on="1"/>
        <pt x="284" y="917" on="1"/>
        <pt x="284" y="912" on="0"/>
        <pt x="276" y="882" on="0"/>
        <pt x="255" y="850" on="0"/>
        <pt x="216" y="825" on="0"/>
      </contour>
    </TTGlyph>
    <TTGlyph name="J" xMin="14" yMin="-11" xMax="401" yMax="710">
      <contour>
        <pt x="34" y="89" on="1"/>
        <pt x="56" y="74" on="0"/>
        <pt x="125" y="52" on="0"/>
        <pt x="168" y="52" on="1"/>
        <pt x="222" y="52" on="0"/>
        <pt x="287" y="91" on="0"/>
        <pt x="321" y="167" on="0"/>
        <pt x="331" y="278" on="0"/>
        <pt x="331" y="349" on="1"/>
        <pt x="331" y="710" on="1"/>
        <pt x="401" y="710" on="1"/>
        <pt x="401" y="349" on="1"/>
        <pt x="401" y="268" on="0"/>
        <pt x="386" y="135" on="0"/>
        <pt x="338" y="41" on="0"/>
        <pt x="246" y="-11" on="0"/>
        <pt x="168" y="-11" on="1"/>
        <pt x="78" y="-11" on="0"/>
        <pt x="14" y="33" on="1"/>
      </contour>
    </TTGlyph>
    <TTGlyph name="J.sc" xMin="21" yMin="-8" xMax="348" yMax="547">
      <contour>
        <pt x="38" y="76" on="1"/>
        <pt x="56" y="65" on="0"/>
        <pt x="115" y="48" on="0"/>
        <pt x="151" y="48" on="1"/>
        <pt x="196" y="48" on="0"/>
        <pt x="249" y="77" on="0"/>
        <pt x="278" y="133" on="0"/>
        <pt x="286" y="215" on="0"/>
        <pt x="286" y="269" on="1"/>
        <pt x="286" y="547" on="1"/>
        <pt x="348" y="547" on="1"/>
        <pt x="348" y="269" on="1"/>
        <pt x="348" y="206" on="0"/>
        <pt x="336" y="104" on="0"/>
        <pt x="295" y="32" on="0"/>
        <pt x="217" y="-8" on="0"/>
        <pt x="151" y="-8" on="1"/>
        <pt x="73" y="-8" on="0"/>
        <pt x="21" y="25" on="1"/>
      </contour>
    </TTGlyph>
    <TTGlyph name="Jcircumflex" xMin="14" yMin="-11" xMax="491" yMax="917">
      <contour>
        <pt x="244" y="832" on="1"/>
        <pt x="342" y="917" on="1"/>
        <pt x="392" y="917" on="1"/>
        <pt x="491" y="832" on="1"/>
        <pt x="452" y="811" on="1"/>
        <pt x="367" y="874" on="1"/>
        <pt x="282" y="811" on="1"/>
      </contour>
      <contour>
        <pt x="34" y="89" on="1"/>
        <pt x="56" y="74" on="0"/>
        <pt x="125" y="52" on="0"/>
        <pt x="168" y="52" on="1"/>
        <pt x="222" y="52" on="0"/>
        <pt x="287" y="91" on="0"/>
        <pt x="321" y="167" on="0"/>
        <pt x="331" y="278" on="0"/>
        <pt x="331" y="349" on="1"/>
        <pt x="331" y="710" on="1"/>
        <pt x="401" y="710" on="1"/>
        <pt x="401" y="349" on="1"/>
        <pt x="401" y="268" on="0"/>
        <pt x="386" y="135" on="0"/>
        <pt x="338" y="41" on="0"/>
        <pt x="246" y="-11" on="0"/>
        <pt x="168" y="-11" on="1"/>
        <pt x="78" y="-11" on="0"/>
        <pt x="14" y="33" on="1"/>
      </contour>
    </TTGlyph>
    <TTGlyph name="K" xMin="89" yMin="0" xMax="642" yMax="710">
      <contour>
        <pt x="89" y="0" on="1"/>
        <pt x="89" y="709" on="1"/>
        <pt x="159" y="709" on="1"/>
        <pt x="159" y="297" on="1"/>
        <pt x="550" y="710" on="1"/>
        <pt x="627" y="710" on="1"/>
        <pt x="337" y="398" on="1"/>
        <pt x="642" y="0" on="1"/>
        <pt x="565" y="0" on="1"/>
        <pt x="293" y="357" on="1"/>
        <pt x="159" y="218" on="1"/>
        <pt x="159" y="0" on="1"/>
      </contour>
    </TTGlyph>
    <TTGlyph name="K.sc" xMin="84" yMin="0" xMax="552" yMax="548">
      <contour>
        <pt x="84" y="0" on="1"/>
        <pt x="84" y="547" on="1"/>
        <pt x="146" y="547" on="1"/>
        <pt x="146" y="238" on="1"/>
        <pt x="470" y="548" on="1"/>
        <pt x="540" y="548" on="1"/>
        <pt x="296" y="307" on="1"/>
        <pt x="552" y="0" on="1"/>
        <pt x="484" y="0" on="1"/>
        <pt x="258" y="270" on="1"/>
        <pt x="146" y="168" on="1"/>
        <pt x="146" y="0" on="1"/>
      </contour>
    </TTGlyph>
    <TTGlyph name="Kcommaaccent" xMin="89" yMin="-199" xMax="642" yMax="710">
      <contour>
        <pt x="299" y="-199" on="1"/>
        <pt x="316" y="-125" on="1"/>
        <pt x="296" y="-125" on="1"/>
        <pt x="296" y="-49" on="1"/>
        <pt x="359" y="-49" on="1"/>
        <pt x="359" y="-125" on="1"/>
        <pt x="334" y="-199" on="1"/>
      </contour>
      <contour>
        <pt x="89" y="0" on="1"/>
        <pt x="89" y="709" on="1"/>
        <pt x="159" y="709" on="1"/>
        <pt x="159" y="297" on="1"/>
        <pt x="550" y="710" on="1"/>
        <pt x="627" y="710" on="1"/>
        <pt x="337" y="398" on="1"/>
        <pt x="642" y="0" on="1"/>
        <pt x="565" y="0" on="1"/>
        <pt x="293" y="357" on="1"/>
        <pt x="159" y="218" on="1"/>
        <pt x="159" y="0" on="1"/>
      </contour>
    </TTGlyph>
    <TTGlyph name="L" xMin="89" yMin="0" xMax="569" yMax="710">
      <contour>
        <pt x="89" y="0" on="1"/>
        <pt x="89" y="710" on="1"/>
        <pt x="159" y="710" on="1"/>
        <pt x="159" y="62" on="1"/>
        <pt x="569" y="62" on="1"/>
        <pt x="569" y="0" on="1"/>
      </contour>
    </TTGlyph>
    <TTGlyph name="L.sc" xMin="84" yMin="0" xMax="477" yMax="548">
      <contour>
        <pt x="84" y="0" on="1"/>
        <pt x="84" y="548" on="1"/>
        <pt x="146" y="548" on="1"/>
        <pt x="146" y="56" on="1"/>
        <pt x="477" y="56" on="1"/>
        <pt x="477" y="0" on="1"/>
      </contour>
    </TTGlyph>
    <TTGlyph name="Lacute" xMin="89" yMin="0" xMax="569" yMax="917">
      <contour>
        <pt x="349" y="807" on="1"/>
        <pt x="304" y="824" on="1"/>
        <pt x="363" y="917" on="1"/>
        <pt x="435" y="917" on="1"/>
      </contour>
      <contour>
        <pt x="89" y="0" on="1"/>
        <pt x="89" y="710" on="1"/>
        <pt x="159" y="710" on="1"/>
        <pt x="159" y="62" on="1"/>
        <pt x="569" y="62" on="1"/>
        <pt x="569" y="0" on="1"/>
      </contour>
    </TTGlyph>
    <TTGlyph name="Lcaron" xMin="89" yMin="0" xMax="569" yMax="730">
      <contour>
        <pt x="380" y="620" on="1"/>
        <pt x="335" y="637" on="1"/>
        <pt x="394" y="730" on="1"/>
        <pt x="466" y="730" on="1"/>
      </contour>
      <contour>
        <pt x="89" y="0" on="1"/>
        <pt x="89" y="710" on="1"/>
        <pt x="159" y="710" on="1"/>
        <pt x="159" y="62" on="1"/>
        <pt x="569" y="62" on="1"/>
        <pt x="569" y="0" on="1"/>
      </contour>
    </TTGlyph>
    <TTGlyph name="Lcommaaccent" xMin="89" yMin="-199" xMax="569" yMax="710">
      <contour>
        <pt x="302" y="-199" on="1"/>
        <pt x="319" y="-125" on="1"/>
        <pt x="299" y="-125" on="1"/>
        <pt x="299" y="-49" on="1"/>
        <pt x="362" y="-49" on="1"/>
        <pt x="362" y="-125" on="1"/>
        <pt x="337" y="-199" on="1"/>
      </contour>
      <contour>
        <pt x="89" y="0" on="1"/>
        <pt x="89" y="710" on="1"/>
        <pt x="159" y="710" on="1"/>
        <pt x="159" y="62" on="1"/>
        <pt x="569" y="62" on="1"/>
        <pt x="569" y="0" on="1"/>
      </contour>
    </TTGlyph>
    <TTGlyph name="Ldot" xMin="89" yMin="0" xMax="569" yMax="710">
      <contour>
        <pt x="89" y="0" on="1"/>
        <pt x="89" y="710" on="1"/>
        <pt x="159" y="710" on="1"/>
        <pt x="159" y="62" on="1"/>
        <pt x="569" y="62" on="1"/>
        <pt x="569" y="0" on="1"/>
      </contour>
      <contour>
        <pt x="366" y="348" on="1"/>
        <pt x="366" y="460" on="1"/>
        <pt x="425" y="460" on="1"/>
        <pt x="425" y="348" on="1"/>
      </contour>
    </TTGlyph>
    <TTGlyph name="Lslash" xMin="16" yMin="0" xMax="576" yMax="710">
      <contour>
        <pt x="96" y="0" on="1"/>
        <pt x="96" y="277" on="1"/>
        <pt x="38" y="229" on="1"/>
        <pt x="16" y="269" on="1"/>
        <pt x="96" y="335" on="1"/>
        <pt x="96" y="710" on="1"/>
        <pt x="166" y="710" on="1"/>
        <pt x="166" y="393" on="1"/>
        <pt x="321" y="522" on="1"/>
        <pt x="343" y="483" on="1"/>
        <pt x="166" y="335" on="1"/>
        <pt x="166" y="62" on="1"/>
        <pt x="576" y="62" on="1"/>
        <pt x="576" y="0" on="1"/>
      </contour>
    </TTGlyph>
    <TTGlyph name="M" xMin="89" yMin="0" xMax="788" yMax="710">
      <contour>
        <pt x="718" y="0" on="1"/>
        <pt x="718" y="583" on="1"/>
        <pt x="459" y="132" on="1"/>
        <pt x="418" y="132" on="1"/>
        <pt x="159" y="583" on="1"/>
        <pt x="159" y="0" on="1"/>
        <pt x="89" y="0" on="1"/>
        <pt x="89" y="710" on="1"/>
        <pt x="161" y="710" on="1"/>
        <pt x="438" y="224" on="1"/>
        <pt x="717" y="710" on="1"/>
        <pt x="788" y="710" on="1"/>
        <pt x="788" y="0" on="1"/>
      </contour>
    </TTGlyph>
    <TTGlyph name="M.sc" xMin="84" yMin="0" xMax="674" yMax="548">
      <contour>
        <pt x="611" y="0" on="1"/>
        <pt x="611" y="435" on="1"/>
        <pt x="397" y="100" on="1"/>
        <pt x="361" y="100" on="1"/>
        <pt x="146" y="435" on="1"/>
        <pt x="146" y="0" on="1"/>
        <pt x="84" y="0" on="1"/>
        <pt x="84" y="548" on="1"/>
        <pt x="149" y="548" on="1"/>
        <pt x="379" y="184" on="1"/>
        <pt x="609" y="548" on="1"/>
        <pt x="674" y="548" on="1"/>
        <pt x="674" y="0" on="1"/>
      </contour>
    </TTGlyph>
    <TTGlyph name="N" xMin="89" yMin="0" xMax="683" yMax="710">
      <contour>
        <pt x="159" y="580" on="1"/>
        <pt x="159" y="0" on="1"/>
        <pt x="89" y="0" on="1"/>
        <pt x="89" y="710" on="1"/>
        <pt x="143" y="710" on="1"/>
        <pt x="613" y="119" on="1"/>
        <pt x="613" y="709" on="1"/>
        <pt x="683" y="709" on="1"/>
        <pt x="683" y="0" on="1"/>
        <pt x="622" y="0" on="1"/>
      </contour>
    </TTGlyph>
    <TTGlyph name="N.sc" xMin="84" yMin="0" xMax="585" yMax="548">
      <contour>
        <pt x="146" y="431" on="1"/>
        <pt x="146" y="0" on="1"/>
        <pt x="84" y="0" on="1"/>
        <pt x="84" y="548" on="1"/>
        <pt x="132" y="548" on="1"/>
        <pt x="522" y="109" on="1"/>
        <pt x="522" y="547" on="1"/>
        <pt x="585" y="547" on="1"/>
        <pt x="585" y="0" on="1"/>
        <pt x="531" y="0" on="1"/>
      </contour>
    </TTGlyph>
    <TTGlyph name="Nacute" xMin="89" yMin="0" xMax="683" yMax="917">
      <contour>
        <pt x="395" y="807" on="1"/>
        <pt x="350" y="824" on="1"/>
        <pt x="409" y="917" on="1"/>
        <pt x="481" y="917" on="1"/>
      </contour>
      <contour>
        <pt x="159" y="580" on="1"/>
        <pt x="159" y="0" on="1"/>
        <pt x="89" y="0" on="1"/>
        <pt x="89" y="710" on="1"/>
        <pt x="143" y="710" on="1"/>
        <pt x="613" y="119" on="1"/>
        <pt x="613" y="709" on="1"/>
        <pt x="683" y="709" on="1"/>
        <pt x="683" y="0" on="1"/>
        <pt x="622" y="0" on="1"/>
      </contour>
    </TTGlyph>
    <TTGlyph name="Ncaron" xMin="89" yMin="0" xMax="683" yMax="917">
      <contour>
        <pt x="304" y="917" on="1"/>
        <pt x="389" y="854" on="1"/>
        <pt x="474" y="917" on="1"/>
        <pt x="513" y="897" on="1"/>
        <pt x="414" y="811" on="1"/>
        <pt x="364" y="811" on="1"/>
        <pt x="266" y="897" on="1"/>
      </contour>
      <contour>
        <pt x="159" y="580" on="1"/>
        <pt x="159" y="0" on="1"/>
        <pt x="89" y="0" on="1"/>
        <pt x="89" y="710" on="1"/>
        <pt x="143" y="710" on="1"/>
        <pt x="613" y="119" on="1"/>
        <pt x="613" y="709" on="1"/>
        <pt x="683" y="709" on="1"/>
        <pt x="683" y="0" on="1"/>
        <pt x="622" y="0" on="1"/>
      </contour>
    </TTGlyph>
    <TTGlyph name="Ncommaaccent" xMin="89" yMin="-199" xMax="683" yMax="710">
      <contour>
        <pt x="358" y="-199" on="1"/>
        <pt x="375" y="-125" on="1"/>
        <pt x="355" y="-125" on="1"/>
        <pt x="355" y="-49" on="1"/>
        <pt x="418" y="-49" on="1"/>
        <pt x="418" y="-125" on="1"/>
        <pt x="393" y="-199" on="1"/>
      </contour>
      <contour>
        <pt x="159" y="580" on="1"/>
        <pt x="159" y="0" on="1"/>
        <pt x="89" y="0" on="1"/>
        <pt x="89" y="710" on="1"/>
        <pt x="143" y="710" on="1"/>
        <pt x="613" y="119" on="1"/>
        <pt x="613" y="709" on="1"/>
        <pt x="683" y="709" on="1"/>
        <pt x="683" y="0" on="1"/>
        <pt x="622" y="0" on="1"/>
      </contour>
    </TTGlyph>
    <TTGlyph name="Ndotaccent" xMin="89" yMin="0" xMax="683" yMax="917">
      <contour>
        <pt x="358" y="820" on="1"/>
        <pt x="358" y="917" on="1"/>
        <pt x="420" y="917" on="1"/>
        <pt x="420" y="820" on="1"/>
      </contour>
      <contour>
        <pt x="159" y="580" on="1"/>
        <pt x="159" y="0" on="1"/>
        <pt x="89" y="0" on="1"/>
        <pt x="89" y="710" on="1"/>
        <pt x="143" y="710" on="1"/>
        <pt x="613" y="119" on="1"/>
        <pt x="613" y="709" on="1"/>
        <pt x="683" y="709" on="1"/>
        <pt x="683" y="0" on="1"/>
        <pt x="622" y="0" on="1"/>
      </contour>
    </TTGlyph>
    <TTGlyph name="Ntilde" xMin="89" yMin="0" xMax="683" yMax="917">
      <contour>
        <pt x="159" y="580" on="1"/>
        <pt x="159" y="0" on="1"/>
        <pt x="89" y="0" on="1"/>
        <pt x="89" y="710" on="1"/>
        <pt x="143" y="710" on="1"/>
        <pt x="613" y="119" on="1"/>
        <pt x="613" y="709" on="1"/>
        <pt x="683" y="709" on="1"/>
        <pt x="683" y="0" on="1"/>
        <pt x="622" y="0" on="1"/>
      </contour>
      <contour>
        <pt x="451" y="825" on="1"/>
        <pt x="428" y="825" on="0"/>
        <pt x="395" y="837" on="0"/>
        <pt x="366" y="852" on="0"/>
        <pt x="339" y="865" on="0"/>
        <pt x="323" y="865" on="1"/>
        <pt x="306" y="865" on="0"/>
        <pt x="287" y="851" on="0"/>
        <pt x="276" y="834" on="0"/>
        <pt x="273" y="819" on="0"/>
        <pt x="273" y="817" on="1"/>
        <pt x="231" y="817" on="1"/>
        <pt x="231" y="822" on="0"/>
        <pt x="238" y="853" on="0"/>
        <pt x="258" y="885" on="0"/>
        <pt x="294" y="910" on="0"/>
        <pt x="322" y="910" on="1"/>
        <pt x="343" y="910" on="0"/>
        <pt x="374" y="897" on="0"/>
        <pt x="402" y="881" on="0"/>
        <pt x="431" y="868" on="0"/>
        <pt x="450" y="868" on="1"/>
        <pt x="469" y="868" on="0"/>
        <pt x="492" y="882" on="0"/>
        <pt x="504" y="900" on="0"/>
        <pt x="507" y="915" on="0"/>
        <pt x="507" y="917" on="1"/>
        <pt x="549" y="917" on="1"/>
        <pt x="549" y="912" on="0"/>
        <pt x="541" y="882" on="0"/>
        <pt x="520" y="850" on="0"/>
        <pt x="481" y="825" on="0"/>
      </contour>
    </TTGlyph>
    <TTGlyph name="O" xMin="42" yMin="-5" xMax="708" yMax="715">
      <contour>
        <pt x="375" y="-5" on="1"/>
        <pt x="301" y="-5" on="0"/>
        <pt x="178" y="56" on="0"/>
        <pt x="90" y="157" on="0"/>
        <pt x="42" y="287" on="0"/>
        <pt x="42" y="355" on="1"/>
        <pt x="42" y="426" on="0"/>
        <pt x="93" y="556" on="0"/>
        <pt x="183" y="656" on="0"/>
        <pt x="305" y="715" on="0"/>
        <pt x="376" y="715" on="1"/>
        <pt x="450" y="715" on="0"/>
        <pt x="573" y="652" on="0"/>
        <pt x="660" y="550" on="0"/>
        <pt x="708" y="421" on="0"/>
        <pt x="708" y="354" on="1"/>
        <pt x="708" y="283" on="0"/>
        <pt x="657" y="153" on="0"/>
        <pt x="568" y="54" on="0"/>
        <pt x="446" y="-5" on="0"/>
      </contour>
      <contour>
        <pt x="112" y="355" on="1"/>
        <pt x="112" y="297" on="0"/>
        <pt x="150" y="190" on="0"/>
        <pt x="220" y="107" on="0"/>
        <pt x="316" y="58" on="0"/>
        <pt x="375" y="58" on="1"/>
        <pt x="435" y="58" on="0"/>
        <pt x="533" y="110" on="0"/>
        <pt x="601" y="194" on="0"/>
        <pt x="638" y="300" on="0"/>
        <pt x="638" y="355" on="1"/>
        <pt x="638" y="413" on="0"/>
        <pt x="599" y="520" on="0"/>
        <pt x="529" y="602" on="0"/>
        <pt x="433" y="651" on="0"/>
        <pt x="375" y="651" on="1"/>
        <pt x="315" y="651" on="0"/>
        <pt x="217" y="600" on="0"/>
        <pt x="149" y="516" on="0"/>
        <pt x="112" y="410" on="0"/>
      </contour>
    </TTGlyph>
    <TTGlyph name="O.sc" xMin="44" yMin="-4" xMax="605" yMax="551">
      <contour>
        <pt x="325" y="-4" on="1"/>
        <pt x="262" y="-4" on="0"/>
        <pt x="158" y="43" on="0"/>
        <pt x="85" y="121" on="0"/>
        <pt x="44" y="221" on="0"/>
        <pt x="44" y="274" on="1"/>
        <pt x="44" y="328" on="0"/>
        <pt x="87" y="429" on="0"/>
        <pt x="162" y="505" on="0"/>
        <pt x="265" y="551" on="0"/>
        <pt x="325" y="551" on="1"/>
        <pt x="388" y="551" on="0"/>
        <pt x="491" y="503" on="0"/>
        <pt x="565" y="424" on="0"/>
        <pt x="605" y="324" on="0"/>
        <pt x="605" y="273" on="1"/>
        <pt x="605" y="218" on="0"/>
        <pt x="562" y="118" on="0"/>
        <pt x="487" y="41" on="0"/>
        <pt x="385" y="-4" on="0"/>
      </contour>
      <contour>
        <pt x="107" y="274" on="1"/>
        <pt x="107" y="231" on="0"/>
        <pt x="139" y="151" on="0"/>
        <pt x="196" y="90" on="0"/>
        <pt x="276" y="53" on="0"/>
        <pt x="325" y="53" on="1"/>
        <pt x="375" y="53" on="0"/>
        <pt x="455" y="91" on="0"/>
        <pt x="512" y="154" on="0"/>
        <pt x="542" y="233" on="0"/>
        <pt x="542" y="274" on="1"/>
        <pt x="542" y="317" on="0"/>
        <pt x="510" y="397" on="0"/>
        <pt x="452" y="458" on="0"/>
        <pt x="373" y="494" on="0"/>
        <pt x="325" y="494" on="1"/>
        <pt x="275" y="494" on="0"/>
        <pt x="195" y="456" on="0"/>
        <pt x="138" y="393" on="0"/>
        <pt x="107" y="314" on="0"/>
      </contour>
    </TTGlyph>
    <TTGlyph name="OE" xMin="42" yMin="-5" xMax="1112" yMax="715">
      <contour>
        <pt x="1112" y="62" on="1"/>
        <pt x="1112" y="0" on="1"/>
        <pt x="640" y="0" on="1"/>
        <pt x="640" y="180" on="1"/>
        <pt x="623" y="141" on="0"/>
        <pt x="570" y="73" on="0"/>
        <pt x="502" y="23" on="0"/>
        <pt x="421" y="-5" on="0"/>
        <pt x="376" y="-5" on="1"/>
        <pt x="302" y="-5" on="0"/>
        <pt x="179" y="56" on="0"/>
        <pt x="91" y="157" on="0"/>
        <pt x="42" y="287" on="0"/>
        <pt x="42" y="355" on="1"/>
        <pt x="42" y="426" on="0"/>
        <pt x="93" y="556" on="0"/>
        <pt x="183" y="656" on="0"/>
        <pt x="305" y="715" on="0"/>
        <pt x="376" y="715" on="1"/>
        <pt x="422" y="715" on="0"/>
        <pt x="504" y="686" on="0"/>
        <pt x="572" y="636" on="0"/>
        <pt x="623" y="568" on="0"/>
        <pt x="640" y="530" on="1"/>
        <pt x="640" y="710" on="1"/>
        <pt x="1103" y="710" on="1"/>
        <pt x="1103" y="648" on="1"/>
        <pt x="710" y="648" on="1"/>
        <pt x="710" y="393" on="1"/>
        <pt x="1049" y="393" on="1"/>
        <pt x="1049" y="331" on="1"/>
        <pt x="710" y="331" on="1"/>
        <pt x="710" y="62" on="1"/>
      </contour>
      <contour>
        <pt x="375" y="58" on="1"/>
        <pt x="435" y="58" on="0"/>
        <pt x="533" y="109" on="0"/>
        <pt x="601" y="193" on="0"/>
        <pt x="638" y="300" on="0"/>
        <pt x="638" y="356" on="1"/>
        <pt x="638" y="413" on="0"/>
        <pt x="599" y="520" on="0"/>
        <pt x="529" y="603" on="0"/>
        <pt x="433" y="652" on="0"/>
        <pt x="375" y="652" on="1"/>
        <pt x="315" y="652" on="0"/>
        <pt x="217" y="601" on="0"/>
        <pt x="149" y="517" on="0"/>
        <pt x="112" y="410" on="0"/>
        <pt x="112" y="355" on="1"/>
        <pt x="112" y="297" on="0"/>
        <pt x="150" y="190" on="0"/>
        <pt x="220" y="107" on="0"/>
        <pt x="316" y="58" on="0"/>
      </contour>
    </TTGlyph>
    <TTGlyph name="Oacute" xMin="42" yMin="-5" xMax="708" yMax="917">
      <contour>
        <pt x="382" y="807" on="1"/>
        <pt x="337" y="824" on="1"/>
        <pt x="396" y="917" on="1"/>
        <pt x="468" y="917" on="1"/>
      </contour>
      <contour>
        <pt x="375" y="-5" on="1"/>
        <pt x="301" y="-5" on="0"/>
        <pt x="178" y="56" on="0"/>
        <pt x="90" y="157" on="0"/>
        <pt x="42" y="287" on="0"/>
        <pt x="42" y="355" on="1"/>
        <pt x="42" y="426" on="0"/>
        <pt x="93" y="556" on="0"/>
        <pt x="183" y="656" on="0"/>
        <pt x="305" y="715" on="0"/>
        <pt x="376" y="715" on="1"/>
        <pt x="450" y="715" on="0"/>
        <pt x="573" y="652" on="0"/>
        <pt x="660" y="550" on="0"/>
        <pt x="708" y="421" on="0"/>
        <pt x="708" y="354" on="1"/>
        <pt x="708" y="283" on="0"/>
        <pt x="657" y="153" on="0"/>
        <pt x="568" y="54" on="0"/>
        <pt x="446" y="-5" on="0"/>
      </contour>
      <contour>
        <pt x="112" y="355" on="1"/>
        <pt x="112" y="297" on="0"/>
        <pt x="150" y="190" on="0"/>
        <pt x="220" y="107" on="0"/>
        <pt x="316" y="58" on="0"/>
        <pt x="375" y="58" on="1"/>
        <pt x="435" y="58" on="0"/>
        <pt x="533" y="110" on="0"/>
        <pt x="601" y="194" on="0"/>
        <pt x="638" y="300" on="0"/>
        <pt x="638" y="355" on="1"/>
        <pt x="638" y="413" on="0"/>
        <pt x="599" y="520" on="0"/>
        <pt x="529" y="602" on="0"/>
        <pt x="433" y="651" on="0"/>
        <pt x="375" y="651" on="1"/>
        <pt x="315" y="651" on="0"/>
        <pt x="217" y="600" on="0"/>
        <pt x="149" y="516" on="0"/>
        <pt x="112" y="410" on="0"/>
      </contour>
    </TTGlyph>
    <TTGlyph name="Obreve" xMin="42" yMin="-5" xMax="708" yMax="917">
      <contour>
        <pt x="375" y="-5" on="1"/>
        <pt x="301" y="-5" on="0"/>
        <pt x="178" y="56" on="0"/>
        <pt x="90" y="157" on="0"/>
        <pt x="42" y="287" on="0"/>
        <pt x="42" y="355" on="1"/>
        <pt x="42" y="426" on="0"/>
        <pt x="93" y="556" on="0"/>
        <pt x="183" y="656" on="0"/>
        <pt x="305" y="715" on="0"/>
        <pt x="376" y="715" on="1"/>
        <pt x="450" y="715" on="0"/>
        <pt x="573" y="652" on="0"/>
        <pt x="660" y="550" on="0"/>
        <pt x="708" y="421" on="0"/>
        <pt x="708" y="354" on="1"/>
        <pt x="708" y="283" on="0"/>
        <pt x="657" y="153" on="0"/>
        <pt x="568" y="54" on="0"/>
        <pt x="446" y="-5" on="0"/>
      </contour>
      <contour>
        <pt x="112" y="355" on="1"/>
        <pt x="112" y="297" on="0"/>
        <pt x="150" y="190" on="0"/>
        <pt x="220" y="107" on="0"/>
        <pt x="316" y="58" on="0"/>
        <pt x="375" y="58" on="1"/>
        <pt x="435" y="58" on="0"/>
        <pt x="533" y="110" on="0"/>
        <pt x="601" y="194" on="0"/>
        <pt x="638" y="300" on="0"/>
        <pt x="638" y="355" on="1"/>
        <pt x="638" y="413" on="0"/>
        <pt x="599" y="520" on="0"/>
        <pt x="529" y="602" on="0"/>
        <pt x="433" y="651" on="0"/>
        <pt x="375" y="651" on="1"/>
        <pt x="315" y="651" on="0"/>
        <pt x="217" y="600" on="0"/>
        <pt x="149" y="516" on="0"/>
        <pt x="112" y="410" on="0"/>
      </contour>
      <contour>
        <pt x="376" y="851" on="1"/>
        <pt x="397" y="851" on="0"/>
        <pt x="430" y="889" on="0"/>
        <pt x="433" y="917" on="1"/>
        <pt x="474" y="917" on="1"/>
        <pt x="474" y="896" on="0"/>
        <pt x="459" y="859" on="0"/>
        <pt x="432" y="832" on="0"/>
        <pt x="396" y="816" on="0"/>
        <pt x="376" y="816" on="1"/>
        <pt x="334" y="816" on="0"/>
        <pt x="278" y="874" on="0"/>
        <pt x="278" y="917" on="1"/>
        <pt x="320" y="917" on="1"/>
        <pt x="320" y="891" on="0"/>
        <pt x="354" y="851" on="0"/>
      </contour>
    </TTGlyph>
    <TTGlyph name="Ocircumflex" xMin="42" yMin="-5" xMax="708" yMax="917">
      <contour>
        <pt x="253" y="832" on="1"/>
        <pt x="351" y="917" on="1"/>
        <pt x="401" y="917" on="1"/>
        <pt x="500" y="832" on="1"/>
        <pt x="461" y="811" on="1"/>
        <pt x="376" y="874" on="1"/>
        <pt x="291" y="811" on="1"/>
      </contour>
      <contour>
        <pt x="375" y="-5" on="1"/>
        <pt x="301" y="-5" on="0"/>
        <pt x="178" y="56" on="0"/>
        <pt x="90" y="157" on="0"/>
        <pt x="42" y="287" on="0"/>
        <pt x="42" y="355" on="1"/>
        <pt x="42" y="426" on="0"/>
        <pt x="93" y="556" on="0"/>
        <pt x="183" y="656" on="0"/>
        <pt x="305" y="715" on="0"/>
        <pt x="376" y="715" on="1"/>
        <pt x="450" y="715" on="0"/>
        <pt x="573" y="652" on="0"/>
        <pt x="660" y="550" on="0"/>
        <pt x="708" y="421" on="0"/>
        <pt x="708" y="354" on="1"/>
        <pt x="708" y="283" on="0"/>
        <pt x="657" y="153" on="0"/>
        <pt x="568" y="54" on="0"/>
        <pt x="446" y="-5" on="0"/>
      </contour>
      <contour>
        <pt x="112" y="355" on="1"/>
        <pt x="112" y="297" on="0"/>
        <pt x="150" y="190" on="0"/>
        <pt x="220" y="107" on="0"/>
        <pt x="316" y="58" on="0"/>
        <pt x="375" y="58" on="1"/>
        <pt x="435" y="58" on="0"/>
        <pt x="533" y="110" on="0"/>
        <pt x="601" y="194" on="0"/>
        <pt x="638" y="300" on="0"/>
        <pt x="638" y="355" on="1"/>
        <pt x="638" y="413" on="0"/>
        <pt x="599" y="520" on="0"/>
        <pt x="529" y="602" on="0"/>
        <pt x="433" y="651" on="0"/>
        <pt x="375" y="651" on="1"/>
        <pt x="315" y="651" on="0"/>
        <pt x="217" y="600" on="0"/>
        <pt x="149" y="516" on="0"/>
        <pt x="112" y="410" on="0"/>
      </contour>
    </TTGlyph>
    <TTGlyph name="Odblgrave" xMin="42" yMin="-5" xMax="708" yMax="918">
      <contour>
        <pt x="345" y="918" on="1"/>
        <pt x="408" y="918" on="1"/>
        <pt x="465" y="825" on="1"/>
        <pt x="428" y="808" on="1"/>
      </contour>
      <contour>
        <pt x="219" y="918" on="1"/>
        <pt x="283" y="918" on="1"/>
        <pt x="340" y="825" on="1"/>
        <pt x="303" y="808" on="1"/>
      </contour>
      <contour>
        <pt x="375" y="-5" on="1"/>
        <pt x="301" y="-5" on="0"/>
        <pt x="178" y="56" on="0"/>
        <pt x="90" y="157" on="0"/>
        <pt x="42" y="287" on="0"/>
        <pt x="42" y="355" on="1"/>
        <pt x="42" y="426" on="0"/>
        <pt x="93" y="556" on="0"/>
        <pt x="183" y="656" on="0"/>
        <pt x="305" y="715" on="0"/>
        <pt x="376" y="715" on="1"/>
        <pt x="450" y="715" on="0"/>
        <pt x="573" y="652" on="0"/>
        <pt x="660" y="550" on="0"/>
        <pt x="708" y="421" on="0"/>
        <pt x="708" y="354" on="1"/>
        <pt x="708" y="283" on="0"/>
        <pt x="657" y="153" on="0"/>
        <pt x="568" y="54" on="0"/>
        <pt x="446" y="-5" on="0"/>
      </contour>
      <contour>
        <pt x="112" y="355" on="1"/>
        <pt x="112" y="297" on="0"/>
        <pt x="150" y="190" on="0"/>
        <pt x="220" y="107" on="0"/>
        <pt x="316" y="58" on="0"/>
        <pt x="375" y="58" on="1"/>
        <pt x="435" y="58" on="0"/>
        <pt x="533" y="110" on="0"/>
        <pt x="601" y="194" on="0"/>
        <pt x="638" y="300" on="0"/>
        <pt x="638" y="355" on="1"/>
        <pt x="638" y="413" on="0"/>
        <pt x="599" y="520" on="0"/>
        <pt x="529" y="602" on="0"/>
        <pt x="433" y="651" on="0"/>
        <pt x="375" y="651" on="1"/>
        <pt x="315" y="651" on="0"/>
        <pt x="217" y="600" on="0"/>
        <pt x="149" y="516" on="0"/>
        <pt x="112" y="410" on="0"/>
      </contour>
    </TTGlyph>
    <TTGlyph name="Odieresis" xMin="42" yMin="-5" xMax="708" yMax="914">
      <contour>
        <pt x="273" y="820" on="1"/>
        <pt x="273" y="914" on="1"/>
        <pt x="331" y="914" on="1"/>
        <pt x="331" y="820" on="1"/>
      </contour>
      <contour>
        <pt x="422" y="820" on="1"/>
        <pt x="422" y="914" on="1"/>
        <pt x="480" y="914" on="1"/>
        <pt x="480" y="820" on="1"/>
      </contour>
      <contour>
        <pt x="375" y="-5" on="1"/>
        <pt x="301" y="-5" on="0"/>
        <pt x="178" y="56" on="0"/>
        <pt x="90" y="157" on="0"/>
        <pt x="42" y="287" on="0"/>
        <pt x="42" y="355" on="1"/>
        <pt x="42" y="426" on="0"/>
        <pt x="93" y="556" on="0"/>
        <pt x="183" y="656" on="0"/>
        <pt x="305" y="715" on="0"/>
        <pt x="376" y="715" on="1"/>
        <pt x="450" y="715" on="0"/>
        <pt x="573" y="652" on="0"/>
        <pt x="660" y="550" on="0"/>
        <pt x="708" y="421" on="0"/>
        <pt x="708" y="354" on="1"/>
        <pt x="708" y="283" on="0"/>
        <pt x="657" y="153" on="0"/>
        <pt x="568" y="54" on="0"/>
        <pt x="446" y="-5" on="0"/>
      </contour>
      <contour>
        <pt x="112" y="355" on="1"/>
        <pt x="112" y="297" on="0"/>
        <pt x="150" y="190" on="0"/>
        <pt x="220" y="107" on="0"/>
        <pt x="316" y="58" on="0"/>
        <pt x="375" y="58" on="1"/>
        <pt x="435" y="58" on="0"/>
        <pt x="533" y="110" on="0"/>
        <pt x="601" y="194" on="0"/>
        <pt x="638" y="300" on="0"/>
        <pt x="638" y="355" on="1"/>
        <pt x="638" y="413" on="0"/>
        <pt x="599" y="520" on="0"/>
        <pt x="529" y="602" on="0"/>
        <pt x="433" y="651" on="0"/>
        <pt x="375" y="651" on="1"/>
        <pt x="315" y="651" on="0"/>
        <pt x="217" y="600" on="0"/>
        <pt x="149" y="516" on="0"/>
        <pt x="112" y="410" on="0"/>
      </contour>
    </TTGlyph>
    <TTGlyph name="Odotbelow" xMin="42" yMin="-166" xMax="708" yMax="715">
      <contour>
        <pt x="343" y="-166" on="1"/>
        <pt x="343" y="-68" on="1"/>
        <pt x="405" y="-68" on="1"/>
        <pt x="405" y="-166" on="1"/>
      </contour>
      <contour>
        <pt x="375" y="-5" on="1"/>
        <pt x="301" y="-5" on="0"/>
        <pt x="178" y="56" on="0"/>
        <pt x="90" y="157" on="0"/>
        <pt x="42" y="287" on="0"/>
        <pt x="42" y="355" on="1"/>
        <pt x="42" y="426" on="0"/>
        <pt x="93" y="556" on="0"/>
        <pt x="183" y="656" on="0"/>
        <pt x="305" y="715" on="0"/>
        <pt x="376" y="715" on="1"/>
        <pt x="450" y="715" on="0"/>
        <pt x="573" y="652" on="0"/>
        <pt x="660" y="550" on="0"/>
        <pt x="708" y="421" on="0"/>
        <pt x="708" y="354" on="1"/>
        <pt x="708" y="283" on="0"/>
        <pt x="657" y="153" on="0"/>
        <pt x="568" y="54" on="0"/>
        <pt x="446" y="-5" on="0"/>
      </contour>
      <contour>
        <pt x="112" y="355" on="1"/>
        <pt x="112" y="297" on="0"/>
        <pt x="150" y="190" on="0"/>
        <pt x="220" y="107" on="0"/>
        <pt x="316" y="58" on="0"/>
        <pt x="375" y="58" on="1"/>
        <pt x="435" y="58" on="0"/>
        <pt x="533" y="110" on="0"/>
        <pt x="601" y="194" on="0"/>
        <pt x="638" y="300" on="0"/>
        <pt x="638" y="355" on="1"/>
        <pt x="638" y="413" on="0"/>
        <pt x="599" y="520" on="0"/>
        <pt x="529" y="602" on="0"/>
        <pt x="433" y="651" on="0"/>
        <pt x="375" y="651" on="1"/>
        <pt x="315" y="651" on="0"/>
        <pt x="217" y="600" on="0"/>
        <pt x="149" y="516" on="0"/>
        <pt x="112" y="410" on="0"/>
      </contour>
    </TTGlyph>
    <TTGlyph name="Ograve" xMin="42" yMin="-5" xMax="708" yMax="917">
      <contour>
        <pt x="375" y="-5" on="1"/>
        <pt x="301" y="-5" on="0"/>
        <pt x="178" y="56" on="0"/>
        <pt x="90" y="157" on="0"/>
        <pt x="42" y="287" on="0"/>
        <pt x="42" y="355" on="1"/>
        <pt x="42" y="426" on="0"/>
        <pt x="93" y="556" on="0"/>
        <pt x="183" y="656" on="0"/>
        <pt x="305" y="715" on="0"/>
        <pt x="376" y="715" on="1"/>
        <pt x="450" y="715" on="0"/>
        <pt x="573" y="652" on="0"/>
        <pt x="660" y="550" on="0"/>
        <pt x="708" y="421" on="0"/>
        <pt x="708" y="354" on="1"/>
        <pt x="708" y="283" on="0"/>
        <pt x="657" y="153" on="0"/>
        <pt x="568" y="54" on="0"/>
        <pt x="446" y="-5" on="0"/>
      </contour>
      <contour>
        <pt x="112" y="355" on="1"/>
        <pt x="112" y="297" on="0"/>
        <pt x="150" y="190" on="0"/>
        <pt x="220" y="107" on="0"/>
        <pt x="316" y="58" on="0"/>
        <pt x="375" y="58" on="1"/>
        <pt x="435" y="58" on="0"/>
        <pt x="533" y="110" on="0"/>
        <pt x="601" y="194" on="0"/>
        <pt x="638" y="300" on="0"/>
        <pt x="638" y="355" on="1"/>
        <pt x="638" y="413" on="0"/>
        <pt x="599" y="520" on="0"/>
        <pt x="529" y="602" on="0"/>
        <pt x="433" y="651" on="0"/>
        <pt x="375" y="651" on="1"/>
        <pt x="315" y="651" on="0"/>
        <pt x="217" y="600" on="0"/>
        <pt x="149" y="516" on="0"/>
        <pt x="112" y="410" on="0"/>
      </contour>
      <contour>
        <pt x="283" y="917" on="1"/>
        <pt x="354" y="917" on="1"/>
        <pt x="414" y="824" on="1"/>
        <pt x="370" y="807" on="1"/>
      </contour>
    </TTGlyph>
    <TTGlyph name="Ohungarumlaut" xMin="42" yMin="-5" xMax="708" yMax="917">
      <contour>
        <pt x="313" y="807" on="1"/>
        <pt x="276" y="824" on="1"/>
        <pt x="333" y="917" on="1"/>
        <pt x="397" y="917" on="1"/>
      </contour>
      <contour>
        <pt x="439" y="807" on="1"/>
        <pt x="401" y="824" on="1"/>
        <pt x="458" y="917" on="1"/>
        <pt x="522" y="917" on="1"/>
      </contour>
      <contour>
        <pt x="375" y="-5" on="1"/>
        <pt x="301" y="-5" on="0"/>
        <pt x="178" y="56" on="0"/>
        <pt x="90" y="157" on="0"/>
        <pt x="42" y="287" on="0"/>
        <pt x="42" y="355" on="1"/>
        <pt x="42" y="426" on="0"/>
        <pt x="93" y="556" on="0"/>
        <pt x="183" y="656" on="0"/>
        <pt x="305" y="715" on="0"/>
        <pt x="376" y="715" on="1"/>
        <pt x="450" y="715" on="0"/>
        <pt x="573" y="652" on="0"/>
        <pt x="660" y="550" on="0"/>
        <pt x="708" y="421" on="0"/>
        <pt x="708" y="354" on="1"/>
        <pt x="708" y="283" on="0"/>
        <pt x="657" y="153" on="0"/>
        <pt x="568" y="54" on="0"/>
        <pt x="446" y="-5" on="0"/>
      </contour>
      <contour>
        <pt x="112" y="355" on="1"/>
        <pt x="112" y="297" on="0"/>
        <pt x="150" y="190" on="0"/>
        <pt x="220" y="107" on="0"/>
        <pt x="316" y="58" on="0"/>
        <pt x="375" y="58" on="1"/>
        <pt x="435" y="58" on="0"/>
        <pt x="533" y="110" on="0"/>
        <pt x="601" y="194" on="0"/>
        <pt x="638" y="300" on="0"/>
        <pt x="638" y="355" on="1"/>
        <pt x="638" y="413" on="0"/>
        <pt x="599" y="520" on="0"/>
        <pt x="529" y="602" on="0"/>
        <pt x="433" y="651" on="0"/>
        <pt x="375" y="651" on="1"/>
        <pt x="315" y="651" on="0"/>
        <pt x="217" y="600" on="0"/>
        <pt x="149" y="516" on="0"/>
        <pt x="112" y="410" on="0"/>
      </contour>
    </TTGlyph>
    <TTGlyph name="Oinvertedbreve" xMin="42" yMin="-5" xMax="708" yMax="917">
      <contour>
        <pt x="375" y="882" on="1"/>
        <pt x="353" y="882" on="0"/>
        <pt x="319" y="842" on="0"/>
        <pt x="319" y="816" on="1"/>
        <pt x="277" y="816" on="1"/>
        <pt x="277" y="859" on="0"/>
        <pt x="333" y="917" on="0"/>
        <pt x="375" y="917" on="1"/>
        <pt x="395" y="917" on="0"/>
        <pt x="431" y="901" on="0"/>
        <pt x="458" y="874" on="0"/>
        <pt x="473" y="837" on="0"/>
        <pt x="473" y="816" on="1"/>
        <pt x="432" y="816" on="1"/>
        <pt x="429" y="844" on="0"/>
        <pt x="396" y="882" on="0"/>
      </contour>
      <contour>
        <pt x="375" y="-5" on="1"/>
        <pt x="301" y="-5" on="0"/>
        <pt x="178" y="56" on="0"/>
        <pt x="90" y="157" on="0"/>
        <pt x="42" y="287" on="0"/>
        <pt x="42" y="355" on="1"/>
        <pt x="42" y="426" on="0"/>
        <pt x="93" y="556" on="0"/>
        <pt x="183" y="656" on="0"/>
        <pt x="305" y="715" on="0"/>
        <pt x="376" y="715" on="1"/>
        <pt x="450" y="715" on="0"/>
        <pt x="573" y="652" on="0"/>
        <pt x="660" y="550" on="0"/>
        <pt x="708" y="421" on="0"/>
        <pt x="708" y="354" on="1"/>
        <pt x="708" y="283" on="0"/>
        <pt x="657" y="153" on="0"/>
        <pt x="568" y="54" on="0"/>
        <pt x="446" y="-5" on="0"/>
      </contour>
      <contour>
        <pt x="112" y="355" on="1"/>
        <pt x="112" y="297" on="0"/>
        <pt x="150" y="190" on="0"/>
        <pt x="220" y="107" on="0"/>
        <pt x="316" y="58" on="0"/>
        <pt x="375" y="58" on="1"/>
        <pt x="435" y="58" on="0"/>
        <pt x="533" y="110" on="0"/>
        <pt x="601" y="194" on="0"/>
        <pt x="638" y="300" on="0"/>
        <pt x="638" y="355" on="1"/>
        <pt x="638" y="413" on="0"/>
        <pt x="599" y="520" on="0"/>
        <pt x="529" y="602" on="0"/>
        <pt x="433" y="651" on="0"/>
        <pt x="375" y="651" on="1"/>
        <pt x="315" y="651" on="0"/>
        <pt x="217" y="600" on="0"/>
        <pt x="149" y="516" on="0"/>
        <pt x="112" y="410" on="0"/>
      </contour>
    </TTGlyph>
    <TTGlyph name="Omacron" xMin="42" yMin="-5" xMax="708" yMax="897">
      <contour>
        <pt x="232" y="850" on="1"/>
        <pt x="232" y="897" on="1"/>
        <pt x="521" y="897" on="1"/>
        <pt x="521" y="850" on="1"/>
      </contour>
      <contour>
        <pt x="375" y="-5" on="1"/>
        <pt x="301" y="-5" on="0"/>
        <pt x="178" y="56" on="0"/>
        <pt x="90" y="157" on="0"/>
        <pt x="42" y="287" on="0"/>
        <pt x="42" y="355" on="1"/>
        <pt x="42" y="426" on="0"/>
        <pt x="93" y="556" on="0"/>
        <pt x="183" y="656" on="0"/>
        <pt x="305" y="715" on="0"/>
        <pt x="376" y="715" on="1"/>
        <pt x="450" y="715" on="0"/>
        <pt x="573" y="652" on="0"/>
        <pt x="660" y="550" on="0"/>
        <pt x="708" y="421" on="0"/>
        <pt x="708" y="354" on="1"/>
        <pt x="708" y="283" on="0"/>
        <pt x="657" y="153" on="0"/>
        <pt x="568" y="54" on="0"/>
        <pt x="446" y="-5" on="0"/>
      </contour>
      <contour>
        <pt x="112" y="355" on="1"/>
        <pt x="112" y="297" on="0"/>
        <pt x="150" y="190" on="0"/>
        <pt x="220" y="107" on="0"/>
        <pt x="316" y="58" on="0"/>
        <pt x="375" y="58" on="1"/>
        <pt x="435" y="58" on="0"/>
        <pt x="533" y="110" on="0"/>
        <pt x="601" y="194" on="0"/>
        <pt x="638" y="300" on="0"/>
        <pt x="638" y="355" on="1"/>
        <pt x="638" y="413" on="0"/>
        <pt x="599" y="520" on="0"/>
        <pt x="529" y="602" on="0"/>
        <pt x="433" y="651" on="0"/>
        <pt x="375" y="651" on="1"/>
        <pt x="315" y="651" on="0"/>
        <pt x="217" y="600" on="0"/>
        <pt x="149" y="516" on="0"/>
        <pt x="112" y="410" on="0"/>
      </contour>
    </TTGlyph>
    <TTGlyph name="Omega" xMin="45" yMin="0" xMax="717" yMax="715">
      <contour>
        <pt x="45" y="62" on="1"/>
        <pt x="236" y="62" on="1"/>
        <pt x="151" y="107" on="0"/>
        <pt x="54" y="267" on="0"/>
        <pt x="54" y="365" on="1"/>
        <pt x="54" y="434" on="0"/>
        <pt x="104" y="561" on="0"/>
        <pt x="191" y="657" on="0"/>
        <pt x="311" y="715" on="0"/>
        <pt x="381" y="715" on="1"/>
        <pt x="451" y="715" on="0"/>
        <pt x="572" y="657" on="0"/>
        <pt x="659" y="561" on="0"/>
        <pt x="709" y="434" on="0"/>
        <pt x="709" y="365" on="1"/>
        <pt x="709" y="267" on="0"/>
        <pt x="612" y="107" on="0"/>
        <pt x="527" y="62" on="1"/>
        <pt x="717" y="62" on="1"/>
        <pt x="717" y="0" on="1"/>
        <pt x="428" y="0" on="1"/>
        <pt x="428" y="62" on="1"/>
        <pt x="477" y="76" on="0"/>
        <pt x="556" y="138" on="0"/>
        <pt x="610" y="221" on="0"/>
        <pt x="639" y="317" on="0"/>
        <pt x="639" y="365" on="1"/>
        <pt x="639" y="418" on="0"/>
        <pt x="603" y="521" on="0"/>
        <pt x="536" y="602" on="0"/>
        <pt x="441" y="651" on="0"/>
        <pt x="381" y="651" on="1"/>
        <pt x="322" y="651" on="0"/>
        <pt x="227" y="602" on="0"/>
        <pt x="160" y="521" on="0"/>
        <pt x="124" y="418" on="0"/>
        <pt x="124" y="365" on="1"/>
        <pt x="124" y="317" on="0"/>
        <pt x="153" y="221" on="0"/>
        <pt x="207" y="138" on="0"/>
        <pt x="285" y="76" on="0"/>
        <pt x="334" y="62" on="1"/>
        <pt x="334" y="0" on="1"/>
        <pt x="45" y="0" on="1"/>
      </contour>
    </TTGlyph>
    <TTGlyph name="Oogonek" xMin="42" yMin="-178" xMax="708" yMax="715">
      <contour>
        <pt x="348" y="-178" on="1"/>
        <pt x="311" y="-170" on="0"/>
        <pt x="273" y="-131" on="0"/>
        <pt x="273" y="-105" on="1"/>
        <pt x="273" y="-80" on="0"/>
        <pt x="309" y="-30" on="0"/>
        <pt x="347" y="-3" on="1"/>
        <pt x="278" y="3" on="0"/>
        <pt x="166" y="67" on="0"/>
        <pt x="86" y="166" on="0"/>
        <pt x="42" y="290" on="0"/>
        <pt x="42" y="355" on="1"/>
        <pt x="42" y="426" on="0"/>
        <pt x="93" y="556" on="0"/>
        <pt x="183" y="656" on="0"/>
        <pt x="305" y="715" on="0"/>
        <pt x="376" y="715" on="1"/>
        <pt x="450" y="715" on="0"/>
        <pt x="573" y="652" on="0"/>
        <pt x="660" y="550" on="0"/>
        <pt x="708" y="421" on="0"/>
        <pt x="708" y="354" on="1"/>
        <pt x="708" y="286" on="0"/>
        <pt x="661" y="160" on="0"/>
        <pt x="577" y="62" on="0"/>
        <pt x="462" y="0" on="0"/>
        <pt x="395" y="-4" on="1"/>
        <pt x="351" y="-31" on="0"/>
        <pt x="315" y="-74" on="0"/>
        <pt x="315" y="-96" on="1"/>
        <pt x="315" y="-133" on="0"/>
        <pt x="367" y="-140" on="1"/>
      </contour>
      <contour>
        <pt x="112" y="355" on="1"/>
        <pt x="112" y="297" on="0"/>
        <pt x="150" y="190" on="0"/>
        <pt x="220" y="107" on="0"/>
        <pt x="316" y="58" on="0"/>
        <pt x="375" y="58" on="1"/>
        <pt x="435" y="58" on="0"/>
        <pt x="533" y="110" on="0"/>
        <pt x="601" y="194" on="0"/>
        <pt x="638" y="300" on="0"/>
        <pt x="638" y="355" on="1"/>
        <pt x="638" y="413" on="0"/>
        <pt x="599" y="520" on="0"/>
        <pt x="529" y="602" on="0"/>
        <pt x="433" y="651" on="0"/>
        <pt x="375" y="651" on="1"/>
        <pt x="315" y="651" on="0"/>
        <pt x="217" y="600" on="0"/>
        <pt x="149" y="516" on="0"/>
        <pt x="112" y="410" on="0"/>
      </contour>
    </TTGlyph>
    <TTGlyph name="Oslash" xMin="42" yMin="-5" xMax="708" yMax="715">
      <contour>
        <pt x="650" y="710" on="1"/>
        <pt x="593" y="625" on="1"/>
        <pt x="647" y="572" on="0"/>
        <pt x="708" y="429" on="0"/>
        <pt x="708" y="354" on="1"/>
        <pt x="708" y="283" on="0"/>
        <pt x="657" y="153" on="0"/>
        <pt x="568" y="54" on="0"/>
        <pt x="446" y="-5" on="0"/>
        <pt x="375" y="-5" on="1"/>
        <pt x="327" y="-5" on="0"/>
        <pt x="243" y="21" on="0"/>
        <pt x="207" y="44" on="1"/>
        <pt x="178" y="0" on="1"/>
        <pt x="101" y="0" on="1"/>
        <pt x="156" y="83" on="1"/>
        <pt x="102" y="135" on="0"/>
        <pt x="42" y="278" on="0"/>
        <pt x="42" y="355" on="1"/>
        <pt x="42" y="426" on="0"/>
        <pt x="93" y="556" on="0"/>
        <pt x="183" y="656" on="0"/>
        <pt x="305" y="715" on="0"/>
        <pt x="376" y="715" on="1"/>
        <pt x="424" y="715" on="0"/>
        <pt x="507" y="688" on="0"/>
        <pt x="543" y="665" on="1"/>
        <pt x="573" y="710" on="1"/>
      </contour>
      <contour>
        <pt x="112" y="355" on="1"/>
        <pt x="112" y="293" on="0"/>
        <pt x="155" y="181" on="0"/>
        <pt x="193" y="139" on="1"/>
        <pt x="507" y="611" on="1"/>
        <pt x="478" y="630" on="0"/>
        <pt x="412" y="651" on="0"/>
        <pt x="375" y="651" on="1"/>
        <pt x="315" y="651" on="0"/>
        <pt x="217" y="600" on="0"/>
        <pt x="149" y="516" on="0"/>
        <pt x="112" y="410" on="0"/>
      </contour>
      <contour>
        <pt x="638" y="355" on="1"/>
        <pt x="638" y="416" on="0"/>
        <pt x="594" y="527" on="0"/>
        <pt x="556" y="569" on="1"/>
        <pt x="242" y="97" on="1"/>
        <pt x="301" y="58" on="0"/>
        <pt x="375" y="58" on="1"/>
        <pt x="435" y="58" on="0"/>
        <pt x="533" y="110" on="0"/>
        <pt x="601" y="194" on="0"/>
        <pt x="638" y="300" on="0"/>
      </contour>
    </TTGlyph>
    <TTGlyph name="Oslashacute" xMin="42" yMin="-5" xMax="708" yMax="917">
      <contour>
        <pt x="650" y="710" on="1"/>
        <pt x="593" y="625" on="1"/>
        <pt x="647" y="572" on="0"/>
        <pt x="708" y="429" on="0"/>
        <pt x="708" y="354" on="1"/>
        <pt x="708" y="283" on="0"/>
        <pt x="657" y="153" on="0"/>
        <pt x="568" y="54" on="0"/>
        <pt x="446" y="-5" on="0"/>
        <pt x="375" y="-5" on="1"/>
        <pt x="327" y="-5" on="0"/>
        <pt x="243" y="21" on="0"/>
        <pt x="207" y="44" on="1"/>
        <pt x="178" y="0" on="1"/>
        <pt x="101" y="0" on="1"/>
        <pt x="156" y="83" on="1"/>
        <pt x="102" y="135" on="0"/>
        <pt x="42" y="278" on="0"/>
        <pt x="42" y="355" on="1"/>
        <pt x="42" y="426" on="0"/>
        <pt x="93" y="556" on="0"/>
        <pt x="183" y="656" on="0"/>
        <pt x="305" y="715" on="0"/>
        <pt x="376" y="715" on="1"/>
        <pt x="424" y="715" on="0"/>
        <pt x="507" y="688" on="0"/>
        <pt x="543" y="665" on="1"/>
        <pt x="573" y="710" on="1"/>
      </contour>
      <contour>
        <pt x="112" y="355" on="1"/>
        <pt x="112" y="293" on="0"/>
        <pt x="155" y="181" on="0"/>
        <pt x="193" y="139" on="1"/>
        <pt x="507" y="611" on="1"/>
        <pt x="478" y="630" on="0"/>
        <pt x="412" y="651" on="0"/>
        <pt x="375" y="651" on="1"/>
        <pt x="315" y="651" on="0"/>
        <pt x="217" y="600" on="0"/>
        <pt x="149" y="516" on="0"/>
        <pt x="112" y="410" on="0"/>
      </contour>
      <contour>
        <pt x="638" y="355" on="1"/>
        <pt x="638" y="416" on="0"/>
        <pt x="594" y="527" on="0"/>
        <pt x="556" y="569" on="1"/>
        <pt x="242" y="97" on="1"/>
        <pt x="301" y="58" on="0"/>
        <pt x="375" y="58" on="1"/>
        <pt x="435" y="58" on="0"/>
        <pt x="533" y="110" on="0"/>
        <pt x="601" y="194" on="0"/>
        <pt x="638" y="300" on="0"/>
      </contour>
      <contour>
        <pt x="382" y="807" on="1"/>
        <pt x="337" y="824" on="1"/>
        <pt x="396" y="917" on="1"/>
        <pt x="468" y="917" on="1"/>
      </contour>
    </TTGlyph>
    <TTGlyph name="Otilde" xMin="42" yMin="-5" xMax="708" yMax="917">
      <contour>
        <pt x="375" y="-5" on="1"/>
        <pt x="301" y="-5" on="0"/>
        <pt x="178" y="56" on="0"/>
        <pt x="90" y="157" on="0"/>
        <pt x="42" y="287" on="0"/>
        <pt x="42" y="355" on="1"/>
        <pt x="42" y="426" on="0"/>
        <pt x="93" y="556" on="0"/>
        <pt x="183" y="656" on="0"/>
        <pt x="305" y="715" on="0"/>
        <pt x="376" y="715" on="1"/>
        <pt x="450" y="715" on="0"/>
        <pt x="573" y="652" on="0"/>
        <pt x="660" y="550" on="0"/>
        <pt x="708" y="421" on="0"/>
        <pt x="708" y="354" on="1"/>
        <pt x="708" y="283" on="0"/>
        <pt x="657" y="153" on="0"/>
        <pt x="568" y="54" on="0"/>
        <pt x="446" y="-5" on="0"/>
      </contour>
      <contour>
        <pt x="112" y="355" on="1"/>
        <pt x="112" y="297" on="0"/>
        <pt x="150" y="190" on="0"/>
        <pt x="220" y="107" on="0"/>
        <pt x="316" y="58" on="0"/>
        <pt x="375" y="58" on="1"/>
        <pt x="435" y="58" on="0"/>
        <pt x="533" y="110" on="0"/>
        <pt x="601" y="194" on="0"/>
        <pt x="638" y="300" on="0"/>
        <pt x="638" y="355" on="1"/>
        <pt x="638" y="413" on="0"/>
        <pt x="599" y="520" on="0"/>
        <pt x="529" y="602" on="0"/>
        <pt x="433" y="651" on="0"/>
        <pt x="375" y="651" on="1"/>
        <pt x="315" y="651" on="0"/>
        <pt x="217" y="600" on="0"/>
        <pt x="149" y="516" on="0"/>
        <pt x="112" y="410" on="0"/>
      </contour>
      <contour>
        <pt x="438" y="825" on="1"/>
        <pt x="415" y="825" on="0"/>
        <pt x="382" y="837" on="0"/>
        <pt x="353" y="852" on="0"/>
        <pt x="326" y="865" on="0"/>
        <pt x="310" y="865" on="1"/>
        <pt x="293" y="865" on="0"/>
        <pt x="274" y="851" on="0"/>
        <pt x="263" y="834" on="0"/>
        <pt x="260" y="819" on="0"/>
        <pt x="260" y="817" on="1"/>
        <pt x="218" y="817" on="1"/>
        <pt x="218" y="822" on="0"/>
        <pt x="225" y="853" on="0"/>
        <pt x="245" y="885" on="0"/>
        <pt x="281" y="910" on="0"/>
        <pt x="309" y="910" on="1"/>
        <pt x="330" y="910" on="0"/>
        <pt x="361" y="897" on="0"/>
        <pt x="389" y="881" on="0"/>
        <pt x="418" y="868" on="0"/>
        <pt x="437" y="868" on="1"/>
        <pt x="456" y="868" on="0"/>
        <pt x="479" y="882" on="0"/>
        <pt x="491" y="900" on="0"/>
        <pt x="494" y="915" on="0"/>
        <pt x="494" y="917" on="1"/>
        <pt x="536" y="917" on="1"/>
        <pt x="536" y="912" on="0"/>
        <pt x="528" y="882" on="0"/>
        <pt x="507" y="850" on="0"/>
        <pt x="468" y="825" on="0"/>
      </contour>
    </TTGlyph>
    <TTGlyph name="P" xMin="89" yMin="0" xMax="594" yMax="710">
      <contour>
        <pt x="89" y="0" on="1"/>
        <pt x="89" y="710" on="1"/>
        <pt x="383" y="710" on="1"/>
        <pt x="429" y="710" on="0"/>
        <pt x="506" y="671" on="0"/>
        <pt x="562" y="608" on="0"/>
        <pt x="594" y="528" on="0"/>
        <pt x="594" y="487" on="1"/>
        <pt x="594" y="443" on="0"/>
        <pt x="564" y="362" on="0"/>
        <pt x="510" y="300" on="0"/>
        <pt x="435" y="262" on="0"/>
        <pt x="389" y="262" on="1"/>
        <pt x="159" y="262" on="1"/>
        <pt x="159" y="0" on="1"/>
      </contour>
      <contour>
        <pt x="159" y="324" on="1"/>
        <pt x="386" y="324" on="1"/>
        <pt x="417" y="324" on="0"/>
        <pt x="468" y="351" on="0"/>
        <pt x="504" y="396" on="0"/>
        <pt x="524" y="455" on="0"/>
        <pt x="524" y="487" on="1"/>
        <pt x="524" y="520" on="0"/>
        <pt x="501" y="579" on="0"/>
        <pt x="462" y="623" on="0"/>
        <pt x="409" y="648" on="0"/>
        <pt x="380" y="648" on="1"/>
        <pt x="159" y="648" on="1"/>
      </contour>
    </TTGlyph>
    <TTGlyph name="P.sc" xMin="84" yMin="0" xMax="510" yMax="548">
      <contour>
        <pt x="84" y="0" on="1"/>
        <pt x="84" y="548" on="1"/>
        <pt x="331" y="548" on="1"/>
        <pt x="370" y="548" on="0"/>
        <pt x="436" y="518" on="0"/>
        <pt x="484" y="468" on="0"/>
        <pt x="510" y="406" on="0"/>
        <pt x="510" y="374" on="1"/>
        <pt x="510" y="340" on="0"/>
        <pt x="485" y="277" on="0"/>
        <pt x="440" y="228" on="0"/>
        <pt x="376" y="199" on="0"/>
        <pt x="337" y="199" on="1"/>
        <pt x="146" y="199" on="1"/>
        <pt x="146" y="0" on="1"/>
      </contour>
      <contour>
        <pt x="146" y="255" on="1"/>
        <pt x="334" y="255" on="1"/>
        <pt x="360" y="255" on="0"/>
        <pt x="402" y="274" on="0"/>
        <pt x="431" y="306" on="0"/>
        <pt x="447" y="350" on="0"/>
        <pt x="447" y="374" on="1"/>
        <pt x="447" y="398" on="0"/>
        <pt x="428" y="441" on="0"/>
        <pt x="396" y="473" on="0"/>
        <pt x="352" y="492" on="0"/>
        <pt x="328" y="492" on="1"/>
        <pt x="146" y="492" on="1"/>
      </contour>
    </TTGlyph>
    <TTGlyph name="Q" xMin="42" yMin="-5" xMax="708" yMax="715">
      <contour>
        <pt x="569" y="63" on="1"/>
        <pt x="528" y="31" on="0"/>
        <pt x="431" y="-5" on="0"/>
        <pt x="375" y="-5" on="1"/>
        <pt x="301" y="-5" on="0"/>
        <pt x="178" y="57" on="0"/>
        <pt x="90" y="157" on="0"/>
        <pt x="42" y="287" on="0"/>
        <pt x="42" y="355" on="1"/>
        <pt x="42" y="426" on="0"/>
        <pt x="93" y="556" on="0"/>
        <pt x="183" y="656" on="0"/>
        <pt x="305" y="715" on="0"/>
        <pt x="376" y="715" on="1"/>
        <pt x="450" y="715" on="0"/>
        <pt x="573" y="652" on="0"/>
        <pt x="660" y="550" on="0"/>
        <pt x="708" y="421" on="0"/>
        <pt x="708" y="354" on="1"/>
        <pt x="708" y="281" on="0"/>
        <pt x="655" y="149" on="0"/>
        <pt x="608" y="99" on="1"/>
        <pt x="692" y="0" on="1"/>
        <pt x="623" y="0" on="1"/>
      </contour>
      <contour>
        <pt x="375" y="58" on="1"/>
        <pt x="420" y="58" on="0"/>
        <pt x="496" y="87" on="0"/>
        <pt x="528" y="112" on="1"/>
        <pt x="439" y="218" on="1"/>
        <pt x="508" y="218" on="1"/>
        <pt x="565" y="150" on="1"/>
        <pt x="600" y="192" on="0"/>
        <pt x="638" y="299" on="0"/>
        <pt x="638" y="355" on="1"/>
        <pt x="638" y="413" on="0"/>
        <pt x="599" y="520" on="0"/>
        <pt x="529" y="602" on="0"/>
        <pt x="433" y="652" on="0"/>
        <pt x="375" y="652" on="1"/>
        <pt x="315" y="652" on="0"/>
        <pt x="217" y="601" on="0"/>
        <pt x="149" y="517" on="0"/>
        <pt x="112" y="410" on="0"/>
        <pt x="112" y="355" on="1"/>
        <pt x="112" y="297" on="0"/>
        <pt x="150" y="190" on="0"/>
        <pt x="220" y="107" on="0"/>
        <pt x="316" y="58" on="0"/>
      </contour>
    </TTGlyph>
    <TTGlyph name="Q.sc" xMin="44" yMin="-4" xMax="605" yMax="551">
      <contour>
        <pt x="488" y="48" on="1"/>
        <pt x="454" y="24" on="0"/>
        <pt x="372" y="-4" on="0"/>
        <pt x="325" y="-4" on="1"/>
        <pt x="262" y="-4" on="0"/>
        <pt x="158" y="43" on="0"/>
        <pt x="85" y="121" on="0"/>
        <pt x="44" y="221" on="0"/>
        <pt x="44" y="274" on="1"/>
        <pt x="44" y="328" on="0"/>
        <pt x="87" y="429" on="0"/>
        <pt x="162" y="505" on="0"/>
        <pt x="265" y="551" on="0"/>
        <pt x="325" y="551" on="1"/>
        <pt x="388" y="551" on="0"/>
        <pt x="491" y="503" on="0"/>
        <pt x="565" y="424" on="0"/>
        <pt x="605" y="324" on="0"/>
        <pt x="605" y="273" on="1"/>
        <pt x="605" y="217" on="0"/>
        <pt x="561" y="116" on="0"/>
        <pt x="523" y="78" on="1"/>
        <pt x="594" y="0" on="1"/>
        <pt x="532" y="0" on="1"/>
      </contour>
      <contour>
        <pt x="325" y="53" on="1"/>
        <pt x="361" y="53" on="0"/>
        <pt x="423" y="74" on="0"/>
        <pt x="449" y="92" on="1"/>
        <pt x="374" y="175" on="1"/>
        <pt x="436" y="175" on="1"/>
        <pt x="483" y="122" on="1"/>
        <pt x="512" y="154" on="0"/>
        <pt x="542" y="232" on="0"/>
        <pt x="542" y="274" on="1"/>
        <pt x="542" y="317" on="0"/>
        <pt x="510" y="397" on="0"/>
        <pt x="452" y="458" on="0"/>
        <pt x="373" y="495" on="0"/>
        <pt x="325" y="495" on="1"/>
        <pt x="275" y="495" on="0"/>
        <pt x="195" y="456" on="0"/>
        <pt x="138" y="394" on="0"/>
        <pt x="107" y="314" on="0"/>
        <pt x="107" y="274" on="1"/>
        <pt x="107" y="231" on="0"/>
        <pt x="139" y="151" on="0"/>
        <pt x="196" y="90" on="0"/>
        <pt x="276" y="53" on="0"/>
      </contour>
    </TTGlyph>
    <TTGlyph name="R" xMin="89" yMin="0" xMax="615" yMax="710">
      <contour>
        <pt x="89" y="0" on="1"/>
        <pt x="89" y="710" on="1"/>
        <pt x="389" y="710" on="1"/>
        <pt x="435" y="710" on="0"/>
        <pt x="512" y="671" on="0"/>
        <pt x="568" y="608" on="0"/>
        <pt x="599" y="528" on="0"/>
        <pt x="599" y="487" on="1"/>
        <pt x="599" y="448" on="0"/>
        <pt x="576" y="377" on="0"/>
        <pt x="535" y="320" on="0"/>
        <pt x="477" y="281" on="0"/>
        <pt x="441" y="274" on="1"/>
        <pt x="615" y="0" on="1"/>
        <pt x="536" y="0" on="1"/>
        <pt x="369" y="262" on="1"/>
        <pt x="159" y="262" on="1"/>
        <pt x="159" y="0" on="1"/>
      </contour>
      <contour>
        <pt x="159" y="324" on="1"/>
        <pt x="391" y="324" on="1"/>
        <pt x="422" y="324" on="0"/>
        <pt x="473" y="351" on="0"/>
        <pt x="509" y="397" on="0"/>
        <pt x="529" y="455" on="0"/>
        <pt x="529" y="487" on="1"/>
        <pt x="529" y="519" on="0"/>
        <pt x="506" y="578" on="0"/>
        <pt x="467" y="622" on="0"/>
        <pt x="414" y="648" on="0"/>
        <pt x="385" y="648" on="1"/>
        <pt x="159" y="648" on="1"/>
      </contour>
    </TTGlyph>
    <TTGlyph name="R.sc" xMin="84" yMin="0" xMax="530" yMax="548">
      <contour>
        <pt x="84" y="0" on="1"/>
        <pt x="84" y="548" on="1"/>
        <pt x="337" y="548" on="1"/>
        <pt x="376" y="548" on="0"/>
        <pt x="442" y="518" on="0"/>
        <pt x="489" y="468" on="0"/>
        <pt x="516" y="406" on="0"/>
        <pt x="516" y="374" on="1"/>
        <pt x="516" y="345" on="0"/>
        <pt x="497" y="291" on="0"/>
        <pt x="462" y="248" on="0"/>
        <pt x="414" y="217" on="0"/>
        <pt x="384" y="211" on="1"/>
        <pt x="530" y="0" on="1"/>
        <pt x="458" y="0" on="1"/>
        <pt x="320" y="199" on="1"/>
        <pt x="146" y="199" on="1"/>
        <pt x="146" y="0" on="1"/>
      </contour>
      <contour>
        <pt x="146" y="255" on="1"/>
        <pt x="339" y="255" on="1"/>
        <pt x="364" y="255" on="0"/>
        <pt x="406" y="274" on="0"/>
        <pt x="436" y="307" on="0"/>
        <pt x="452" y="350" on="0"/>
        <pt x="452" y="374" on="1"/>
        <pt x="452" y="398" on="0"/>
        <pt x="433" y="440" on="0"/>
        <pt x="401" y="473" on="0"/>
        <pt x="358" y="492" on="0"/>
        <pt x="333" y="492" on="1"/>
        <pt x="146" y="492" on="1"/>
      </contour>
    </TTGlyph>
    <TTGlyph name="Racute" xMin="89" yMin="0" xMax="615" yMax="919">
      <contour>
        <pt x="324" y="809" on="1"/>
        <pt x="279" y="826" on="1"/>
        <pt x="338" y="919" on="1"/>
        <pt x="410" y="919" on="1"/>
      </contour>
      <contour>
        <pt x="89" y="0" on="1"/>
        <pt x="89" y="710" on="1"/>
        <pt x="389" y="710" on="1"/>
        <pt x="435" y="710" on="0"/>
        <pt x="512" y="671" on="0"/>
        <pt x="568" y="608" on="0"/>
        <pt x="599" y="528" on="0"/>
        <pt x="599" y="487" on="1"/>
        <pt x="599" y="448" on="0"/>
        <pt x="576" y="377" on="0"/>
        <pt x="535" y="320" on="0"/>
        <pt x="477" y="281" on="0"/>
        <pt x="441" y="274" on="1"/>
        <pt x="615" y="0" on="1"/>
        <pt x="536" y="0" on="1"/>
        <pt x="369" y="262" on="1"/>
        <pt x="159" y="262" on="1"/>
        <pt x="159" y="0" on="1"/>
      </contour>
      <contour>
        <pt x="159" y="324" on="1"/>
        <pt x="391" y="324" on="1"/>
        <pt x="422" y="324" on="0"/>
        <pt x="473" y="351" on="0"/>
        <pt x="509" y="397" on="0"/>
        <pt x="529" y="455" on="0"/>
        <pt x="529" y="487" on="1"/>
        <pt x="529" y="519" on="0"/>
        <pt x="506" y="578" on="0"/>
        <pt x="467" y="622" on="0"/>
        <pt x="414" y="648" on="0"/>
        <pt x="385" y="648" on="1"/>
        <pt x="159" y="648" on="1"/>
      </contour>
    </TTGlyph>
    <TTGlyph name="Rcaron" xMin="89" yMin="0" xMax="615" yMax="919">
      <contour>
        <pt x="232" y="919" on="1"/>
        <pt x="317" y="856" on="1"/>
        <pt x="402" y="919" on="1"/>
        <pt x="441" y="899" on="1"/>
        <pt x="342" y="813" on="1"/>
        <pt x="292" y="813" on="1"/>
        <pt x="194" y="899" on="1"/>
      </contour>
      <contour>
        <pt x="89" y="0" on="1"/>
        <pt x="89" y="710" on="1"/>
        <pt x="389" y="710" on="1"/>
        <pt x="435" y="710" on="0"/>
        <pt x="512" y="671" on="0"/>
        <pt x="568" y="608" on="0"/>
        <pt x="599" y="528" on="0"/>
        <pt x="599" y="487" on="1"/>
        <pt x="599" y="448" on="0"/>
        <pt x="576" y="377" on="0"/>
        <pt x="535" y="320" on="0"/>
        <pt x="477" y="281" on="0"/>
        <pt x="441" y="274" on="1"/>
        <pt x="615" y="0" on="1"/>
        <pt x="536" y="0" on="1"/>
        <pt x="369" y="262" on="1"/>
        <pt x="159" y="262" on="1"/>
        <pt x="159" y="0" on="1"/>
      </contour>
      <contour>
        <pt x="159" y="324" on="1"/>
        <pt x="391" y="324" on="1"/>
        <pt x="422" y="324" on="0"/>
        <pt x="473" y="351" on="0"/>
        <pt x="509" y="397" on="0"/>
        <pt x="529" y="455" on="0"/>
        <pt x="529" y="487" on="1"/>
        <pt x="529" y="519" on="0"/>
        <pt x="506" y="578" on="0"/>
        <pt x="467" y="622" on="0"/>
        <pt x="414" y="648" on="0"/>
        <pt x="385" y="648" on="1"/>
        <pt x="159" y="648" on="1"/>
      </contour>
    </TTGlyph>
    <TTGlyph name="Rcommaaccent" xMin="89" yMin="-199" xMax="615" yMax="710">
      <contour>
        <pt x="296" y="-199" on="1"/>
        <pt x="313" y="-125" on="1"/>
        <pt x="293" y="-125" on="1"/>
        <pt x="293" y="-49" on="1"/>
        <pt x="356" y="-49" on="1"/>
        <pt x="356" y="-125" on="1"/>
        <pt x="331" y="-199" on="1"/>
      </contour>
      <contour>
        <pt x="89" y="0" on="1"/>
        <pt x="89" y="710" on="1"/>
        <pt x="389" y="710" on="1"/>
        <pt x="435" y="710" on="0"/>
        <pt x="512" y="671" on="0"/>
        <pt x="568" y="608" on="0"/>
        <pt x="599" y="528" on="0"/>
        <pt x="599" y="487" on="1"/>
        <pt x="599" y="448" on="0"/>
        <pt x="576" y="377" on="0"/>
        <pt x="535" y="320" on="0"/>
        <pt x="477" y="281" on="0"/>
        <pt x="441" y="274" on="1"/>
        <pt x="615" y="0" on="1"/>
        <pt x="536" y="0" on="1"/>
        <pt x="369" y="262" on="1"/>
        <pt x="159" y="262" on="1"/>
        <pt x="159" y="0" on="1"/>
      </contour>
      <contour>
        <pt x="159" y="324" on="1"/>
        <pt x="391" y="324" on="1"/>
        <pt x="422" y="324" on="0"/>
        <pt x="473" y="351" on="0"/>
        <pt x="509" y="397" on="0"/>
        <pt x="529" y="455" on="0"/>
        <pt x="529" y="487" on="1"/>
        <pt x="529" y="519" on="0"/>
        <pt x="506" y="578" on="0"/>
        <pt x="467" y="622" on="0"/>
        <pt x="414" y="648" on="0"/>
        <pt x="385" y="648" on="1"/>
        <pt x="159" y="648" on="1"/>
      </contour>
    </TTGlyph>
    <TTGlyph name="Rdblgrave" xMin="89" yMin="0" xMax="615" yMax="918">
      <contour>
        <pt x="295" y="918" on="1"/>
        <pt x="358" y="918" on="1"/>
        <pt x="415" y="825" on="1"/>
        <pt x="378" y="808" on="1"/>
      </contour>
      <contour>
        <pt x="169" y="918" on="1"/>
        <pt x="233" y="918" on="1"/>
        <pt x="290" y="825" on="1"/>
        <pt x="253" y="808" on="1"/>
      </contour>
      <contour>
        <pt x="89" y="0" on="1"/>
        <pt x="89" y="710" on="1"/>
        <pt x="389" y="710" on="1"/>
        <pt x="435" y="710" on="0"/>
        <pt x="512" y="671" on="0"/>
        <pt x="568" y="608" on="0"/>
        <pt x="599" y="528" on="0"/>
        <pt x="599" y="487" on="1"/>
        <pt x="599" y="448" on="0"/>
        <pt x="576" y="377" on="0"/>
        <pt x="535" y="320" on="0"/>
        <pt x="477" y="281" on="0"/>
        <pt x="441" y="274" on="1"/>
        <pt x="615" y="0" on="1"/>
        <pt x="536" y="0" on="1"/>
        <pt x="369" y="262" on="1"/>
        <pt x="159" y="262" on="1"/>
        <pt x="159" y="0" on="1"/>
      </contour>
      <contour>
        <pt x="159" y="324" on="1"/>
        <pt x="391" y="324" on="1"/>
        <pt x="422" y="324" on="0"/>
        <pt x="473" y="351" on="0"/>
        <pt x="509" y="397" on="0"/>
        <pt x="529" y="455" on="0"/>
        <pt x="529" y="487" on="1"/>
        <pt x="529" y="519" on="0"/>
        <pt x="506" y="578" on="0"/>
        <pt x="467" y="622" on="0"/>
        <pt x="414" y="648" on="0"/>
        <pt x="385" y="648" on="1"/>
        <pt x="159" y="648" on="1"/>
      </contour>
    </TTGlyph>
    <TTGlyph name="Rdotbelow" xMin="89" yMin="-166" xMax="615" yMax="710">
      <contour>
        <pt x="89" y="0" on="1"/>
        <pt x="89" y="710" on="1"/>
        <pt x="389" y="710" on="1"/>
        <pt x="435" y="710" on="0"/>
        <pt x="512" y="671" on="0"/>
        <pt x="568" y="608" on="0"/>
        <pt x="599" y="528" on="0"/>
        <pt x="599" y="487" on="1"/>
        <pt x="599" y="448" on="0"/>
        <pt x="576" y="377" on="0"/>
        <pt x="535" y="320" on="0"/>
        <pt x="477" y="281" on="0"/>
        <pt x="441" y="274" on="1"/>
        <pt x="615" y="0" on="1"/>
        <pt x="536" y="0" on="1"/>
        <pt x="369" y="262" on="1"/>
        <pt x="159" y="262" on="1"/>
        <pt x="159" y="0" on="1"/>
      </contour>
      <contour>
        <pt x="159" y="324" on="1"/>
        <pt x="391" y="324" on="1"/>
        <pt x="422" y="324" on="0"/>
        <pt x="473" y="351" on="0"/>
        <pt x="509" y="397" on="0"/>
        <pt x="529" y="455" on="0"/>
        <pt x="529" y="487" on="1"/>
        <pt x="529" y="519" on="0"/>
        <pt x="506" y="578" on="0"/>
        <pt x="467" y="622" on="0"/>
        <pt x="414" y="648" on="0"/>
        <pt x="385" y="648" on="1"/>
        <pt x="159" y="648" on="1"/>
      </contour>
      <contour>
        <pt x="296" y="-166" on="1"/>
        <pt x="296" y="-68" on="1"/>
        <pt x="358" y="-68" on="1"/>
        <pt x="358" y="-166" on="1"/>
      </contour>
    </TTGlyph>
    <TTGlyph name="Rinvertedbreve" xMin="89" yMin="0" xMax="615" yMax="917">
      <contour>
        <pt x="322" y="882" on="1"/>
        <pt x="300" y="882" on="0"/>
        <pt x="266" y="842" on="0"/>
        <pt x="266" y="816" on="1"/>
        <pt x="224" y="816" on="1"/>
        <pt x="224" y="859" on="0"/>
        <pt x="280" y="917" on="0"/>
        <pt x="322" y="917" on="1"/>
        <pt x="342" y="917" on="0"/>
        <pt x="378" y="901" on="0"/>
        <pt x="405" y="874" on="0"/>
        <pt x="420" y="837" on="0"/>
        <pt x="420" y="816" on="1"/>
        <pt x="379" y="816" on="1"/>
        <pt x="376" y="844" on="0"/>
        <pt x="343" y="882" on="0"/>
      </contour>
      <contour>
        <pt x="89" y="0" on="1"/>
        <pt x="89" y="710" on="1"/>
        <pt x="389" y="710" on="1"/>
        <pt x="435" y="710" on="0"/>
        <pt x="512" y="671" on="0"/>
        <pt x="568" y="608" on="0"/>
        <pt x="599" y="528" on="0"/>
        <pt x="599" y="487" on="1"/>
        <pt x="599" y="448" on="0"/>
        <pt x="576" y="377" on="0"/>
        <pt x="535" y="320" on="0"/>
        <pt x="477" y="281" on="0"/>
        <pt x="441" y="274" on="1"/>
        <pt x="615" y="0" on="1"/>
        <pt x="536" y="0" on="1"/>
        <pt x="369" y="262" on="1"/>
        <pt x="159" y="262" on="1"/>
        <pt x="159" y="0" on="1"/>
      </contour>
      <contour>
        <pt x="159" y="324" on="1"/>
        <pt x="391" y="324" on="1"/>
        <pt x="422" y="324" on="0"/>
        <pt x="473" y="351" on="0"/>
        <pt x="509" y="397" on="0"/>
        <pt x="529" y="455" on="0"/>
        <pt x="529" y="487" on="1"/>
        <pt x="529" y="519" on="0"/>
        <pt x="506" y="578" on="0"/>
        <pt x="467" y="622" on="0"/>
        <pt x="414" y="648" on="0"/>
        <pt x="385" y="648" on="1"/>
        <pt x="159" y="648" on="1"/>
      </contour>
    </TTGlyph>
    <TTGlyph name="S" xMin="32" yMin="-6" xMax="573" yMax="715">
      <contour>
        <pt x="504" y="577" on="1"/>
        <pt x="474" y="611" on="0"/>
        <pt x="374" y="653" on="0"/>
        <pt x="310" y="653" on="1"/>
        <pt x="216" y="653" on="0"/>
        <pt x="130" y="582" on="0"/>
        <pt x="130" y="521" on="1"/>
        <pt x="130" y="489" on="0"/>
        <pt x="153" y="448" on="0"/>
        <pt x="201" y="418" on="0"/>
        <pt x="276" y="396" on="0"/>
        <pt x="327" y="385" on="1"/>
        <pt x="384" y="373" on="0"/>
        <pt x="475" y="343" on="0"/>
        <pt x="539" y="298" on="0"/>
        <pt x="573" y="234" on="0"/>
        <pt x="573" y="186" on="1"/>
        <pt x="573" y="137" on="0"/>
        <pt x="535" y="65" on="0"/>
        <pt x="467" y="17" on="0"/>
        <pt x="373" y="-6" on="0"/>
        <pt x="317" y="-6" on="1"/>
        <pt x="152" y="-6" on="0"/>
        <pt x="32" y="97" on="1"/>
        <pt x="67" y="154" on="1"/>
        <pt x="86" y="134" on="0"/>
        <pt x="139" y="98" on="0"/>
        <pt x="204" y="71" on="0"/>
        <pt x="278" y="56" on="0"/>
        <pt x="319" y="56" on="1"/>
        <pt x="404" y="56" on="0"/>
        <pt x="499" y="117" on="0"/>
        <pt x="499" y="179" on="1"/>
        <pt x="499" y="212" on="0"/>
        <pt x="472" y="257" on="0"/>
        <pt x="418" y="290" on="0"/>
        <pt x="338" y="314" on="0"/>
        <pt x="285" y="326" on="1"/>
        <pt x="229" y="339" on="0"/>
        <pt x="145" y="367" on="0"/>
        <pt x="87" y="409" on="0"/>
        <pt x="58" y="468" on="0"/>
        <pt x="58" y="511" on="1"/>
        <pt x="58" y="560" on="0"/>
        <pt x="95" y="637" on="0"/>
        <pt x="163" y="688" on="0"/>
        <pt x="255" y="715" on="0"/>
        <pt x="311" y="715" on="1"/>
        <pt x="382" y="715" on="0"/>
        <pt x="493" y="672" on="0"/>
        <pt x="538" y="633" on="1"/>
      </contour>
    </TTGlyph>
    <TTGlyph name="S.sc" xMin="36" yMin="-5" xMax="487" yMax="551">
      <contour>
        <pt x="429" y="438" on="1"/>
        <pt x="403" y="464" on="0"/>
        <pt x="321" y="496" on="0"/>
        <pt x="268" y="496" on="1"/>
        <pt x="192" y="496" on="0"/>
        <pt x="122" y="445" on="0"/>
        <pt x="122" y="400" on="1"/>
        <pt x="122" y="377" on="0"/>
        <pt x="141" y="347" on="0"/>
        <pt x="182" y="325" on="0"/>
        <pt x="243" y="309" on="0"/>
        <pt x="285" y="300" on="1"/>
        <pt x="331" y="290" on="0"/>
        <pt x="406" y="268" on="0"/>
        <pt x="459" y="233" on="0"/>
        <pt x="487" y="183" on="0"/>
        <pt x="487" y="146" on="1"/>
        <pt x="487" y="107" on="0"/>
        <pt x="455" y="50" on="0"/>
        <pt x="398" y="13" on="0"/>
        <pt x="320" y="-5" on="0"/>
        <pt x="274" y="-5" on="1"/>
        <pt x="137" y="-5" on="0"/>
        <pt x="36" y="73" on="1"/>
        <pt x="67" y="125" on="1"/>
        <pt x="100" y="93" on="0"/>
        <pt x="207" y="50" on="0"/>
        <pt x="276" y="50" on="1"/>
        <pt x="343" y="50" on="0"/>
        <pt x="421" y="94" on="0"/>
        <pt x="421" y="139" on="1"/>
        <pt x="421" y="163" on="0"/>
        <pt x="398" y="196" on="0"/>
        <pt x="354" y="221" on="0"/>
        <pt x="287" y="239" on="0"/>
        <pt x="244" y="248" on="1"/>
        <pt x="198" y="258" on="0"/>
        <pt x="128" y="280" on="0"/>
        <pt x="82" y="313" on="0"/>
        <pt x="58" y="360" on="0"/>
        <pt x="58" y="394" on="1"/>
        <pt x="58" y="432" on="0"/>
        <pt x="90" y="491" on="0"/>
        <pt x="146" y="531" on="0"/>
        <pt x="223" y="551" on="0"/>
        <pt x="269" y="551" on="1"/>
        <pt x="384" y="551" on="0"/>
        <pt x="458" y="488" on="1"/>
      </contour>
    </TTGlyph>
    <TTGlyph name="Sacute" xMin="32" yMin="-6" xMax="573" yMax="933">
      <contour>
        <pt x="320" y="823" on="1"/>
        <pt x="275" y="840" on="1"/>
        <pt x="334" y="933" on="1"/>
        <pt x="406" y="933" on="1"/>
      </contour>
      <contour>
        <pt x="504" y="577" on="1"/>
        <pt x="474" y="611" on="0"/>
        <pt x="374" y="653" on="0"/>
        <pt x="310" y="653" on="1"/>
        <pt x="216" y="653" on="0"/>
        <pt x="130" y="582" on="0"/>
        <pt x="130" y="521" on="1"/>
        <pt x="130" y="489" on="0"/>
        <pt x="153" y="448" on="0"/>
        <pt x="201" y="418" on="0"/>
        <pt x="276" y="396" on="0"/>
        <pt x="327" y="385" on="1"/>
        <pt x="384" y="373" on="0"/>
        <pt x="475" y="343" on="0"/>
        <pt x="539" y="298" on="0"/>
        <pt x="573" y="234" on="0"/>
        <pt x="573" y="186" on="1"/>
        <pt x="573" y="137" on="0"/>
        <pt x="535" y="65" on="0"/>
        <pt x="467" y="17" on="0"/>
        <pt x="373" y="-6" on="0"/>
        <pt x="317" y="-6" on="1"/>
        <pt x="152" y="-6" on="0"/>
        <pt x="32" y="97" on="1"/>
        <pt x="67" y="154" on="1"/>
        <pt x="86" y="134" on="0"/>
        <pt x="139" y="98" on="0"/>
        <pt x="204" y="71" on="0"/>
        <pt x="278" y="56" on="0"/>
        <pt x="319" y="56" on="1"/>
        <pt x="404" y="56" on="0"/>
        <pt x="499" y="117" on="0"/>
        <pt x="499" y="179" on="1"/>
        <pt x="499" y="212" on="0"/>
        <pt x="472" y="257" on="0"/>
        <pt x="418" y="290" on="0"/>
        <pt x="338" y="314" on="0"/>
        <pt x="285" y="326" on="1"/>
        <pt x="229" y="339" on="0"/>
        <pt x="145" y="367" on="0"/>
        <pt x="87" y="409" on="0"/>
        <pt x="58" y="468" on="0"/>
        <pt x="58" y="511" on="1"/>
        <pt x="58" y="560" on="0"/>
        <pt x="95" y="637" on="0"/>
        <pt x="163" y="688" on="0"/>
        <pt x="255" y="715" on="0"/>
        <pt x="311" y="715" on="1"/>
        <pt x="382" y="715" on="0"/>
        <pt x="493" y="672" on="0"/>
        <pt x="538" y="633" on="1"/>
      </contour>
    </TTGlyph>
    <TTGlyph name="Scaron" xMin="32" yMin="-6" xMax="573" yMax="933">
      <contour>
        <pt x="229" y="933" on="1"/>
        <pt x="314" y="870" on="1"/>
        <pt x="399" y="933" on="1"/>
        <pt x="438" y="913" on="1"/>
        <pt x="339" y="827" on="1"/>
        <pt x="289" y="827" on="1"/>
        <pt x="191" y="913" on="1"/>
      </contour>
      <contour>
        <pt x="504" y="577" on="1"/>
        <pt x="474" y="611" on="0"/>
        <pt x="374" y="653" on="0"/>
        <pt x="310" y="653" on="1"/>
        <pt x="216" y="653" on="0"/>
        <pt x="130" y="582" on="0"/>
        <pt x="130" y="521" on="1"/>
        <pt x="130" y="489" on="0"/>
        <pt x="153" y="448" on="0"/>
        <pt x="201" y="418" on="0"/>
        <pt x="276" y="396" on="0"/>
        <pt x="327" y="385" on="1"/>
        <pt x="384" y="373" on="0"/>
        <pt x="475" y="343" on="0"/>
        <pt x="539" y="298" on="0"/>
        <pt x="573" y="234" on="0"/>
        <pt x="573" y="186" on="1"/>
        <pt x="573" y="137" on="0"/>
        <pt x="535" y="65" on="0"/>
        <pt x="467" y="17" on="0"/>
        <pt x="373" y="-6" on="0"/>
        <pt x="317" y="-6" on="1"/>
        <pt x="152" y="-6" on="0"/>
        <pt x="32" y="97" on="1"/>
        <pt x="67" y="154" on="1"/>
        <pt x="86" y="134" on="0"/>
        <pt x="139" y="98" on="0"/>
        <pt x="204" y="71" on="0"/>
        <pt x="278" y="56" on="0"/>
        <pt x="319" y="56" on="1"/>
        <pt x="404" y="56" on="0"/>
        <pt x="499" y="117" on="0"/>
        <pt x="499" y="179" on="1"/>
        <pt x="499" y="212" on="0"/>
        <pt x="472" y="257" on="0"/>
        <pt x="418" y="290" on="0"/>
        <pt x="338" y="314" on="0"/>
        <pt x="285" y="326" on="1"/>
        <pt x="229" y="339" on="0"/>
        <pt x="145" y="367" on="0"/>
        <pt x="87" y="409" on="0"/>
        <pt x="58" y="468" on="0"/>
        <pt x="58" y="511" on="1"/>
        <pt x="58" y="560" on="0"/>
        <pt x="95" y="637" on="0"/>
        <pt x="163" y="688" on="0"/>
        <pt x="255" y="715" on="0"/>
        <pt x="311" y="715" on="1"/>
        <pt x="382" y="715" on="0"/>
        <pt x="493" y="672" on="0"/>
        <pt x="538" y="633" on="1"/>
      </contour>
    </TTGlyph>
    <TTGlyph name="Schwa" xMin="29" yMin="-6" xMax="695" yMax="715">
      <contour>
        <pt x="365" y="-6" on="1"/>
        <pt x="295" y="-6" on="0"/>
        <pt x="172" y="50" on="0"/>
        <pt x="81" y="146" on="0"/>
        <pt x="29" y="276" on="0"/>
        <pt x="29" y="350" on="1"/>
        <pt x="29" y="359" on="0"/>
        <pt x="29" y="379" on="0"/>
        <pt x="31" y="383" on="1"/>
        <pt x="618" y="383" on="1"/>
        <pt x="613" y="440" on="0"/>
        <pt x="568" y="538" on="0"/>
        <pt x="499" y="610" on="0"/>
        <pt x="409" y="650" on="0"/>
        <pt x="358" y="650" on="1"/>
        <pt x="322" y="650" on="0"/>
        <pt x="254" y="630" on="0"/>
        <pt x="197" y="593" on="0"/>
        <pt x="154" y="542" on="0"/>
        <pt x="143" y="511" on="1"/>
        <pt x="77" y="541" on="1"/>
        <pt x="95" y="579" on="0"/>
        <pt x="155" y="643" on="0"/>
        <pt x="231" y="689" on="0"/>
        <pt x="319" y="715" on="0"/>
        <pt x="365" y="715" on="1"/>
        <pt x="433" y="715" on="0"/>
        <pt x="553" y="658" on="0"/>
        <pt x="643" y="559" on="0"/>
        <pt x="695" y="427" on="0"/>
        <pt x="695" y="351" on="1"/>
        <pt x="695" y="276" on="0"/>
        <pt x="644" y="146" on="0"/>
        <pt x="554" y="49" on="0"/>
        <pt x="434" y="-6" on="0"/>
      </contour>
      <contour>
        <pt x="365" y="57" on="1"/>
        <pt x="416" y="57" on="0"/>
        <pt x="506" y="97" on="0"/>
        <pt x="575" y="168" on="0"/>
        <pt x="617" y="265" on="0"/>
        <pt x="620" y="322" on="1"/>
        <pt x="104" y="322" on="1"/>
        <pt x="107" y="265" on="0"/>
        <pt x="151" y="168" on="0"/>
        <pt x="221" y="97" on="0"/>
        <pt x="313" y="57" on="0"/>
      </contour>
    </TTGlyph>
    <TTGlyph name="Scircumflex" xMin="32" yMin="-6" xMax="573" yMax="933">
      <contour>
        <pt x="191" y="848" on="1"/>
        <pt x="289" y="933" on="1"/>
        <pt x="339" y="933" on="1"/>
        <pt x="438" y="848" on="1"/>
        <pt x="399" y="827" on="1"/>
        <pt x="314" y="890" on="1"/>
        <pt x="229" y="827" on="1"/>
      </contour>
      <contour>
        <pt x="504" y="577" on="1"/>
        <pt x="474" y="611" on="0"/>
        <pt x="374" y="653" on="0"/>
        <pt x="310" y="653" on="1"/>
        <pt x="216" y="653" on="0"/>
        <pt x="130" y="582" on="0"/>
        <pt x="130" y="521" on="1"/>
        <pt x="130" y="489" on="0"/>
        <pt x="153" y="448" on="0"/>
        <pt x="201" y="418" on="0"/>
        <pt x="276" y="396" on="0"/>
        <pt x="327" y="385" on="1"/>
        <pt x="384" y="373" on="0"/>
        <pt x="475" y="343" on="0"/>
        <pt x="539" y="298" on="0"/>
        <pt x="573" y="234" on="0"/>
        <pt x="573" y="186" on="1"/>
        <pt x="573" y="137" on="0"/>
        <pt x="535" y="65" on="0"/>
        <pt x="467" y="17" on="0"/>
        <pt x="373" y="-6" on="0"/>
        <pt x="317" y="-6" on="1"/>
        <pt x="152" y="-6" on="0"/>
        <pt x="32" y="97" on="1"/>
        <pt x="67" y="154" on="1"/>
        <pt x="86" y="134" on="0"/>
        <pt x="139" y="98" on="0"/>
        <pt x="204" y="71" on="0"/>
        <pt x="278" y="56" on="0"/>
        <pt x="319" y="56" on="1"/>
        <pt x="404" y="56" on="0"/>
        <pt x="499" y="117" on="0"/>
        <pt x="499" y="179" on="1"/>
        <pt x="499" y="212" on="0"/>
        <pt x="472" y="257" on="0"/>
        <pt x="418" y="290" on="0"/>
        <pt x="338" y="314" on="0"/>
        <pt x="285" y="326" on="1"/>
        <pt x="229" y="339" on="0"/>
        <pt x="145" y="367" on="0"/>
        <pt x="87" y="409" on="0"/>
        <pt x="58" y="468" on="0"/>
        <pt x="58" y="511" on="1"/>
        <pt x="58" y="560" on="0"/>
        <pt x="95" y="637" on="0"/>
        <pt x="163" y="688" on="0"/>
        <pt x="255" y="715" on="0"/>
        <pt x="311" y="715" on="1"/>
        <pt x="382" y="715" on="0"/>
        <pt x="493" y="672" on="0"/>
        <pt x="538" y="633" on="1"/>
      </contour>
    </TTGlyph>
    <TTGlyph name="Sdotbelow" xMin="32" yMin="-166" xMax="573" yMax="715">
      <contour>
        <pt x="504" y="577" on="1"/>
        <pt x="474" y="611" on="0"/>
        <pt x="374" y="653" on="0"/>
        <pt x="310" y="653" on="1"/>
        <pt x="216" y="653" on="0"/>
        <pt x="130" y="582" on="0"/>
        <pt x="130" y="521" on="1"/>
        <pt x="130" y="489" on="0"/>
        <pt x="153" y="448" on="0"/>
        <pt x="201" y="418" on="0"/>
        <pt x="276" y="396" on="0"/>
        <pt x="327" y="385" on="1"/>
        <pt x="384" y="373" on="0"/>
        <pt x="475" y="343" on="0"/>
        <pt x="539" y="298" on="0"/>
        <pt x="573" y="234" on="0"/>
        <pt x="573" y="186" on="1"/>
        <pt x="573" y="137" on="0"/>
        <pt x="535" y="65" on="0"/>
        <pt x="467" y="17" on="0"/>
        <pt x="373" y="-6" on="0"/>
        <pt x="317" y="-6" on="1"/>
        <pt x="152" y="-6" on="0"/>
        <pt x="32" y="97" on="1"/>
        <pt x="67" y="154" on="1"/>
        <pt x="86" y="134" on="0"/>
        <pt x="139" y="98" on="0"/>
        <pt x="204" y="71" on="0"/>
        <pt x="278" y="56" on="0"/>
        <pt x="319" y="56" on="1"/>
        <pt x="404" y="56" on="0"/>
        <pt x="499" y="117" on="0"/>
        <pt x="499" y="179" on="1"/>
        <pt x="499" y="212" on="0"/>
        <pt x="472" y="257" on="0"/>
        <pt x="418" y="290" on="0"/>
        <pt x="338" y="314" on="0"/>
        <pt x="285" y="326" on="1"/>
        <pt x="229" y="339" on="0"/>
        <pt x="145" y="367" on="0"/>
        <pt x="87" y="409" on="0"/>
        <pt x="58" y="468" on="0"/>
        <pt x="58" y="511" on="1"/>
        <pt x="58" y="560" on="0"/>
        <pt x="95" y="637" on="0"/>
        <pt x="163" y="688" on="0"/>
        <pt x="255" y="715" on="0"/>
        <pt x="311" y="715" on="1"/>
        <pt x="382" y="715" on="0"/>
        <pt x="493" y="672" on="0"/>
        <pt x="538" y="633" on="1"/>
      </contour>
      <contour>
        <pt x="276" y="-166" on="1"/>
        <pt x="276" y="-68" on="1"/>
        <pt x="338" y="-68" on="1"/>
        <pt x="338" y="-166" on="1"/>
      </contour>
    </TTGlyph>
    <TTGlyph name="T" xMin="17" yMin="0" xMax="593" yMax="710">
      <contour>
        <pt x="593" y="648" on="1"/>
        <pt x="340" y="648" on="1"/>
        <pt x="340" y="0" on="1"/>
        <pt x="270" y="0" on="1"/>
        <pt x="270" y="648" on="1"/>
        <pt x="17" y="648" on="1"/>
        <pt x="17" y="710" on="1"/>
        <pt x="593" y="710" on="1"/>
      </contour>
    </TTGlyph>
    <TTGlyph name="T.sc" xMin="22" yMin="0" xMax="508" yMax="548">
      <contour>
        <pt x="508" y="492" on="1"/>
        <pt x="297" y="492" on="1"/>
        <pt x="297" y="0" on="1"/>
        <pt x="235" y="0" on="1"/>
        <pt x="235" y="492" on="1"/>
        <pt x="22" y="492" on="1"/>
        <pt x="22" y="548" on="1"/>
        <pt x="508" y="548" on="1"/>
      </contour>
    </TTGlyph>
    <TTGlyph name="Tbar" xMin="33" yMin="0" xMax="609" yMax="710">
      <contour>
        <pt x="609" y="648" on="1"/>
        <pt x="356" y="648" on="1"/>
        <pt x="356" y="405" on="1"/>
        <pt x="576" y="405" on="1"/>
        <pt x="576" y="366" on="1"/>
        <pt x="356" y="366" on="1"/>
        <pt x="356" y="0" on="1"/>
        <pt x="286" y="0" on="1"/>
        <pt x="286" y="366" on="1"/>
        <pt x="66" y="366" on="1"/>
        <pt x="66" y="405" on="1"/>
        <pt x="286" y="405" on="1"/>
        <pt x="286" y="648" on="1"/>
        <pt x="33" y="648" on="1"/>
        <pt x="33" y="710" on="1"/>
        <pt x="609" y="710" on="1"/>
      </contour>
    </TTGlyph>
    <TTGlyph name="Tcaron" xMin="17" yMin="0" xMax="593" yMax="917">
      <contour>
        <pt x="222" y="917" on="1"/>
        <pt x="307" y="854" on="1"/>
        <pt x="392" y="917" on="1"/>
        <pt x="431" y="897" on="1"/>
        <pt x="332" y="811" on="1"/>
        <pt x="282" y="811" on="1"/>
        <pt x="184" y="897" on="1"/>
      </contour>
      <contour>
        <pt x="593" y="648" on="1"/>
        <pt x="340" y="648" on="1"/>
        <pt x="340" y="0" on="1"/>
        <pt x="270" y="0" on="1"/>
        <pt x="270" y="648" on="1"/>
        <pt x="17" y="648" on="1"/>
        <pt x="17" y="710" on="1"/>
        <pt x="593" y="710" on="1"/>
      </contour>
    </TTGlyph>
    <TTGlyph name="Tdotbelow" xMin="17" yMin="-166" xMax="593" yMax="710">
      <contour>
        <pt x="272" y="-166" on="1"/>
        <pt x="272" y="-68" on="1"/>
        <pt x="334" y="-68" on="1"/>
        <pt x="334" y="-166" on="1"/>
      </contour>
      <contour>
        <pt x="593" y="648" on="1"/>
        <pt x="340" y="648" on="1"/>
        <pt x="340" y="0" on="1"/>
        <pt x="270" y="0" on="1"/>
        <pt x="270" y="648" on="1"/>
        <pt x="17" y="648" on="1"/>
        <pt x="17" y="710" on="1"/>
        <pt x="593" y="710" on="1"/>
      </contour>
    </TTGlyph>
    <TTGlyph name="Thorn" xMin="89" yMin="0" xMax="575" yMax="710">
      <contour>
        <pt x="364" y="569" on="1"/>
        <pt x="410" y="569" on="0"/>
        <pt x="488" y="530" on="0"/>
        <pt x="544" y="467" on="0"/>
        <pt x="575" y="387" on="0"/>
        <pt x="575" y="346" on="1"/>
        <pt x="575" y="302" on="0"/>
        <pt x="546" y="221" on="0"/>
        <pt x="492" y="159" on="0"/>
        <pt x="417" y="121" on="0"/>
        <pt x="371" y="121" on="1"/>
        <pt x="159" y="121" on="1"/>
        <pt x="159" y="0" on="1"/>
        <pt x="89" y="0" on="1"/>
        <pt x="89" y="710" on="1"/>
        <pt x="159" y="710" on="1"/>
        <pt x="159" y="569" on="1"/>
      </contour>
      <contour>
        <pt x="368" y="184" on="1"/>
        <pt x="400" y="184" on="0"/>
        <pt x="451" y="211" on="0"/>
        <pt x="487" y="256" on="0"/>
        <pt x="506" y="315" on="0"/>
        <pt x="506" y="346" on="1"/>
        <pt x="506" y="378" on="0"/>
        <pt x="483" y="437" on="0"/>
        <pt x="444" y="481" on="0"/>
        <pt x="391" y="507" on="0"/>
        <pt x="362" y="507" on="1"/>
        <pt x="159" y="507" on="1"/>
        <pt x="159" y="184" on="1"/>
      </contour>
    </TTGlyph>
    <TTGlyph name="U" xMin="79" yMin="-5" xMax="677" yMax="710">
      <contour>
        <pt x="377" y="58" on="1"/>
        <pt x="444" y="58" on="0"/>
        <pt x="533" y="109" on="0"/>
        <pt x="586" y="192" on="0"/>
        <pt x="607" y="298" on="0"/>
        <pt x="607" y="352" on="1"/>
        <pt x="607" y="710" on="1"/>
        <pt x="677" y="710" on="1"/>
        <pt x="677" y="352" on="1"/>
        <pt x="677" y="280" on="0"/>
        <pt x="645" y="151" on="0"/>
        <pt x="574" y="53" on="0"/>
        <pt x="460" y="-5" on="0"/>
        <pt x="378" y="-5" on="1"/>
        <pt x="294" y="-5" on="0"/>
        <pt x="179" y="56" on="0"/>
        <pt x="109" y="156" on="0"/>
        <pt x="79" y="284" on="0"/>
        <pt x="79" y="352" on="1"/>
        <pt x="79" y="710" on="1"/>
        <pt x="148" y="710" on="1"/>
        <pt x="148" y="352" on="1"/>
        <pt x="148" y="296" on="0"/>
        <pt x="170" y="190" on="0"/>
        <pt x="223" y="108" on="0"/>
        <pt x="311" y="58" on="0"/>
      </contour>
    </TTGlyph>
    <TTGlyph name="U.sc" xMin="75" yMin="-4" xMax="576" yMax="548">
      <contour>
        <pt x="325" y="53" on="1"/>
        <pt x="380" y="53" on="0"/>
        <pt x="453" y="91" on="0"/>
        <pt x="497" y="152" on="0"/>
        <pt x="514" y="230" on="0"/>
        <pt x="514" y="271" on="1"/>
        <pt x="514" y="548" on="1"/>
        <pt x="576" y="548" on="1"/>
        <pt x="576" y="271" on="1"/>
        <pt x="576" y="215" on="0"/>
        <pt x="549" y="116" on="0"/>
        <pt x="490" y="40" on="0"/>
        <pt x="395" y="-4" on="0"/>
        <pt x="326" y="-4" on="1"/>
        <pt x="255" y="-4" on="0"/>
        <pt x="159" y="43" on="0"/>
        <pt x="101" y="119" on="0"/>
        <pt x="75" y="218" on="0"/>
        <pt x="75" y="271" on="1"/>
        <pt x="75" y="548" on="1"/>
        <pt x="137" y="548" on="1"/>
        <pt x="137" y="271" on="1"/>
        <pt x="137" y="229" on="0"/>
        <pt x="156" y="151" on="0"/>
        <pt x="199" y="90" on="0"/>
        <pt x="271" y="53" on="0"/>
      </contour>
    </TTGlyph>
    <TTGlyph name="Uacute" xMin="79" yMin="-5" xMax="677" yMax="917">
      <contour>
        <pt x="385" y="807" on="1"/>
        <pt x="340" y="824" on="1"/>
        <pt x="399" y="917" on="1"/>
        <pt x="471" y="917" on="1"/>
      </contour>
      <contour>
        <pt x="377" y="58" on="1"/>
        <pt x="444" y="58" on="0"/>
        <pt x="533" y="109" on="0"/>
        <pt x="586" y="192" on="0"/>
        <pt x="607" y="298" on="0"/>
        <pt x="607" y="352" on="1"/>
        <pt x="607" y="710" on="1"/>
        <pt x="677" y="710" on="1"/>
        <pt x="677" y="352" on="1"/>
        <pt x="677" y="280" on="0"/>
        <pt x="645" y="151" on="0"/>
        <pt x="574" y="53" on="0"/>
        <pt x="460" y="-5" on="0"/>
        <pt x="378" y="-5" on="1"/>
        <pt x="294" y="-5" on="0"/>
        <pt x="179" y="56" on="0"/>
        <pt x="109" y="156" on="0"/>
        <pt x="79" y="284" on="0"/>
        <pt x="79" y="352" on="1"/>
        <pt x="79" y="710" on="1"/>
        <pt x="148" y="710" on="1"/>
        <pt x="148" y="352" on="1"/>
        <pt x="148" y="296" on="0"/>
        <pt x="170" y="190" on="0"/>
        <pt x="223" y="108" on="0"/>
        <pt x="311" y="58" on="0"/>
      </contour>
    </TTGlyph>
    <TTGlyph name="Ubreve" xMin="79" yMin="-5" xMax="677" yMax="917">
      <contour>
        <pt x="377" y="58" on="1"/>
        <pt x="444" y="58" on="0"/>
        <pt x="533" y="109" on="0"/>
        <pt x="586" y="192" on="0"/>
        <pt x="607" y="298" on="0"/>
        <pt x="607" y="352" on="1"/>
        <pt x="607" y="710" on="1"/>
        <pt x="677" y="710" on="1"/>
        <pt x="677" y="352" on="1"/>
        <pt x="677" y="280" on="0"/>
        <pt x="645" y="151" on="0"/>
        <pt x="574" y="53" on="0"/>
        <pt x="460" y="-5" on="0"/>
        <pt x="378" y="-5" on="1"/>
        <pt x="294" y="-5" on="0"/>
        <pt x="179" y="56" on="0"/>
        <pt x="109" y="156" on="0"/>
        <pt x="79" y="284" on="0"/>
        <pt x="79" y="352" on="1"/>
        <pt x="79" y="710" on="1"/>
        <pt x="148" y="710" on="1"/>
        <pt x="148" y="352" on="1"/>
        <pt x="148" y="296" on="0"/>
        <pt x="170" y="190" on="0"/>
        <pt x="223" y="108" on="0"/>
        <pt x="311" y="58" on="0"/>
      </contour>
      <contour>
        <pt x="378" y="851" on="1"/>
        <pt x="399" y="851" on="0"/>
        <pt x="432" y="889" on="0"/>
        <pt x="435" y="917" on="1"/>
        <pt x="476" y="917" on="1"/>
        <pt x="476" y="896" on="0"/>
        <pt x="461" y="859" on="0"/>
        <pt x="434" y="832" on="0"/>
        <pt x="398" y="816" on="0"/>
        <pt x="378" y="816" on="1"/>
        <pt x="336" y="816" on="0"/>
        <pt x="280" y="874" on="0"/>
        <pt x="280" y="917" on="1"/>
        <pt x="322" y="917" on="1"/>
        <pt x="322" y="891" on="0"/>
        <pt x="356" y="851" on="0"/>
      </contour>
    </TTGlyph>
    <TTGlyph name="Ucircumflex" xMin="79" yMin="-5" xMax="677" yMax="917">
      <contour>
        <pt x="255" y="832" on="1"/>
        <pt x="353" y="917" on="1"/>
        <pt x="403" y="917" on="1"/>
        <pt x="502" y="832" on="1"/>
        <pt x="463" y="811" on="1"/>
        <pt x="378" y="874" on="1"/>
        <pt x="293" y="811" on="1"/>
      </contour>
      <contour>
        <pt x="377" y="58" on="1"/>
        <pt x="444" y="58" on="0"/>
        <pt x="533" y="109" on="0"/>
        <pt x="586" y="192" on="0"/>
        <pt x="607" y="298" on="0"/>
        <pt x="607" y="352" on="1"/>
        <pt x="607" y="710" on="1"/>
        <pt x="677" y="710" on="1"/>
        <pt x="677" y="352" on="1"/>
        <pt x="677" y="280" on="0"/>
        <pt x="645" y="151" on="0"/>
        <pt x="574" y="53" on="0"/>
        <pt x="460" y="-5" on="0"/>
        <pt x="378" y="-5" on="1"/>
        <pt x="294" y="-5" on="0"/>
        <pt x="179" y="56" on="0"/>
        <pt x="109" y="156" on="0"/>
        <pt x="79" y="284" on="0"/>
        <pt x="79" y="352" on="1"/>
        <pt x="79" y="710" on="1"/>
        <pt x="148" y="710" on="1"/>
        <pt x="148" y="352" on="1"/>
        <pt x="148" y="296" on="0"/>
        <pt x="170" y="190" on="0"/>
        <pt x="223" y="108" on="0"/>
        <pt x="311" y="58" on="0"/>
      </contour>
    </TTGlyph>
    <TTGlyph name="Udblgrave" xMin="79" yMin="-5" xMax="677" yMax="918">
      <contour>
        <pt x="353" y="918" on="1"/>
        <pt x="416" y="918" on="1"/>
        <pt x="473" y="825" on="1"/>
        <pt x="436" y="808" on="1"/>
      </contour>
      <contour>
        <pt x="227" y="918" on="1"/>
        <pt x="291" y="918" on="1"/>
        <pt x="348" y="825" on="1"/>
        <pt x="311" y="808" on="1"/>
      </contour>
      <contour>
        <pt x="377" y="58" on="1"/>
        <pt x="444" y="58" on="0"/>
        <pt x="533" y="109" on="0"/>
        <pt x="586" y="192" on="0"/>
        <pt x="607" y="298" on="0"/>
        <pt x="607" y="352" on="1"/>
        <pt x="607" y="710" on="1"/>
        <pt x="677" y="710" on="1"/>
        <pt x="677" y="352" on="1"/>
        <pt x="677" y="280" on="0"/>
        <pt x="645" y="151" on="0"/>
        <pt x="574" y="53" on="0"/>
        <pt x="460" y="-5" on="0"/>
        <pt x="378" y="-5" on="1"/>
        <pt x="294" y="-5" on="0"/>
        <pt x="179" y="56" on="0"/>
        <pt x="109" y="156" on="0"/>
        <pt x="79" y="284" on="0"/>
        <pt x="79" y="352" on="1"/>
        <pt x="79" y="710" on="1"/>
        <pt x="148" y="710" on="1"/>
        <pt x="148" y="352" on="1"/>
        <pt x="148" y="296" on="0"/>
        <pt x="170" y="190" on="0"/>
        <pt x="223" y="108" on="0"/>
        <pt x="311" y="58" on="0"/>
      </contour>
    </TTGlyph>
    <TTGlyph name="Udieresis" xMin="79" yMin="-5" xMax="677" yMax="914">
      <contour>
        <pt x="275" y="820" on="1"/>
        <pt x="275" y="914" on="1"/>
        <pt x="333" y="914" on="1"/>
        <pt x="333" y="820" on="1"/>
      </contour>
      <contour>
        <pt x="424" y="820" on="1"/>
        <pt x="424" y="914" on="1"/>
        <pt x="482" y="914" on="1"/>
        <pt x="482" y="820" on="1"/>
      </contour>
      <contour>
        <pt x="377" y="58" on="1"/>
        <pt x="444" y="58" on="0"/>
        <pt x="533" y="109" on="0"/>
        <pt x="586" y="192" on="0"/>
        <pt x="607" y="298" on="0"/>
        <pt x="607" y="352" on="1"/>
        <pt x="607" y="710" on="1"/>
        <pt x="677" y="710" on="1"/>
        <pt x="677" y="352" on="1"/>
        <pt x="677" y="280" on="0"/>
        <pt x="645" y="151" on="0"/>
        <pt x="574" y="53" on="0"/>
        <pt x="460" y="-5" on="0"/>
        <pt x="378" y="-5" on="1"/>
        <pt x="294" y="-5" on="0"/>
        <pt x="179" y="56" on="0"/>
        <pt x="109" y="156" on="0"/>
        <pt x="79" y="284" on="0"/>
        <pt x="79" y="352" on="1"/>
        <pt x="79" y="710" on="1"/>
        <pt x="148" y="710" on="1"/>
        <pt x="148" y="352" on="1"/>
        <pt x="148" y="296" on="0"/>
        <pt x="170" y="190" on="0"/>
        <pt x="223" y="108" on="0"/>
        <pt x="311" y="58" on="0"/>
      </contour>
    </TTGlyph>
    <TTGlyph name="Udotbelow" xMin="79" yMin="-166" xMax="677" yMax="710">
      <contour>
        <pt x="377" y="58" on="1"/>
        <pt x="444" y="58" on="0"/>
        <pt x="533" y="109" on="0"/>
        <pt x="586" y="192" on="0"/>
        <pt x="607" y="298" on="0"/>
        <pt x="607" y="352" on="1"/>
        <pt x="607" y="710" on="1"/>
        <pt x="677" y="710" on="1"/>
        <pt x="677" y="352" on="1"/>
        <pt x="677" y="280" on="0"/>
        <pt x="645" y="151" on="0"/>
        <pt x="574" y="53" on="0"/>
        <pt x="460" y="-5" on="0"/>
        <pt x="378" y="-5" on="1"/>
        <pt x="294" y="-5" on="0"/>
        <pt x="179" y="56" on="0"/>
        <pt x="109" y="156" on="0"/>
        <pt x="79" y="284" on="0"/>
        <pt x="79" y="352" on="1"/>
        <pt x="79" y="710" on="1"/>
        <pt x="148" y="710" on="1"/>
        <pt x="148" y="352" on="1"/>
        <pt x="148" y="296" on="0"/>
        <pt x="170" y="190" on="0"/>
        <pt x="223" y="108" on="0"/>
        <pt x="311" y="58" on="0"/>
      </contour>
      <contour>
        <pt x="349" y="-166" on="1"/>
        <pt x="349" y="-68" on="1"/>
        <pt x="411" y="-68" on="1"/>
        <pt x="411" y="-166" on="1"/>
      </contour>
    </TTGlyph>
    <TTGlyph name="Ugrave" xMin="79" yMin="-5" xMax="677" yMax="917">
      <contour>
        <pt x="377" y="58" on="1"/>
        <pt x="444" y="58" on="0"/>
        <pt x="533" y="109" on="0"/>
        <pt x="586" y="192" on="0"/>
        <pt x="607" y="298" on="0"/>
        <pt x="607" y="352" on="1"/>
        <pt x="607" y="710" on="1"/>
        <pt x="677" y="710" on="1"/>
        <pt x="677" y="352" on="1"/>
        <pt x="677" y="280" on="0"/>
        <pt x="645" y="151" on="0"/>
        <pt x="574" y="53" on="0"/>
        <pt x="460" y="-5" on="0"/>
        <pt x="378" y="-5" on="1"/>
        <pt x="294" y="-5" on="0"/>
        <pt x="179" y="56" on="0"/>
        <pt x="109" y="156" on="0"/>
        <pt x="79" y="284" on="0"/>
        <pt x="79" y="352" on="1"/>
        <pt x="79" y="710" on="1"/>
        <pt x="148" y="710" on="1"/>
        <pt x="148" y="352" on="1"/>
        <pt x="148" y="296" on="0"/>
        <pt x="170" y="190" on="0"/>
        <pt x="223" y="108" on="0"/>
        <pt x="311" y="58" on="0"/>
      </contour>
      <contour>
        <pt x="285" y="917" on="1"/>
        <pt x="356" y="917" on="1"/>
        <pt x="416" y="824" on="1"/>
        <pt x="372" y="807" on="1"/>
      </contour>
    </TTGlyph>
    <TTGlyph name="Uhungarumlaut" xMin="79" yMin="-5" xMax="677" yMax="917">
      <contour>
        <pt x="377" y="58" on="1"/>
        <pt x="444" y="58" on="0"/>
        <pt x="533" y="109" on="0"/>
        <pt x="586" y="192" on="0"/>
        <pt x="607" y="298" on="0"/>
        <pt x="607" y="352" on="1"/>
        <pt x="607" y="710" on="1"/>
        <pt x="677" y="710" on="1"/>
        <pt x="677" y="352" on="1"/>
        <pt x="677" y="280" on="0"/>
        <pt x="645" y="151" on="0"/>
        <pt x="574" y="53" on="0"/>
        <pt x="460" y="-5" on="0"/>
        <pt x="378" y="-5" on="1"/>
        <pt x="294" y="-5" on="0"/>
        <pt x="179" y="56" on="0"/>
        <pt x="109" y="156" on="0"/>
        <pt x="79" y="284" on="0"/>
        <pt x="79" y="352" on="1"/>
        <pt x="79" y="710" on="1"/>
        <pt x="148" y="710" on="1"/>
        <pt x="148" y="352" on="1"/>
        <pt x="148" y="296" on="0"/>
        <pt x="170" y="190" on="0"/>
        <pt x="223" y="108" on="0"/>
        <pt x="311" y="58" on="0"/>
      </contour>
      <contour>
        <pt x="314" y="807" on="1"/>
        <pt x="277" y="824" on="1"/>
        <pt x="334" y="917" on="1"/>
        <pt x="398" y="917" on="1"/>
      </contour>
      <contour>
        <pt x="440" y="807" on="1"/>
        <pt x="402" y="824" on="1"/>
        <pt x="459" y="917" on="1"/>
        <pt x="523" y="917" on="1"/>
      </contour>
    </TTGlyph>
    <TTGlyph name="Uinvertedbreve" xMin="79" yMin="-5" xMax="677" yMax="917">
      <contour>
        <pt x="377" y="882" on="1"/>
        <pt x="355" y="882" on="0"/>
        <pt x="321" y="842" on="0"/>
        <pt x="321" y="816" on="1"/>
        <pt x="279" y="816" on="1"/>
        <pt x="279" y="859" on="0"/>
        <pt x="335" y="917" on="0"/>
        <pt x="377" y="917" on="1"/>
        <pt x="397" y="917" on="0"/>
        <pt x="433" y="901" on="0"/>
        <pt x="460" y="874" on="0"/>
        <pt x="475" y="837" on="0"/>
        <pt x="475" y="816" on="1"/>
        <pt x="434" y="816" on="1"/>
        <pt x="431" y="844" on="0"/>
        <pt x="398" y="882" on="0"/>
      </contour>
      <contour>
        <pt x="377" y="58" on="1"/>
        <pt x="444" y="58" on="0"/>
        <pt x="533" y="109" on="0"/>
        <pt x="586" y="192" on="0"/>
        <pt x="607" y="298" on="0"/>
        <pt x="607" y="352" on="1"/>
        <pt x="607" y="710" on="1"/>
        <pt x="677" y="710" on="1"/>
        <pt x="677" y="352" on="1"/>
        <pt x="677" y="280" on="0"/>
        <pt x="645" y="151" on="0"/>
        <pt x="574" y="53" on="0"/>
        <pt x="460" y="-5" on="0"/>
        <pt x="378" y="-5" on="1"/>
        <pt x="294" y="-5" on="0"/>
        <pt x="179" y="56" on="0"/>
        <pt x="109" y="156" on="0"/>
        <pt x="79" y="284" on="0"/>
        <pt x="79" y="352" on="1"/>
        <pt x="79" y="710" on="1"/>
        <pt x="148" y="710" on="1"/>
        <pt x="148" y="352" on="1"/>
        <pt x="148" y="296" on="0"/>
        <pt x="170" y="190" on="0"/>
        <pt x="223" y="108" on="0"/>
        <pt x="311" y="58" on="0"/>
      </contour>
    </TTGlyph>
    <TTGlyph name="Umacron" xMin="79" yMin="-5" xMax="677" yMax="897">
      <contour>
        <pt x="377" y="58" on="1"/>
        <pt x="444" y="58" on="0"/>
        <pt x="533" y="109" on="0"/>
        <pt x="586" y="192" on="0"/>
        <pt x="607" y="298" on="0"/>
        <pt x="607" y="352" on="1"/>
        <pt x="607" y="710" on="1"/>
        <pt x="677" y="710" on="1"/>
        <pt x="677" y="352" on="1"/>
        <pt x="677" y="280" on="0"/>
        <pt x="645" y="151" on="0"/>
        <pt x="574" y="53" on="0"/>
        <pt x="460" y="-5" on="0"/>
        <pt x="378" y="-5" on="1"/>
        <pt x="294" y="-5" on="0"/>
        <pt x="179" y="56" on="0"/>
        <pt x="109" y="156" on="0"/>
        <pt x="79" y="284" on="0"/>
        <pt x="79" y="352" on="1"/>
        <pt x="79" y="710" on="1"/>
        <pt x="148" y="710" on="1"/>
        <pt x="148" y="352" on="1"/>
        <pt x="148" y="296" on="0"/>
        <pt x="170" y="190" on="0"/>
        <pt x="223" y="108" on="0"/>
        <pt x="311" y="58" on="0"/>
      </contour>
      <contour>
        <pt x="234" y="850" on="1"/>
        <pt x="234" y="897" on="1"/>
        <pt x="523" y="897" on="1"/>
        <pt x="523" y="850" on="1"/>
      </contour>
    </TTGlyph>
    <TTGlyph name="Uogonek" xMin="79" yMin="-178" xMax="677" yMax="710">
      <contour>
        <pt x="377" y="58" on="1"/>
        <pt x="444" y="58" on="0"/>
        <pt x="533" y="109" on="0"/>
        <pt x="586" y="192" on="0"/>
        <pt x="607" y="298" on="0"/>
        <pt x="607" y="352" on="1"/>
        <pt x="607" y="710" on="1"/>
        <pt x="677" y="710" on="1"/>
        <pt x="677" y="352" on="1"/>
        <pt x="677" y="282" on="0"/>
        <pt x="647" y="156" on="0"/>
        <pt x="580" y="59" on="0"/>
        <pt x="473" y="-1" on="0"/>
        <pt x="397" y="-4" on="1"/>
        <pt x="353" y="-32" on="0"/>
        <pt x="317" y="-74" on="0"/>
        <pt x="317" y="-96" on="1"/>
        <pt x="317" y="-133" on="0"/>
        <pt x="369" y="-140" on="1"/>
        <pt x="350" y="-178" on="1"/>
        <pt x="313" y="-170" on="0"/>
        <pt x="275" y="-131" on="0"/>
        <pt x="275" y="-105" on="1"/>
        <pt x="275" y="-80" on="0"/>
        <pt x="311" y="-30" on="0"/>
        <pt x="349" y="-3" on="1"/>
        <pt x="273" y="2" on="0"/>
        <pt x="170" y="66" on="0"/>
        <pt x="107" y="164" on="0"/>
        <pt x="79" y="287" on="0"/>
        <pt x="79" y="352" on="1"/>
        <pt x="79" y="710" on="1"/>
        <pt x="148" y="710" on="1"/>
        <pt x="148" y="352" on="1"/>
        <pt x="148" y="296" on="0"/>
        <pt x="170" y="190" on="0"/>
        <pt x="223" y="108" on="0"/>
        <pt x="311" y="58" on="0"/>
      </contour>
    </TTGlyph>
    <TTGlyph name="Uring" xMin="79" yMin="-5" xMax="677" yMax="917">
      <contour>
        <pt x="304" y="852" on="1"/>
        <pt x="304" y="881" on="0"/>
        <pt x="346" y="917" on="0"/>
        <pt x="378" y="917" on="1"/>
        <pt x="410" y="917" on="0"/>
        <pt x="452" y="881" on="0"/>
        <pt x="452" y="852" on="1"/>
        <pt x="452" y="822" on="0"/>
        <pt x="410" y="786" on="0"/>
        <pt x="378" y="786" on="1"/>
        <pt x="346" y="786" on="0"/>
        <pt x="304" y="822" on="0"/>
      </contour>
      <contour>
        <pt x="378" y="890" on="1"/>
        <pt x="361" y="890" on="0"/>
        <pt x="338" y="869" on="0"/>
        <pt x="338" y="852" on="1"/>
        <pt x="338" y="835" on="0"/>
        <pt x="361" y="813" on="0"/>
        <pt x="378" y="813" on="1"/>
        <pt x="394" y="813" on="0"/>
        <pt x="419" y="835" on="0"/>
        <pt x="419" y="852" on="1"/>
        <pt x="419" y="869" on="0"/>
        <pt x="395" y="890" on="0"/>
      </contour>
      <contour>
        <pt x="377" y="58" on="1"/>
        <pt x="444" y="58" on="0"/>
        <pt x="533" y="109" on="0"/>
        <pt x="586" y="192" on="0"/>
        <pt x="607" y="298" on="0"/>
        <pt x="607" y="352" on="1"/>
        <pt x="607" y="710" on="1"/>
        <pt x="677" y="710" on="1"/>
        <pt x="677" y="352" on="1"/>
        <pt x="677" y="280" on="0"/>
        <pt x="645" y="151" on="0"/>
        <pt x="574" y="53" on="0"/>
        <pt x="460" y="-5" on="0"/>
        <pt x="378" y="-5" on="1"/>
        <pt x="294" y="-5" on="0"/>
        <pt x="179" y="56" on="0"/>
        <pt x="109" y="156" on="0"/>
        <pt x="79" y="284" on="0"/>
        <pt x="79" y="352" on="1"/>
        <pt x="79" y="710" on="1"/>
        <pt x="148" y="710" on="1"/>
        <pt x="148" y="352" on="1"/>
        <pt x="148" y="296" on="0"/>
        <pt x="170" y="190" on="0"/>
        <pt x="223" y="108" on="0"/>
        <pt x="311" y="58" on="0"/>
      </contour>
    </TTGlyph>
    <TTGlyph name="Utilde" xMin="79" yMin="-5" xMax="677" yMax="917">
      <contour>
        <pt x="377" y="58" on="1"/>
        <pt x="444" y="58" on="0"/>
        <pt x="533" y="109" on="0"/>
        <pt x="586" y="192" on="0"/>
        <pt x="607" y="298" on="0"/>
        <pt x="607" y="352" on="1"/>
        <pt x="607" y="710" on="1"/>
        <pt x="677" y="710" on="1"/>
        <pt x="677" y="352" on="1"/>
        <pt x="677" y="280" on="0"/>
        <pt x="645" y="151" on="0"/>
        <pt x="574" y="53" on="0"/>
        <pt x="460" y="-5" on="0"/>
        <pt x="378" y="-5" on="1"/>
        <pt x="294" y="-5" on="0"/>
        <pt x="179" y="56" on="0"/>
        <pt x="109" y="156" on="0"/>
        <pt x="79" y="284" on="0"/>
        <pt x="79" y="352" on="1"/>
        <pt x="79" y="710" on="1"/>
        <pt x="148" y="710" on="1"/>
        <pt x="148" y="352" on="1"/>
        <pt x="148" y="296" on="0"/>
        <pt x="170" y="190" on="0"/>
        <pt x="223" y="108" on="0"/>
        <pt x="311" y="58" on="0"/>
      </contour>
      <contour>
        <pt x="440" y="825" on="1"/>
        <pt x="417" y="825" on="0"/>
        <pt x="384" y="837" on="0"/>
        <pt x="355" y="852" on="0"/>
        <pt x="328" y="865" on="0"/>
        <pt x="312" y="865" on="1"/>
        <pt x="295" y="865" on="0"/>
        <pt x="276" y="851" on="0"/>
        <pt x="265" y="834" on="0"/>
        <pt x="262" y="819" on="0"/>
        <pt x="262" y="817" on="1"/>
        <pt x="220" y="817" on="1"/>
        <pt x="220" y="822" on="0"/>
        <pt x="227" y="853" on="0"/>
        <pt x="247" y="885" on="0"/>
        <pt x="283" y="910" on="0"/>
        <pt x="311" y="910" on="1"/>
        <pt x="332" y="910" on="0"/>
        <pt x="363" y="897" on="0"/>
        <pt x="391" y="881" on="0"/>
        <pt x="420" y="868" on="0"/>
        <pt x="439" y="868" on="1"/>
        <pt x="458" y="868" on="0"/>
        <pt x="481" y="882" on="0"/>
        <pt x="493" y="900" on="0"/>
        <pt x="496" y="915" on="0"/>
        <pt x="496" y="917" on="1"/>
        <pt x="538" y="917" on="1"/>
        <pt x="538" y="912" on="0"/>
        <pt x="530" y="882" on="0"/>
        <pt x="509" y="850" on="0"/>
        <pt x="470" y="825" on="0"/>
      </contour>
    </TTGlyph>
    <TTGlyph name="V" xMin="13" yMin="0" xMax="666" yMax="710">
      <contour>
        <pt x="86" y="710" on="1"/>
        <pt x="340" y="87" on="1"/>
        <pt x="593" y="710" on="1"/>
        <pt x="666" y="710" on="1"/>
        <pt x="370" y="0" on="1"/>
        <pt x="309" y="0" on="1"/>
        <pt x="13" y="710" on="1"/>
      </contour>
    </TTGlyph>
    <TTGlyph name="V.sc" xMin="18" yMin="0" xMax="570" yMax="548">
      <contour>
        <pt x="84" y="548" on="1"/>
        <pt x="295" y="87" on="1"/>
        <pt x="504" y="548" on="1"/>
        <pt x="570" y="548" on="1"/>
        <pt x="321" y="0" on="1"/>
        <pt x="267" y="0" on="1"/>
        <pt x="18" y="548" on="1"/>
      </contour>
    </TTGlyph>
    <TTGlyph name="W" xMin="12" yMin="0" xMax="1035" yMax="710">
      <contour>
        <pt x="356" y="705" on="1"/>
        <pt x="422" y="705" on="1"/>
        <pt x="522" y="453" on="1"/>
        <pt x="623" y="705" on="1"/>
        <pt x="690" y="705" on="1"/>
        <pt x="566" y="402" on="1"/>
        <pt x="702" y="81" on="1"/>
        <pt x="959" y="710" on="1"/>
        <pt x="1035" y="710" on="1"/>
        <pt x="734" y="0" on="1"/>
        <pt x="672" y="0" on="1"/>
        <pt x="523" y="351" on="1"/>
        <pt x="373" y="0" on="1"/>
        <pt x="312" y="0" on="1"/>
        <pt x="12" y="710" on="1"/>
        <pt x="87" y="710" on="1"/>
        <pt x="345" y="81" on="1"/>
        <pt x="480" y="402" on="1"/>
      </contour>
    </TTGlyph>
    <TTGlyph name="W.alt" xMin="21" yMin="0" xMax="1041" yMax="710">
      <contour>
        <pt x="1041" y="710" on="1"/>
        <pt x="815" y="0" on="1"/>
        <pt x="742" y="0" on="1"/>
        <pt x="528" y="597" on="1"/>
        <pt x="320" y="0" on="1"/>
        <pt x="247" y="0" on="1"/>
        <pt x="21" y="710" on="1"/>
        <pt x="99" y="710" on="1"/>
        <pt x="289" y="101" on="1"/>
        <pt x="489" y="710" on="1"/>
        <pt x="565" y="710" on="1"/>
        <pt x="773" y="101" on="1"/>
        <pt x="963" y="710" on="1"/>
      </contour>
    </TTGlyph>
    <TTGlyph name="W.sc" xMin="18" yMin="0" xMax="882" yMax="548">
      <contour>
        <pt x="307" y="544" on="1"/>
        <pt x="366" y="544" on="1"/>
        <pt x="449" y="352" on="1"/>
        <pt x="533" y="544" on="1"/>
        <pt x="592" y="544" on="1"/>
        <pt x="487" y="307" on="1"/>
        <pt x="598" y="76" on="1"/>
        <pt x="813" y="548" on="1"/>
        <pt x="882" y="548" on="1"/>
        <pt x="629" y="0" on="1"/>
        <pt x="574" y="0" on="1"/>
        <pt x="450" y="264" on="1"/>
        <pt x="326" y="0" on="1"/>
        <pt x="270" y="0" on="1"/>
        <pt x="18" y="548" on="1"/>
        <pt x="86" y="548" on="1"/>
        <pt x="302" y="76" on="1"/>
        <pt x="410" y="307" on="1"/>
      </contour>
    </TTGlyph>
    <TTGlyph name="Wacute" xMin="12" yMin="0" xMax="1035" yMax="917">
      <contour>
        <pt x="528" y="807" on="1"/>
        <pt x="483" y="824" on="1"/>
        <pt x="542" y="917" on="1"/>
        <pt x="614" y="917" on="1"/>
      </contour>
      <contour>
        <pt x="356" y="705" on="1"/>
        <pt x="422" y="705" on="1"/>
        <pt x="522" y="453" on="1"/>
        <pt x="623" y="705" on="1"/>
        <pt x="690" y="705" on="1"/>
        <pt x="566" y="402" on="1"/>
        <pt x="702" y="81" on="1"/>
        <pt x="959" y="710" on="1"/>
        <pt x="1035" y="710" on="1"/>
        <pt x="734" y="0" on="1"/>
        <pt x="672" y="0" on="1"/>
        <pt x="523" y="351" on="1"/>
        <pt x="373" y="0" on="1"/>
        <pt x="312" y="0" on="1"/>
        <pt x="12" y="710" on="1"/>
        <pt x="87" y="710" on="1"/>
        <pt x="345" y="81" on="1"/>
        <pt x="480" y="402" on="1"/>
      </contour>
    </TTGlyph>
</ttFont>
